<?xml version="1.0" encoding="utf-8" standalone="no"?>
<!DOCTYPE svg PUBLIC "-//W3C//DTD SVG 1.1//EN"
  "http://www.w3.org/Graphics/SVG/1.1/DTD/svg11.dtd">
<!-- Created with matplotlib (https://matplotlib.org/) -->
<svg height="360pt" version="1.1" viewBox="0 0 1080 360" width="1080pt" xmlns="http://www.w3.org/2000/svg" xmlns:xlink="http://www.w3.org/1999/xlink">
 <defs>
  <style type="text/css">
*{stroke-linecap:butt;stroke-linejoin:round;}
  </style>
 </defs>
 <g id="figure_1">
  <g id="patch_1">
   <path d="M 0 360 
L 1080 360 
L 1080 0 
L 0 0 
z
" style="fill:#ffffff;"/>
  </g>
  <g id="axes_1">
   <g id="patch_2">
    <path d="M 135 315 
L 515.454545 315 
L 515.454545 43.2 
L 135 43.2 
z
" style="fill:#ffffff;"/>
   </g>
   <g id="matplotlib.axis_1">
    <g id="xtick_1">
     <g id="line2d_1">
      <defs>
       <path d="M 0 0 
L 0 3.5 
" id="mb3662d8bf9" style="stroke:#000000;stroke-width:0.8;"/>
      </defs>
      <g>
       <use style="stroke:#000000;stroke-width:0.8;" x="152.293388" xlink:href="#mb3662d8bf9" y="315"/>
      </g>
     </g>
     <g id="text_1">
      <!-- 0 -->
      <defs>
       <path d="M 31.78125 66.40625 
Q 24.171875 66.40625 20.328125 58.90625 
Q 16.5 51.421875 16.5 36.375 
Q 16.5 21.390625 20.328125 13.890625 
Q 24.171875 6.390625 31.78125 6.390625 
Q 39.453125 6.390625 43.28125 13.890625 
Q 47.125 21.390625 47.125 36.375 
Q 47.125 51.421875 43.28125 58.90625 
Q 39.453125 66.40625 31.78125 66.40625 
z
M 31.78125 74.21875 
Q 44.046875 74.21875 50.515625 64.515625 
Q 56.984375 54.828125 56.984375 36.375 
Q 56.984375 17.96875 50.515625 8.265625 
Q 44.046875 -1.421875 31.78125 -1.421875 
Q 19.53125 -1.421875 13.0625 8.265625 
Q 6.59375 17.96875 6.59375 36.375 
Q 6.59375 54.828125 13.0625 64.515625 
Q 19.53125 74.21875 31.78125 74.21875 
z
" id="DejaVuSans-48"/>
      </defs>
      <g transform="translate(149.112138 329.598437)scale(0.1 -0.1)">
       <use xlink:href="#DejaVuSans-48"/>
      </g>
     </g>
    </g>
    <g id="xtick_2">
     <g id="line2d_2">
      <g>
       <use style="stroke:#000000;stroke-width:0.8;" x="221.744748" xlink:href="#mb3662d8bf9" y="315"/>
      </g>
     </g>
     <g id="text_2">
      <!-- 50 -->
      <defs>
       <path d="M 10.796875 72.90625 
L 49.515625 72.90625 
L 49.515625 64.59375 
L 19.828125 64.59375 
L 19.828125 46.734375 
Q 21.96875 47.46875 24.109375 47.828125 
Q 26.265625 48.1875 28.421875 48.1875 
Q 40.625 48.1875 47.75 41.5 
Q 54.890625 34.8125 54.890625 23.390625 
Q 54.890625 11.625 47.5625 5.09375 
Q 40.234375 -1.421875 26.90625 -1.421875 
Q 22.3125 -1.421875 17.546875 -0.640625 
Q 12.796875 0.140625 7.71875 1.703125 
L 7.71875 11.625 
Q 12.109375 9.234375 16.796875 8.0625 
Q 21.484375 6.890625 26.703125 6.890625 
Q 35.15625 6.890625 40.078125 11.328125 
Q 45.015625 15.765625 45.015625 23.390625 
Q 45.015625 31 40.078125 35.4375 
Q 35.15625 39.890625 26.703125 39.890625 
Q 22.75 39.890625 18.8125 39.015625 
Q 14.890625 38.140625 10.796875 36.28125 
z
" id="DejaVuSans-53"/>
      </defs>
      <g transform="translate(215.382248 329.598437)scale(0.1 -0.1)">
       <use xlink:href="#DejaVuSans-53"/>
       <use x="63.623047" xlink:href="#DejaVuSans-48"/>
      </g>
     </g>
    </g>
    <g id="xtick_3">
     <g id="line2d_3">
      <g>
       <use style="stroke:#000000;stroke-width:0.8;" x="291.196107" xlink:href="#mb3662d8bf9" y="315"/>
      </g>
     </g>
     <g id="text_3">
      <!-- 100 -->
      <defs>
       <path d="M 12.40625 8.296875 
L 28.515625 8.296875 
L 28.515625 63.921875 
L 10.984375 60.40625 
L 10.984375 69.390625 
L 28.421875 72.90625 
L 38.28125 72.90625 
L 38.28125 8.296875 
L 54.390625 8.296875 
L 54.390625 0 
L 12.40625 0 
z
" id="DejaVuSans-49"/>
      </defs>
      <g transform="translate(281.652357 329.598437)scale(0.1 -0.1)">
       <use xlink:href="#DejaVuSans-49"/>
       <use x="63.623047" xlink:href="#DejaVuSans-48"/>
       <use x="127.246094" xlink:href="#DejaVuSans-48"/>
      </g>
     </g>
    </g>
    <g id="xtick_4">
     <g id="line2d_4">
      <g>
       <use style="stroke:#000000;stroke-width:0.8;" x="360.647466" xlink:href="#mb3662d8bf9" y="315"/>
      </g>
     </g>
     <g id="text_4">
      <!-- 150 -->
      <g transform="translate(351.103716 329.598437)scale(0.1 -0.1)">
       <use xlink:href="#DejaVuSans-49"/>
       <use x="63.623047" xlink:href="#DejaVuSans-53"/>
       <use x="127.246094" xlink:href="#DejaVuSans-48"/>
      </g>
     </g>
    </g>
    <g id="xtick_5">
     <g id="line2d_5">
      <g>
       <use style="stroke:#000000;stroke-width:0.8;" x="430.098825" xlink:href="#mb3662d8bf9" y="315"/>
      </g>
     </g>
     <g id="text_5">
      <!-- 200 -->
      <defs>
       <path d="M 19.1875 8.296875 
L 53.609375 8.296875 
L 53.609375 0 
L 7.328125 0 
L 7.328125 8.296875 
Q 12.9375 14.109375 22.625 23.890625 
Q 32.328125 33.6875 34.8125 36.53125 
Q 39.546875 41.84375 41.421875 45.53125 
Q 43.3125 49.21875 43.3125 52.78125 
Q 43.3125 58.59375 39.234375 62.25 
Q 35.15625 65.921875 28.609375 65.921875 
Q 23.96875 65.921875 18.8125 64.3125 
Q 13.671875 62.703125 7.8125 59.421875 
L 7.8125 69.390625 
Q 13.765625 71.78125 18.9375 73 
Q 24.125 74.21875 28.421875 74.21875 
Q 39.75 74.21875 46.484375 68.546875 
Q 53.21875 62.890625 53.21875 53.421875 
Q 53.21875 48.921875 51.53125 44.890625 
Q 49.859375 40.875 45.40625 35.40625 
Q 44.1875 33.984375 37.640625 27.21875 
Q 31.109375 20.453125 19.1875 8.296875 
z
" id="DejaVuSans-50"/>
      </defs>
      <g transform="translate(420.555075 329.598437)scale(0.1 -0.1)">
       <use xlink:href="#DejaVuSans-50"/>
       <use x="63.623047" xlink:href="#DejaVuSans-48"/>
       <use x="127.246094" xlink:href="#DejaVuSans-48"/>
      </g>
     </g>
    </g>
    <g id="xtick_6">
     <g id="line2d_6">
      <g>
       <use style="stroke:#000000;stroke-width:0.8;" x="499.550184" xlink:href="#mb3662d8bf9" y="315"/>
      </g>
     </g>
     <g id="text_6">
      <!-- 250 -->
      <g transform="translate(490.006434 329.598437)scale(0.1 -0.1)">
       <use xlink:href="#DejaVuSans-50"/>
       <use x="63.623047" xlink:href="#DejaVuSans-53"/>
       <use x="127.246094" xlink:href="#DejaVuSans-48"/>
      </g>
     </g>
    </g>
   </g>
   <g id="matplotlib.axis_2">
    <g id="ytick_1">
     <g id="line2d_7">
      <defs>
       <path d="M 0 0 
L -3.5 0 
" id="mbb7ca59f8d" style="stroke:#000000;stroke-width:0.8;"/>
      </defs>
      <g>
       <use style="stroke:#000000;stroke-width:0.8;" x="135" xlink:href="#mbb7ca59f8d" y="303.192116"/>
      </g>
     </g>
     <g id="text_7">
      <!-- 0.0 -->
      <defs>
       <path d="M 10.6875 12.40625 
L 21 12.40625 
L 21 0 
L 10.6875 0 
z
" id="DejaVuSans-46"/>
      </defs>
      <g transform="translate(112.096875 306.991335)scale(0.1 -0.1)">
       <use xlink:href="#DejaVuSans-48"/>
       <use x="63.623047" xlink:href="#DejaVuSans-46"/>
       <use x="95.410156" xlink:href="#DejaVuSans-48"/>
      </g>
     </g>
    </g>
    <g id="ytick_2">
     <g id="line2d_8">
      <g>
       <use style="stroke:#000000;stroke-width:0.8;" x="135" xlink:href="#mbb7ca59f8d" y="248.525986"/>
      </g>
     </g>
     <g id="text_8">
      <!-- 0.1 -->
      <g transform="translate(112.096875 252.325204)scale(0.1 -0.1)">
       <use xlink:href="#DejaVuSans-48"/>
       <use x="63.623047" xlink:href="#DejaVuSans-46"/>
       <use x="95.410156" xlink:href="#DejaVuSans-49"/>
      </g>
     </g>
    </g>
    <g id="ytick_3">
     <g id="line2d_9">
      <g>
       <use style="stroke:#000000;stroke-width:0.8;" x="135" xlink:href="#mbb7ca59f8d" y="193.859855"/>
      </g>
     </g>
     <g id="text_9">
      <!-- 0.2 -->
      <g transform="translate(112.096875 197.659074)scale(0.1 -0.1)">
       <use xlink:href="#DejaVuSans-48"/>
       <use x="63.623047" xlink:href="#DejaVuSans-46"/>
       <use x="95.410156" xlink:href="#DejaVuSans-50"/>
      </g>
     </g>
    </g>
    <g id="ytick_4">
     <g id="line2d_10">
      <g>
       <use style="stroke:#000000;stroke-width:0.8;" x="135" xlink:href="#mbb7ca59f8d" y="139.193725"/>
      </g>
     </g>
     <g id="text_10">
      <!-- 0.3 -->
      <defs>
       <path d="M 40.578125 39.3125 
Q 47.65625 37.796875 51.625 33 
Q 55.609375 28.21875 55.609375 21.1875 
Q 55.609375 10.40625 48.1875 4.484375 
Q 40.765625 -1.421875 27.09375 -1.421875 
Q 22.515625 -1.421875 17.65625 -0.515625 
Q 12.796875 0.390625 7.625 2.203125 
L 7.625 11.71875 
Q 11.71875 9.328125 16.59375 8.109375 
Q 21.484375 6.890625 26.8125 6.890625 
Q 36.078125 6.890625 40.9375 10.546875 
Q 45.796875 14.203125 45.796875 21.1875 
Q 45.796875 27.640625 41.28125 31.265625 
Q 36.765625 34.90625 28.71875 34.90625 
L 20.21875 34.90625 
L 20.21875 43.015625 
L 29.109375 43.015625 
Q 36.375 43.015625 40.234375 45.921875 
Q 44.09375 48.828125 44.09375 54.296875 
Q 44.09375 59.90625 40.109375 62.90625 
Q 36.140625 65.921875 28.71875 65.921875 
Q 24.65625 65.921875 20.015625 65.03125 
Q 15.375 64.15625 9.8125 62.3125 
L 9.8125 71.09375 
Q 15.4375 72.65625 20.34375 73.4375 
Q 25.25 74.21875 29.59375 74.21875 
Q 40.828125 74.21875 47.359375 69.109375 
Q 53.90625 64.015625 53.90625 55.328125 
Q 53.90625 49.265625 50.4375 45.09375 
Q 46.96875 40.921875 40.578125 39.3125 
z
" id="DejaVuSans-51"/>
      </defs>
      <g transform="translate(112.096875 142.992944)scale(0.1 -0.1)">
       <use xlink:href="#DejaVuSans-48"/>
       <use x="63.623047" xlink:href="#DejaVuSans-46"/>
       <use x="95.410156" xlink:href="#DejaVuSans-51"/>
      </g>
     </g>
    </g>
    <g id="ytick_5">
     <g id="line2d_11">
      <g>
       <use style="stroke:#000000;stroke-width:0.8;" x="135" xlink:href="#mbb7ca59f8d" y="84.527595"/>
      </g>
     </g>
     <g id="text_11">
      <!-- 0.4 -->
      <defs>
       <path d="M 37.796875 64.3125 
L 12.890625 25.390625 
L 37.796875 25.390625 
z
M 35.203125 72.90625 
L 47.609375 72.90625 
L 47.609375 25.390625 
L 58.015625 25.390625 
L 58.015625 17.1875 
L 47.609375 17.1875 
L 47.609375 0 
L 37.796875 0 
L 37.796875 17.1875 
L 4.890625 17.1875 
L 4.890625 26.703125 
z
" id="DejaVuSans-52"/>
      </defs>
      <g transform="translate(112.096875 88.326813)scale(0.1 -0.1)">
       <use xlink:href="#DejaVuSans-48"/>
       <use x="63.623047" xlink:href="#DejaVuSans-46"/>
       <use x="95.410156" xlink:href="#DejaVuSans-52"/>
      </g>
     </g>
    </g>
   </g>
   <g id="line2d_12">
    <path clip-path="url(#p2ac5997bb1)" d="M 152.293388 55.554545 
L 153.682416 103.114079 
L 155.071443 111.313998 
L 156.46047 114.593966 
L 157.849497 119.513918 
L 159.238524 102.020756 
L 160.627552 100.927434 
L 162.016579 96.554143 
L 163.405606 96.554143 
L 164.794633 97.100805 
L 166.18366 91.634191 
L 167.572687 102.567418 
L 168.961715 90.540869 
L 170.350742 104.207401 
L 171.739769 122.793886 
L 173.128796 132.633789 
L 174.517823 162.700161 
L 175.906851 160.513516 
L 177.295878 182.379968 
L 178.684905 197.686484 
L 180.073932 194.953178 
L 181.462959 211.899678 
L 182.851986 212.44634 
L 184.241014 218.459614 
L 185.630041 218.459614 
L 187.019068 222.832904 
L 188.408095 233.219469 
L 189.797122 217.912953 
L 191.18615 222.286243 
L 192.575177 231.032824 
L 193.964204 243.606034 
L 195.353231 228.846179 
L 196.742258 240.326066 
L 198.131285 248.525986 
L 199.520313 252.352615 
L 200.90934 238.686082 
L 202.298367 230.486163 
L 203.687394 253.445937 
L 205.076421 238.139421 
L 206.465449 251.259292 
L 207.854476 255.085921 
L 209.243503 264.379163 
L 210.63253 238.686082 
L 212.021557 261.099195 
L 213.410584 267.659131 
L 214.799612 249.072647 
L 216.188639 251.805953 
L 217.577666 271.48576 
L 218.966693 258.365889 
L 220.35572 263.832502 
L 221.744748 249.619308 
L 223.133775 263.832502 
L 224.522802 260.005873 
L 225.911829 276.405712 
L 227.300856 255.632582 
L 228.689884 264.379163 
L 230.078911 269.299115 
L 231.467938 258.365889 
L 232.856965 280.779002 
L 234.245992 273.672405 
L 235.635019 262.739179 
L 237.024047 274.765728 
L 238.413074 274.219067 
L 239.802101 260.005873 
L 241.191128 269.299115 
L 242.580155 274.765728 
L 243.969183 276.952373 
L 245.35821 275.859051 
L 246.747237 285.152293 
L 248.136264 277.499035 
L 249.525291 285.152293 
L 250.914318 272.032422 
L 252.303346 287.885599 
L 253.692373 264.379163 
L 255.0814 292.805551 
L 256.470427 290.618906 
L 257.859454 286.792277 
L 259.248482 272.032422 
L 260.637509 290.072245 
L 262.026536 287.338938 
L 263.415563 282.418986 
L 264.80459 292.805551 
L 266.193617 296.085519 
L 267.582645 273.672405 
L 268.971672 290.072245 
L 270.360699 275.859051 
L 271.749726 290.618906 
L 273.138753 282.418986 
L 274.527781 298.272164 
L 275.916808 276.952373 
L 277.305835 278.045696 
L 278.694862 288.432261 
L 280.083889 284.05897 
L 281.472916 296.085519 
L 282.861944 280.232341 
L 284.250971 279.139019 
L 285.639998 296.085519 
L 287.029025 275.859051 
L 288.418052 288.432261 
L 289.80708 281.872325 
L 291.196107 291.165567 
L 292.585134 275.859051 
L 293.974161 286.792277 
L 295.363188 287.885599 
L 296.752215 291.712228 
L 298.141243 289.525583 
L 299.53027 298.272164 
L 300.919297 291.712228 
L 302.308324 289.525583 
L 303.697351 286.792277 
L 305.086379 293.898874 
L 306.475406 294.445535 
L 307.864433 292.805551 
L 309.25346 278.045696 
L 310.642487 292.25889 
L 312.031514 285.152293 
L 313.420542 287.338938 
L 314.809569 299.365487 
L 316.198596 294.445535 
L 317.587623 290.618906 
L 318.97665 298.818825 
L 320.365678 280.779002 
L 321.754705 286.245615 
L 323.143732 295.538858 
L 324.532759 292.805551 
L 325.921786 282.418986 
L 327.310814 290.618906 
L 328.699841 296.085519 
L 331.477895 292.805551 
L 332.866922 297.725503 
L 334.255949 288.432261 
L 335.644977 297.178842 
L 337.034004 292.25889 
L 338.423031 293.352212 
L 339.812058 293.898874 
L 341.201085 299.912148 
L 343.97914 293.352212 
L 345.368167 294.445535 
L 346.757194 284.605632 
L 348.146221 295.538858 
L 349.535248 291.165567 
L 350.924276 294.445535 
L 352.313303 287.885599 
L 353.70233 280.779002 
L 355.091357 298.272164 
L 357.869412 298.272164 
L 359.258439 289.525583 
L 360.647466 293.352212 
L 362.036493 293.898874 
L 363.42552 286.245615 
L 364.814547 300.458809 
L 366.203575 288.432261 
L 367.592602 294.992196 
L 368.981629 300.458809 
L 370.370656 298.272164 
L 371.759683 291.165567 
L 373.148711 288.978922 
L 374.537738 287.338938 
L 375.926765 291.165567 
L 377.315792 284.605632 
L 378.704819 280.232341 
L 380.093846 278.045696 
L 381.482874 287.885599 
L 382.871901 287.885599 
L 384.260928 297.178842 
L 385.649955 285.698954 
L 387.038982 294.445535 
L 388.42801 294.445535 
L 389.817037 299.912148 
L 391.206064 293.352212 
L 392.595091 287.338938 
L 393.984118 284.605632 
L 395.373145 280.779002 
L 396.762173 292.805551 
L 398.1512 290.618906 
L 400.929254 294.992196 
L 402.318281 291.712228 
L 403.707309 287.338938 
L 405.096336 293.352212 
L 406.485363 298.818825 
L 407.87439 299.912148 
L 409.263417 279.139019 
L 410.652444 290.618906 
L 412.041472 294.992196 
L 413.430499 290.618906 
L 414.819526 295.538858 
L 416.208553 292.805551 
L 417.59758 289.525583 
L 418.986608 295.538858 
L 420.375635 291.712228 
L 421.764662 299.365487 
L 423.153689 292.25889 
L 424.542716 296.63218 
L 425.931744 299.912148 
L 427.320771 299.912148 
L 428.709798 293.898874 
L 430.098825 296.63218 
L 431.487852 302.645455 
L 432.876879 287.338938 
L 434.265907 291.165567 
L 435.654934 293.898874 
L 437.043961 291.712228 
L 438.432988 298.272164 
L 439.822015 291.712228 
L 441.211043 302.098793 
L 442.60007 294.445535 
L 443.989097 288.978922 
L 445.378124 275.312389 
L 446.767151 294.992196 
L 448.156178 296.085519 
L 449.545206 290.072245 
L 450.934233 294.445535 
L 452.32326 297.178842 
L 453.712287 288.432261 
L 455.101314 297.178842 
L 456.490342 291.165567 
L 459.268396 299.912148 
L 460.657423 302.645455 
L 462.04645 300.458809 
L 463.435477 300.458809 
L 464.824505 297.178842 
L 466.213532 301.552132 
L 467.602559 302.098793 
L 468.991586 301.005471 
L 470.380613 291.712228 
L 471.769641 296.63218 
L 473.158668 288.978922 
L 474.547695 296.63218 
L 475.936722 298.818825 
L 477.325749 298.272164 
L 478.714776 292.805551 
L 480.103804 297.725503 
L 481.492831 294.992196 
L 482.881858 302.098793 
L 484.270885 296.085519 
L 485.659912 298.272164 
L 487.04894 291.165567 
L 488.437967 297.725503 
L 489.826994 301.552132 
L 491.216021 294.992196 
L 492.605048 293.898874 
L 493.994075 300.458809 
L 495.383103 292.805551 
L 496.77213 295.538858 
L 498.161157 293.898874 
L 498.161157 293.898874 
" style="fill:none;stroke:#ff0000;stroke-linecap:square;stroke-width:1.5;"/>
   </g>
   <g id="patch_3">
    <path d="M 135 315 
L 135 43.2 
" style="fill:none;stroke:#000000;stroke-linecap:square;stroke-linejoin:miter;stroke-width:0.8;"/>
   </g>
   <g id="patch_4">
    <path d="M 515.454545 315 
L 515.454545 43.2 
" style="fill:none;stroke:#000000;stroke-linecap:square;stroke-linejoin:miter;stroke-width:0.8;"/>
   </g>
   <g id="patch_5">
    <path d="M 135 315 
L 515.454545 315 
" style="fill:none;stroke:#000000;stroke-linecap:square;stroke-linejoin:miter;stroke-width:0.8;"/>
   </g>
   <g id="patch_6">
    <path d="M 135 43.2 
L 515.454545 43.2 
" style="fill:none;stroke:#000000;stroke-linecap:square;stroke-linejoin:miter;stroke-width:0.8;"/>
   </g>
   <g id="text_12">
    <!-- loss_class_cls -->
    <defs>
     <path d="M 9.421875 75.984375 
L 18.40625 75.984375 
L 18.40625 0 
L 9.421875 0 
z
" id="DejaVuSans-108"/>
     <path d="M 30.609375 48.390625 
Q 23.390625 48.390625 19.1875 42.75 
Q 14.984375 37.109375 14.984375 27.296875 
Q 14.984375 17.484375 19.15625 11.84375 
Q 23.34375 6.203125 30.609375 6.203125 
Q 37.796875 6.203125 41.984375 11.859375 
Q 46.1875 17.53125 46.1875 27.296875 
Q 46.1875 37.015625 41.984375 42.703125 
Q 37.796875 48.390625 30.609375 48.390625 
z
M 30.609375 56 
Q 42.328125 56 49.015625 48.375 
Q 55.71875 40.765625 55.71875 27.296875 
Q 55.71875 13.875 49.015625 6.21875 
Q 42.328125 -1.421875 30.609375 -1.421875 
Q 18.84375 -1.421875 12.171875 6.21875 
Q 5.515625 13.875 5.515625 27.296875 
Q 5.515625 40.765625 12.171875 48.375 
Q 18.84375 56 30.609375 56 
z
" id="DejaVuSans-111"/>
     <path d="M 44.28125 53.078125 
L 44.28125 44.578125 
Q 40.484375 46.53125 36.375 47.5 
Q 32.28125 48.484375 27.875 48.484375 
Q 21.1875 48.484375 17.84375 46.4375 
Q 14.5 44.390625 14.5 40.28125 
Q 14.5 37.15625 16.890625 35.375 
Q 19.28125 33.59375 26.515625 31.984375 
L 29.59375 31.296875 
Q 39.15625 29.25 43.1875 25.515625 
Q 47.21875 21.78125 47.21875 15.09375 
Q 47.21875 7.46875 41.1875 3.015625 
Q 35.15625 -1.421875 24.609375 -1.421875 
Q 20.21875 -1.421875 15.453125 -0.5625 
Q 10.6875 0.296875 5.421875 2 
L 5.421875 11.28125 
Q 10.40625 8.6875 15.234375 7.390625 
Q 20.0625 6.109375 24.8125 6.109375 
Q 31.15625 6.109375 34.5625 8.28125 
Q 37.984375 10.453125 37.984375 14.40625 
Q 37.984375 18.0625 35.515625 20.015625 
Q 33.0625 21.96875 24.703125 23.78125 
L 21.578125 24.515625 
Q 13.234375 26.265625 9.515625 29.90625 
Q 5.8125 33.546875 5.8125 39.890625 
Q 5.8125 47.609375 11.28125 51.796875 
Q 16.75 56 26.8125 56 
Q 31.78125 56 36.171875 55.265625 
Q 40.578125 54.546875 44.28125 53.078125 
z
" id="DejaVuSans-115"/>
     <path d="M 50.984375 -16.609375 
L 50.984375 -23.578125 
L -0.984375 -23.578125 
L -0.984375 -16.609375 
z
" id="DejaVuSans-95"/>
     <path d="M 48.78125 52.59375 
L 48.78125 44.1875 
Q 44.96875 46.296875 41.140625 47.34375 
Q 37.3125 48.390625 33.40625 48.390625 
Q 24.65625 48.390625 19.8125 42.84375 
Q 14.984375 37.3125 14.984375 27.296875 
Q 14.984375 17.28125 19.8125 11.734375 
Q 24.65625 6.203125 33.40625 6.203125 
Q 37.3125 6.203125 41.140625 7.25 
Q 44.96875 8.296875 48.78125 10.40625 
L 48.78125 2.09375 
Q 45.015625 0.34375 40.984375 -0.53125 
Q 36.96875 -1.421875 32.421875 -1.421875 
Q 20.0625 -1.421875 12.78125 6.34375 
Q 5.515625 14.109375 5.515625 27.296875 
Q 5.515625 40.671875 12.859375 48.328125 
Q 20.21875 56 33.015625 56 
Q 37.15625 56 41.109375 55.140625 
Q 45.0625 54.296875 48.78125 52.59375 
z
" id="DejaVuSans-99"/>
     <path d="M 34.28125 27.484375 
Q 23.390625 27.484375 19.1875 25 
Q 14.984375 22.515625 14.984375 16.5 
Q 14.984375 11.71875 18.140625 8.90625 
Q 21.296875 6.109375 26.703125 6.109375 
Q 34.1875 6.109375 38.703125 11.40625 
Q 43.21875 16.703125 43.21875 25.484375 
L 43.21875 27.484375 
z
M 52.203125 31.203125 
L 52.203125 0 
L 43.21875 0 
L 43.21875 8.296875 
Q 40.140625 3.328125 35.546875 0.953125 
Q 30.953125 -1.421875 24.3125 -1.421875 
Q 15.921875 -1.421875 10.953125 3.296875 
Q 6 8.015625 6 15.921875 
Q 6 25.140625 12.171875 29.828125 
Q 18.359375 34.515625 30.609375 34.515625 
L 43.21875 34.515625 
L 43.21875 35.40625 
Q 43.21875 41.609375 39.140625 45 
Q 35.0625 48.390625 27.6875 48.390625 
Q 23 48.390625 18.546875 47.265625 
Q 14.109375 46.140625 10.015625 43.890625 
L 10.015625 52.203125 
Q 14.9375 54.109375 19.578125 55.046875 
Q 24.21875 56 28.609375 56 
Q 40.484375 56 46.34375 49.84375 
Q 52.203125 43.703125 52.203125 31.203125 
z
" id="DejaVuSans-97"/>
    </defs>
    <g transform="translate(284.652273 37.2)scale(0.12 -0.12)">
     <use xlink:href="#DejaVuSans-108"/>
     <use x="27.783203" xlink:href="#DejaVuSans-111"/>
     <use x="88.964844" xlink:href="#DejaVuSans-115"/>
     <use x="141.064453" xlink:href="#DejaVuSans-115"/>
     <use x="193.164062" xlink:href="#DejaVuSans-95"/>
     <use x="243.164062" xlink:href="#DejaVuSans-99"/>
     <use x="298.144531" xlink:href="#DejaVuSans-108"/>
     <use x="325.927734" xlink:href="#DejaVuSans-97"/>
     <use x="387.207031" xlink:href="#DejaVuSans-115"/>
     <use x="439.306641" xlink:href="#DejaVuSans-115"/>
     <use x="491.40625" xlink:href="#DejaVuSans-95"/>
     <use x="541.40625" xlink:href="#DejaVuSans-99"/>
     <use x="596.386719" xlink:href="#DejaVuSans-108"/>
     <use x="624.169922" xlink:href="#DejaVuSans-115"/>
    </g>
   </g>
  </g>
  <g id="axes_2">
   <g id="patch_7">
    <path d="M 591.545455 315 
L 972 315 
L 972 43.2 
L 591.545455 43.2 
z
" style="fill:#ffffff;"/>
   </g>
   <g id="matplotlib.axis_3">
    <g id="xtick_7">
     <g id="line2d_13">
      <g>
       <use style="stroke:#000000;stroke-width:0.8;" x="608.838843" xlink:href="#mb3662d8bf9" y="315"/>
      </g>
     </g>
     <g id="text_13">
      <!-- 0 -->
      <g transform="translate(605.657593 329.598437)scale(0.1 -0.1)">
       <use xlink:href="#DejaVuSans-48"/>
      </g>
     </g>
    </g>
    <g id="xtick_8">
     <g id="line2d_14">
      <g>
       <use style="stroke:#000000;stroke-width:0.8;" x="678.290202" xlink:href="#mb3662d8bf9" y="315"/>
      </g>
     </g>
     <g id="text_14">
      <!-- 50 -->
      <g transform="translate(671.927702 329.598437)scale(0.1 -0.1)">
       <use xlink:href="#DejaVuSans-53"/>
       <use x="63.623047" xlink:href="#DejaVuSans-48"/>
      </g>
     </g>
    </g>
    <g id="xtick_9">
     <g id="line2d_15">
      <g>
       <use style="stroke:#000000;stroke-width:0.8;" x="747.741561" xlink:href="#mb3662d8bf9" y="315"/>
      </g>
     </g>
     <g id="text_15">
      <!-- 100 -->
      <g transform="translate(738.197811 329.598437)scale(0.1 -0.1)">
       <use xlink:href="#DejaVuSans-49"/>
       <use x="63.623047" xlink:href="#DejaVuSans-48"/>
       <use x="127.246094" xlink:href="#DejaVuSans-48"/>
      </g>
     </g>
    </g>
    <g id="xtick_10">
     <g id="line2d_16">
      <g>
       <use style="stroke:#000000;stroke-width:0.8;" x="817.19292" xlink:href="#mb3662d8bf9" y="315"/>
      </g>
     </g>
     <g id="text_16">
      <!-- 150 -->
      <g transform="translate(807.64917 329.598437)scale(0.1 -0.1)">
       <use xlink:href="#DejaVuSans-49"/>
       <use x="63.623047" xlink:href="#DejaVuSans-53"/>
       <use x="127.246094" xlink:href="#DejaVuSans-48"/>
      </g>
     </g>
    </g>
    <g id="xtick_11">
     <g id="line2d_17">
      <g>
       <use style="stroke:#000000;stroke-width:0.8;" x="886.64428" xlink:href="#mb3662d8bf9" y="315"/>
      </g>
     </g>
     <g id="text_17">
      <!-- 200 -->
      <g transform="translate(877.10053 329.598437)scale(0.1 -0.1)">
       <use xlink:href="#DejaVuSans-50"/>
       <use x="63.623047" xlink:href="#DejaVuSans-48"/>
       <use x="127.246094" xlink:href="#DejaVuSans-48"/>
      </g>
     </g>
    </g>
    <g id="xtick_12">
     <g id="line2d_18">
      <g>
       <use style="stroke:#000000;stroke-width:0.8;" x="956.095639" xlink:href="#mb3662d8bf9" y="315"/>
      </g>
     </g>
     <g id="text_18">
      <!-- 250 -->
      <g transform="translate(946.551889 329.598437)scale(0.1 -0.1)">
       <use xlink:href="#DejaVuSans-50"/>
       <use x="63.623047" xlink:href="#DejaVuSans-53"/>
       <use x="127.246094" xlink:href="#DejaVuSans-48"/>
      </g>
     </g>
    </g>
   </g>
   <g id="matplotlib.axis_4">
    <g id="ytick_6">
     <g id="line2d_19">
      <g>
       <use style="stroke:#000000;stroke-width:0.8;" x="591.545455" xlink:href="#mbb7ca59f8d" y="283.138278"/>
      </g>
     </g>
     <g id="text_19">
      <!-- 0.01 -->
      <g transform="translate(562.27983 286.937496)scale(0.1 -0.1)">
       <use xlink:href="#DejaVuSans-48"/>
       <use x="63.623047" xlink:href="#DejaVuSans-46"/>
       <use x="95.410156" xlink:href="#DejaVuSans-48"/>
       <use x="159.033203" xlink:href="#DejaVuSans-49"/>
      </g>
     </g>
    </g>
    <g id="ytick_7">
     <g id="line2d_20">
      <g>
       <use style="stroke:#000000;stroke-width:0.8;" x="591.545455" xlink:href="#mbb7ca59f8d" y="250.626316"/>
      </g>
     </g>
     <g id="text_20">
      <!-- 0.02 -->
      <g transform="translate(562.27983 254.425535)scale(0.1 -0.1)">
       <use xlink:href="#DejaVuSans-48"/>
       <use x="63.623047" xlink:href="#DejaVuSans-46"/>
       <use x="95.410156" xlink:href="#DejaVuSans-48"/>
       <use x="159.033203" xlink:href="#DejaVuSans-50"/>
      </g>
     </g>
    </g>
    <g id="ytick_8">
     <g id="line2d_21">
      <g>
       <use style="stroke:#000000;stroke-width:0.8;" x="591.545455" xlink:href="#mbb7ca59f8d" y="218.114354"/>
      </g>
     </g>
     <g id="text_21">
      <!-- 0.03 -->
      <g transform="translate(562.27983 221.913573)scale(0.1 -0.1)">
       <use xlink:href="#DejaVuSans-48"/>
       <use x="63.623047" xlink:href="#DejaVuSans-46"/>
       <use x="95.410156" xlink:href="#DejaVuSans-48"/>
       <use x="159.033203" xlink:href="#DejaVuSans-51"/>
      </g>
     </g>
    </g>
    <g id="ytick_9">
     <g id="line2d_22">
      <g>
       <use style="stroke:#000000;stroke-width:0.8;" x="591.545455" xlink:href="#mbb7ca59f8d" y="185.602392"/>
      </g>
     </g>
     <g id="text_22">
      <!-- 0.04 -->
      <g transform="translate(562.27983 189.401611)scale(0.1 -0.1)">
       <use xlink:href="#DejaVuSans-48"/>
       <use x="63.623047" xlink:href="#DejaVuSans-46"/>
       <use x="95.410156" xlink:href="#DejaVuSans-48"/>
       <use x="159.033203" xlink:href="#DejaVuSans-52"/>
      </g>
     </g>
    </g>
    <g id="ytick_10">
     <g id="line2d_23">
      <g>
       <use style="stroke:#000000;stroke-width:0.8;" x="591.545455" xlink:href="#mbb7ca59f8d" y="153.090431"/>
      </g>
     </g>
     <g id="text_23">
      <!-- 0.05 -->
      <g transform="translate(562.27983 156.889649)scale(0.1 -0.1)">
       <use xlink:href="#DejaVuSans-48"/>
       <use x="63.623047" xlink:href="#DejaVuSans-46"/>
       <use x="95.410156" xlink:href="#DejaVuSans-48"/>
       <use x="159.033203" xlink:href="#DejaVuSans-53"/>
      </g>
     </g>
    </g>
    <g id="ytick_11">
     <g id="line2d_24">
      <g>
       <use style="stroke:#000000;stroke-width:0.8;" x="591.545455" xlink:href="#mbb7ca59f8d" y="120.578469"/>
      </g>
     </g>
     <g id="text_24">
      <!-- 0.06 -->
      <defs>
       <path d="M 33.015625 40.375 
Q 26.375 40.375 22.484375 35.828125 
Q 18.609375 31.296875 18.609375 23.390625 
Q 18.609375 15.53125 22.484375 10.953125 
Q 26.375 6.390625 33.015625 6.390625 
Q 39.65625 6.390625 43.53125 10.953125 
Q 47.40625 15.53125 47.40625 23.390625 
Q 47.40625 31.296875 43.53125 35.828125 
Q 39.65625 40.375 33.015625 40.375 
z
M 52.59375 71.296875 
L 52.59375 62.3125 
Q 48.875 64.0625 45.09375 64.984375 
Q 41.3125 65.921875 37.59375 65.921875 
Q 27.828125 65.921875 22.671875 59.328125 
Q 17.53125 52.734375 16.796875 39.40625 
Q 19.671875 43.65625 24.015625 45.921875 
Q 28.375 48.1875 33.59375 48.1875 
Q 44.578125 48.1875 50.953125 41.515625 
Q 57.328125 34.859375 57.328125 23.390625 
Q 57.328125 12.15625 50.6875 5.359375 
Q 44.046875 -1.421875 33.015625 -1.421875 
Q 20.359375 -1.421875 13.671875 8.265625 
Q 6.984375 17.96875 6.984375 36.375 
Q 6.984375 53.65625 15.1875 63.9375 
Q 23.390625 74.21875 37.203125 74.21875 
Q 40.921875 74.21875 44.703125 73.484375 
Q 48.484375 72.75 52.59375 71.296875 
z
" id="DejaVuSans-54"/>
      </defs>
      <g transform="translate(562.27983 124.377688)scale(0.1 -0.1)">
       <use xlink:href="#DejaVuSans-48"/>
       <use x="63.623047" xlink:href="#DejaVuSans-46"/>
       <use x="95.410156" xlink:href="#DejaVuSans-48"/>
       <use x="159.033203" xlink:href="#DejaVuSans-54"/>
      </g>
     </g>
    </g>
    <g id="ytick_12">
     <g id="line2d_25">
      <g>
       <use style="stroke:#000000;stroke-width:0.8;" x="591.545455" xlink:href="#mbb7ca59f8d" y="88.066507"/>
      </g>
     </g>
     <g id="text_25">
      <!-- 0.07 -->
      <defs>
       <path d="M 8.203125 72.90625 
L 55.078125 72.90625 
L 55.078125 68.703125 
L 28.609375 0 
L 18.3125 0 
L 43.21875 64.59375 
L 8.203125 64.59375 
z
" id="DejaVuSans-55"/>
      </defs>
      <g transform="translate(562.27983 91.865726)scale(0.1 -0.1)">
       <use xlink:href="#DejaVuSans-48"/>
       <use x="63.623047" xlink:href="#DejaVuSans-46"/>
       <use x="95.410156" xlink:href="#DejaVuSans-48"/>
       <use x="159.033203" xlink:href="#DejaVuSans-55"/>
      </g>
     </g>
    </g>
    <g id="ytick_13">
     <g id="line2d_26">
      <g>
       <use style="stroke:#000000;stroke-width:0.8;" x="591.545455" xlink:href="#mbb7ca59f8d" y="55.554545"/>
      </g>
     </g>
     <g id="text_26">
      <!-- 0.08 -->
      <defs>
       <path d="M 31.78125 34.625 
Q 24.75 34.625 20.71875 30.859375 
Q 16.703125 27.09375 16.703125 20.515625 
Q 16.703125 13.921875 20.71875 10.15625 
Q 24.75 6.390625 31.78125 6.390625 
Q 38.8125 6.390625 42.859375 10.171875 
Q 46.921875 13.96875 46.921875 20.515625 
Q 46.921875 27.09375 42.890625 30.859375 
Q 38.875 34.625 31.78125 34.625 
z
M 21.921875 38.8125 
Q 15.578125 40.375 12.03125 44.71875 
Q 8.5 49.078125 8.5 55.328125 
Q 8.5 64.0625 14.71875 69.140625 
Q 20.953125 74.21875 31.78125 74.21875 
Q 42.671875 74.21875 48.875 69.140625 
Q 55.078125 64.0625 55.078125 55.328125 
Q 55.078125 49.078125 51.53125 44.71875 
Q 48 40.375 41.703125 38.8125 
Q 48.828125 37.15625 52.796875 32.3125 
Q 56.78125 27.484375 56.78125 20.515625 
Q 56.78125 9.90625 50.3125 4.234375 
Q 43.84375 -1.421875 31.78125 -1.421875 
Q 19.734375 -1.421875 13.25 4.234375 
Q 6.78125 9.90625 6.78125 20.515625 
Q 6.78125 27.484375 10.78125 32.3125 
Q 14.796875 37.15625 21.921875 38.8125 
z
M 18.3125 54.390625 
Q 18.3125 48.734375 21.84375 45.5625 
Q 25.390625 42.390625 31.78125 42.390625 
Q 38.140625 42.390625 41.71875 45.5625 
Q 45.3125 48.734375 45.3125 54.390625 
Q 45.3125 60.0625 41.71875 63.234375 
Q 38.140625 66.40625 31.78125 66.40625 
Q 25.390625 66.40625 21.84375 63.234375 
Q 18.3125 60.0625 18.3125 54.390625 
z
" id="DejaVuSans-56"/>
      </defs>
      <g transform="translate(562.27983 59.353764)scale(0.1 -0.1)">
       <use xlink:href="#DejaVuSans-48"/>
       <use x="63.623047" xlink:href="#DejaVuSans-46"/>
       <use x="95.410156" xlink:href="#DejaVuSans-48"/>
       <use x="159.033203" xlink:href="#DejaVuSans-56"/>
      </g>
     </g>
    </g>
   </g>
   <g id="line2d_27">
    <path clip-path="url(#pf023d4581a)" d="M 608.838843 172.597608 
L 610.22787 55.554545 
L 611.616897 75.061722 
L 613.005925 84.815311 
L 614.394952 104.322488 
L 615.783979 81.564115 
L 617.173006 81.564115 
L 618.562033 68.55933 
L 619.95106 104.322488 
L 621.340088 101.071292 
L 622.729115 107.573684 
L 624.118142 104.322488 
L 625.507169 97.820096 
L 626.896196 130.332057 
L 628.285224 120.578469 
L 629.674251 120.578469 
L 631.063278 133.583254 
L 632.452305 140.085646 
L 633.841332 127.080861 
L 635.230359 140.085646 
L 636.619387 162.844019 
L 638.008414 136.83445 
L 639.397441 169.346411 
L 640.786468 130.332057 
L 642.175495 149.839234 
L 643.564523 149.839234 
L 644.95355 156.341627 
L 647.731604 149.839234 
L 649.120631 159.592823 
L 650.509658 156.341627 
L 651.898686 159.592823 
L 653.287713 156.341627 
L 654.67674 172.597608 
L 656.065767 195.355981 
L 657.454794 179.1 
L 658.843822 175.848804 
L 660.232849 188.853589 
L 661.621876 211.611962 
L 663.010903 214.863158 
L 664.39993 221.36555 
L 665.788957 218.114354 
L 667.177985 211.611962 
L 668.567012 211.611962 
L 669.956039 221.36555 
L 671.345066 214.863158 
L 674.123121 240.872727 
L 675.512148 227.867943 
L 676.901175 231.119139 
L 678.290202 224.616746 
L 679.679229 237.621531 
L 681.068256 234.370335 
L 682.457284 237.621531 
L 683.846311 218.114354 
L 685.235338 244.123923 
L 686.624365 231.119139 
L 688.013392 247.37512 
L 689.40242 244.123923 
L 690.791447 250.626316 
L 692.180474 244.123923 
L 693.569501 247.37512 
L 694.958528 253.877512 
L 697.736583 247.37512 
L 699.12561 260.379904 
L 700.514637 257.128708 
L 701.903664 257.128708 
L 703.292691 263.6311 
L 704.681719 257.128708 
L 706.070746 253.877512 
L 707.459773 257.128708 
L 708.8488 270.133493 
L 710.237827 260.379904 
L 711.626855 279.887081 
L 714.404909 260.379904 
L 715.793936 263.6311 
L 717.182963 263.6311 
L 718.57199 273.384689 
L 719.961018 270.133493 
L 722.739072 276.635885 
L 724.128099 263.6311 
L 725.517126 279.887081 
L 726.906154 270.133493 
L 728.295181 276.635885 
L 729.684208 266.882297 
L 731.073235 270.133493 
L 732.462262 260.379904 
L 733.851289 266.882297 
L 735.240317 266.882297 
L 736.629344 270.133493 
L 738.018371 286.389474 
L 739.407398 270.133493 
L 740.796425 270.133493 
L 742.185453 283.138278 
L 743.57448 270.133493 
L 744.963507 273.384689 
L 746.352534 273.384689 
L 747.741561 279.887081 
L 749.130588 266.882297 
L 750.519616 263.6311 
L 751.908643 279.887081 
L 754.686697 273.384689 
L 756.075724 283.138278 
L 757.464752 273.384689 
L 760.242806 286.389474 
L 761.631833 283.138278 
L 764.409887 283.138278 
L 765.798915 276.635885 
L 767.187942 286.389474 
L 768.576969 276.635885 
L 769.965996 279.887081 
L 771.355023 286.389474 
L 772.744051 289.64067 
L 774.133078 283.138278 
L 775.522105 292.891866 
L 776.911132 279.887081 
L 778.300159 283.138278 
L 779.689186 283.138278 
L 781.078214 286.389474 
L 782.467241 276.635885 
L 783.856268 286.389474 
L 785.245295 289.64067 
L 786.634322 289.64067 
L 788.02335 286.389474 
L 790.801404 286.389474 
L 792.190431 289.64067 
L 793.579458 283.138278 
L 794.968486 289.64067 
L 796.357513 289.64067 
L 797.74654 292.891866 
L 799.135567 286.389474 
L 800.524594 289.64067 
L 801.913621 286.389474 
L 803.302649 286.389474 
L 804.691676 289.64067 
L 807.46973 289.64067 
L 808.858757 283.138278 
L 810.247785 279.887081 
L 811.636812 289.64067 
L 813.025839 289.64067 
L 814.414866 292.891866 
L 815.803893 279.887081 
L 817.19292 289.64067 
L 818.581948 289.64067 
L 819.970975 283.138278 
L 821.360002 292.891866 
L 822.749029 292.891866 
L 824.138056 296.143062 
L 825.527084 286.389474 
L 826.916111 292.891866 
L 828.305138 292.891866 
L 829.694165 286.389474 
L 832.472219 286.389474 
L 833.861247 283.138278 
L 835.250274 276.635885 
L 836.639301 276.635885 
L 839.417355 283.138278 
L 842.19541 283.138278 
L 843.584437 289.64067 
L 844.973464 292.891866 
L 847.751518 286.389474 
L 849.140546 286.389474 
L 850.529573 283.138278 
L 851.9186 276.635885 
L 853.307627 292.891866 
L 854.696654 289.64067 
L 856.085682 289.64067 
L 857.474709 299.394258 
L 858.863736 286.389474 
L 860.252763 292.891866 
L 861.64179 292.891866 
L 863.030817 299.394258 
L 864.419845 292.891866 
L 865.808872 279.887081 
L 867.197899 286.389474 
L 868.586926 286.389474 
L 869.975953 279.887081 
L 871.364981 292.891866 
L 872.754008 289.64067 
L 874.143035 283.138278 
L 875.532062 292.891866 
L 876.921089 283.138278 
L 878.310116 296.143062 
L 879.699144 299.394258 
L 881.088171 296.143062 
L 882.477198 296.143062 
L 883.866225 299.394258 
L 885.255252 292.891866 
L 886.64428 292.891866 
L 888.033307 299.394258 
L 889.422334 289.64067 
L 890.811361 289.64067 
L 892.200388 292.891866 
L 893.589416 286.389474 
L 894.978443 286.389474 
L 896.36747 289.64067 
L 897.756497 299.394258 
L 899.145524 292.891866 
L 900.534551 289.64067 
L 901.923579 250.626316 
L 903.312606 292.891866 
L 904.701633 292.891866 
L 906.09066 296.143062 
L 907.479687 292.891866 
L 908.868715 292.891866 
L 910.257742 286.389474 
L 911.646769 296.143062 
L 913.035796 289.64067 
L 914.424823 296.143062 
L 918.591905 296.143062 
L 919.980932 289.64067 
L 921.369959 292.891866 
L 922.758986 302.645455 
L 925.537041 296.143062 
L 926.926068 286.389474 
L 928.315095 299.394258 
L 929.704122 292.891866 
L 931.093149 296.143062 
L 932.482177 286.389474 
L 933.871204 292.891866 
L 935.260231 289.64067 
L 936.649258 296.143062 
L 938.038285 289.64067 
L 939.427313 296.143062 
L 940.81634 292.891866 
L 942.205367 299.394258 
L 943.594394 292.891866 
L 944.983421 299.394258 
L 946.372448 302.645455 
L 947.761476 296.143062 
L 949.150503 292.891866 
L 950.53953 299.394258 
L 953.317584 299.394258 
L 954.706612 296.143062 
L 954.706612 296.143062 
" style="fill:none;stroke:#ff0000;stroke-linecap:square;stroke-width:1.5;"/>
   </g>
   <g id="patch_8">
    <path d="M 591.545455 315 
L 591.545455 43.2 
" style="fill:none;stroke:#000000;stroke-linecap:square;stroke-linejoin:miter;stroke-width:0.8;"/>
   </g>
   <g id="patch_9">
    <path d="M 972 315 
L 972 43.2 
" style="fill:none;stroke:#000000;stroke-linecap:square;stroke-linejoin:miter;stroke-width:0.8;"/>
   </g>
   <g id="patch_10">
    <path d="M 591.545455 315 
L 972 315 
" style="fill:none;stroke:#000000;stroke-linecap:square;stroke-linejoin:miter;stroke-width:0.8;"/>
   </g>
   <g id="patch_11">
    <path d="M 591.545455 43.2 
L 972 43.2 
" style="fill:none;stroke:#000000;stroke-linecap:square;stroke-linejoin:miter;stroke-width:0.8;"/>
   </g>
   <g id="text_27">
    <!-- loss_class_regr -->
    <defs>
     <path d="M 41.109375 46.296875 
Q 39.59375 47.171875 37.8125 47.578125 
Q 36.03125 48 33.890625 48 
Q 26.265625 48 22.1875 43.046875 
Q 18.109375 38.09375 18.109375 28.8125 
L 18.109375 0 
L 9.078125 0 
L 9.078125 54.6875 
L 18.109375 54.6875 
L 18.109375 46.1875 
Q 20.953125 51.171875 25.484375 53.578125 
Q 30.03125 56 36.53125 56 
Q 37.453125 56 38.578125 55.875 
Q 39.703125 55.765625 41.0625 55.515625 
z
" id="DejaVuSans-114"/>
     <path d="M 56.203125 29.59375 
L 56.203125 25.203125 
L 14.890625 25.203125 
Q 15.484375 15.921875 20.484375 11.0625 
Q 25.484375 6.203125 34.421875 6.203125 
Q 39.59375 6.203125 44.453125 7.46875 
Q 49.3125 8.734375 54.109375 11.28125 
L 54.109375 2.78125 
Q 49.265625 0.734375 44.1875 -0.34375 
Q 39.109375 -1.421875 33.890625 -1.421875 
Q 20.796875 -1.421875 13.15625 6.1875 
Q 5.515625 13.8125 5.515625 26.8125 
Q 5.515625 40.234375 12.765625 48.109375 
Q 20.015625 56 32.328125 56 
Q 43.359375 56 49.78125 48.890625 
Q 56.203125 41.796875 56.203125 29.59375 
z
M 47.21875 32.234375 
Q 47.125 39.59375 43.09375 43.984375 
Q 39.0625 48.390625 32.421875 48.390625 
Q 24.90625 48.390625 20.390625 44.140625 
Q 15.875 39.890625 15.1875 32.171875 
z
" id="DejaVuSans-101"/>
     <path d="M 45.40625 27.984375 
Q 45.40625 37.75 41.375 43.109375 
Q 37.359375 48.484375 30.078125 48.484375 
Q 22.859375 48.484375 18.828125 43.109375 
Q 14.796875 37.75 14.796875 27.984375 
Q 14.796875 18.265625 18.828125 12.890625 
Q 22.859375 7.515625 30.078125 7.515625 
Q 37.359375 7.515625 41.375 12.890625 
Q 45.40625 18.265625 45.40625 27.984375 
z
M 54.390625 6.78125 
Q 54.390625 -7.171875 48.1875 -13.984375 
Q 42 -20.796875 29.203125 -20.796875 
Q 24.46875 -20.796875 20.265625 -20.09375 
Q 16.0625 -19.390625 12.109375 -17.921875 
L 12.109375 -9.1875 
Q 16.0625 -11.328125 19.921875 -12.34375 
Q 23.78125 -13.375 27.78125 -13.375 
Q 36.625 -13.375 41.015625 -8.765625 
Q 45.40625 -4.15625 45.40625 5.171875 
L 45.40625 9.625 
Q 42.625 4.78125 38.28125 2.390625 
Q 33.9375 0 27.875 0 
Q 17.828125 0 11.671875 7.65625 
Q 5.515625 15.328125 5.515625 27.984375 
Q 5.515625 40.671875 11.671875 48.328125 
Q 17.828125 56 27.875 56 
Q 33.9375 56 38.28125 53.609375 
Q 42.625 51.21875 45.40625 46.390625 
L 45.40625 54.6875 
L 54.390625 54.6875 
z
" id="DejaVuSans-103"/>
    </defs>
    <g transform="translate(736.857102 37.2)scale(0.12 -0.12)">
     <use xlink:href="#DejaVuSans-108"/>
     <use x="27.783203" xlink:href="#DejaVuSans-111"/>
     <use x="88.964844" xlink:href="#DejaVuSans-115"/>
     <use x="141.064453" xlink:href="#DejaVuSans-115"/>
     <use x="193.164062" xlink:href="#DejaVuSans-95"/>
     <use x="243.164062" xlink:href="#DejaVuSans-99"/>
     <use x="298.144531" xlink:href="#DejaVuSans-108"/>
     <use x="325.927734" xlink:href="#DejaVuSans-97"/>
     <use x="387.207031" xlink:href="#DejaVuSans-115"/>
     <use x="439.306641" xlink:href="#DejaVuSans-115"/>
     <use x="491.40625" xlink:href="#DejaVuSans-95"/>
     <use x="541.40625" xlink:href="#DejaVuSans-114"/>
     <use x="582.488281" xlink:href="#DejaVuSans-101"/>
     <use x="644.011719" xlink:href="#DejaVuSans-103"/>
     <use x="707.488281" xlink:href="#DejaVuSans-114"/>
    </g>
   </g>
  </g>
 </g>
 <defs>
  <clipPath id="p2ac5997bb1">
   <rect height="271.8" width="380.454545" x="135" y="43.2"/>
  </clipPath>
  <clipPath id="pf023d4581a">
   <rect height="271.8" width="380.454545" x="591.545455" y="43.2"/>
  </clipPath>
 </defs>
</svg>
