<?xml version="1.0" encoding="utf-8" standalone="no"?>
<!DOCTYPE svg PUBLIC "-//W3C//DTD SVG 1.1//EN"
  "http://www.w3.org/Graphics/SVG/1.1/DTD/svg11.dtd">
<!-- Created with matplotlib (https://matplotlib.org/) -->
<svg height="360pt" version="1.1" viewBox="0 0 1080 360" width="1080pt" xmlns="http://www.w3.org/2000/svg" xmlns:xlink="http://www.w3.org/1999/xlink">
 <defs>
  <style type="text/css">
*{stroke-linecap:butt;stroke-linejoin:round;}
  </style>
 </defs>
 <g id="figure_1">
  <g id="patch_1">
   <path d="M 0 360 
L 1080 360 
L 1080 0 
L 0 0 
z
" style="fill:#ffffff;"/>
  </g>
  <g id="axes_1">
   <g id="patch_2">
    <path d="M 135 315 
L 515.454545 315 
L 515.454545 43.2 
L 135 43.2 
z
" style="fill:#ffffff;"/>
   </g>
   <g id="matplotlib.axis_1">
    <g id="xtick_1">
     <g id="line2d_1">
      <defs>
       <path d="M 0 0 
L 0 3.5 
" id="m4444201161" style="stroke:#000000;stroke-width:0.8;"/>
      </defs>
      <g>
       <use style="stroke:#000000;stroke-width:0.8;" x="152.293388" xlink:href="#m4444201161" y="315"/>
      </g>
     </g>
     <g id="text_1">
      <!-- 0 -->
      <defs>
       <path d="M 31.78125 66.40625 
Q 24.171875 66.40625 20.328125 58.90625 
Q 16.5 51.421875 16.5 36.375 
Q 16.5 21.390625 20.328125 13.890625 
Q 24.171875 6.390625 31.78125 6.390625 
Q 39.453125 6.390625 43.28125 13.890625 
Q 47.125 21.390625 47.125 36.375 
Q 47.125 51.421875 43.28125 58.90625 
Q 39.453125 66.40625 31.78125 66.40625 
z
M 31.78125 74.21875 
Q 44.046875 74.21875 50.515625 64.515625 
Q 56.984375 54.828125 56.984375 36.375 
Q 56.984375 17.96875 50.515625 8.265625 
Q 44.046875 -1.421875 31.78125 -1.421875 
Q 19.53125 -1.421875 13.0625 8.265625 
Q 6.59375 17.96875 6.59375 36.375 
Q 6.59375 54.828125 13.0625 64.515625 
Q 19.53125 74.21875 31.78125 74.21875 
z
" id="DejaVuSans-48"/>
      </defs>
      <g transform="translate(149.112138 329.598437)scale(0.1 -0.1)">
       <use xlink:href="#DejaVuSans-48"/>
      </g>
     </g>
    </g>
    <g id="xtick_2">
     <g id="line2d_2">
      <g>
       <use style="stroke:#000000;stroke-width:0.8;" x="221.744748" xlink:href="#m4444201161" y="315"/>
      </g>
     </g>
     <g id="text_2">
      <!-- 50 -->
      <defs>
       <path d="M 10.796875 72.90625 
L 49.515625 72.90625 
L 49.515625 64.59375 
L 19.828125 64.59375 
L 19.828125 46.734375 
Q 21.96875 47.46875 24.109375 47.828125 
Q 26.265625 48.1875 28.421875 48.1875 
Q 40.625 48.1875 47.75 41.5 
Q 54.890625 34.8125 54.890625 23.390625 
Q 54.890625 11.625 47.5625 5.09375 
Q 40.234375 -1.421875 26.90625 -1.421875 
Q 22.3125 -1.421875 17.546875 -0.640625 
Q 12.796875 0.140625 7.71875 1.703125 
L 7.71875 11.625 
Q 12.109375 9.234375 16.796875 8.0625 
Q 21.484375 6.890625 26.703125 6.890625 
Q 35.15625 6.890625 40.078125 11.328125 
Q 45.015625 15.765625 45.015625 23.390625 
Q 45.015625 31 40.078125 35.4375 
Q 35.15625 39.890625 26.703125 39.890625 
Q 22.75 39.890625 18.8125 39.015625 
Q 14.890625 38.140625 10.796875 36.28125 
z
" id="DejaVuSans-53"/>
      </defs>
      <g transform="translate(215.382248 329.598437)scale(0.1 -0.1)">
       <use xlink:href="#DejaVuSans-53"/>
       <use x="63.623047" xlink:href="#DejaVuSans-48"/>
      </g>
     </g>
    </g>
    <g id="xtick_3">
     <g id="line2d_3">
      <g>
       <use style="stroke:#000000;stroke-width:0.8;" x="291.196107" xlink:href="#m4444201161" y="315"/>
      </g>
     </g>
     <g id="text_3">
      <!-- 100 -->
      <defs>
       <path d="M 12.40625 8.296875 
L 28.515625 8.296875 
L 28.515625 63.921875 
L 10.984375 60.40625 
L 10.984375 69.390625 
L 28.421875 72.90625 
L 38.28125 72.90625 
L 38.28125 8.296875 
L 54.390625 8.296875 
L 54.390625 0 
L 12.40625 0 
z
" id="DejaVuSans-49"/>
      </defs>
      <g transform="translate(281.652357 329.598437)scale(0.1 -0.1)">
       <use xlink:href="#DejaVuSans-49"/>
       <use x="63.623047" xlink:href="#DejaVuSans-48"/>
       <use x="127.246094" xlink:href="#DejaVuSans-48"/>
      </g>
     </g>
    </g>
    <g id="xtick_4">
     <g id="line2d_4">
      <g>
       <use style="stroke:#000000;stroke-width:0.8;" x="360.647466" xlink:href="#m4444201161" y="315"/>
      </g>
     </g>
     <g id="text_4">
      <!-- 150 -->
      <g transform="translate(351.103716 329.598437)scale(0.1 -0.1)">
       <use xlink:href="#DejaVuSans-49"/>
       <use x="63.623047" xlink:href="#DejaVuSans-53"/>
       <use x="127.246094" xlink:href="#DejaVuSans-48"/>
      </g>
     </g>
    </g>
    <g id="xtick_5">
     <g id="line2d_5">
      <g>
       <use style="stroke:#000000;stroke-width:0.8;" x="430.098825" xlink:href="#m4444201161" y="315"/>
      </g>
     </g>
     <g id="text_5">
      <!-- 200 -->
      <defs>
       <path d="M 19.1875 8.296875 
L 53.609375 8.296875 
L 53.609375 0 
L 7.328125 0 
L 7.328125 8.296875 
Q 12.9375 14.109375 22.625 23.890625 
Q 32.328125 33.6875 34.8125 36.53125 
Q 39.546875 41.84375 41.421875 45.53125 
Q 43.3125 49.21875 43.3125 52.78125 
Q 43.3125 58.59375 39.234375 62.25 
Q 35.15625 65.921875 28.609375 65.921875 
Q 23.96875 65.921875 18.8125 64.3125 
Q 13.671875 62.703125 7.8125 59.421875 
L 7.8125 69.390625 
Q 13.765625 71.78125 18.9375 73 
Q 24.125 74.21875 28.421875 74.21875 
Q 39.75 74.21875 46.484375 68.546875 
Q 53.21875 62.890625 53.21875 53.421875 
Q 53.21875 48.921875 51.53125 44.890625 
Q 49.859375 40.875 45.40625 35.40625 
Q 44.1875 33.984375 37.640625 27.21875 
Q 31.109375 20.453125 19.1875 8.296875 
z
" id="DejaVuSans-50"/>
      </defs>
      <g transform="translate(420.555075 329.598437)scale(0.1 -0.1)">
       <use xlink:href="#DejaVuSans-50"/>
       <use x="63.623047" xlink:href="#DejaVuSans-48"/>
       <use x="127.246094" xlink:href="#DejaVuSans-48"/>
      </g>
     </g>
    </g>
    <g id="xtick_6">
     <g id="line2d_6">
      <g>
       <use style="stroke:#000000;stroke-width:0.8;" x="499.550184" xlink:href="#m4444201161" y="315"/>
      </g>
     </g>
     <g id="text_6">
      <!-- 250 -->
      <g transform="translate(490.006434 329.598437)scale(0.1 -0.1)">
       <use xlink:href="#DejaVuSans-50"/>
       <use x="63.623047" xlink:href="#DejaVuSans-53"/>
       <use x="127.246094" xlink:href="#DejaVuSans-48"/>
      </g>
     </g>
    </g>
   </g>
   <g id="matplotlib.axis_2">
    <g id="ytick_1">
     <g id="line2d_7">
      <defs>
       <path d="M 0 0 
L -3.5 0 
" id="mab2cec7543" style="stroke:#000000;stroke-width:0.8;"/>
      </defs>
      <g>
       <use style="stroke:#000000;stroke-width:0.8;" x="135" xlink:href="#mab2cec7543" y="307.038963"/>
      </g>
     </g>
     <g id="text_7">
      <!-- 0.0 -->
      <defs>
       <path d="M 10.6875 12.40625 
L 21 12.40625 
L 21 0 
L 10.6875 0 
z
" id="DejaVuSans-46"/>
      </defs>
      <g transform="translate(112.096875 310.838182)scale(0.1 -0.1)">
       <use xlink:href="#DejaVuSans-48"/>
       <use x="63.623047" xlink:href="#DejaVuSans-46"/>
       <use x="95.410156" xlink:href="#DejaVuSans-48"/>
      </g>
     </g>
    </g>
    <g id="ytick_2">
     <g id="line2d_8">
      <g>
       <use style="stroke:#000000;stroke-width:0.8;" x="135" xlink:href="#mab2cec7543" y="271.890896"/>
      </g>
     </g>
     <g id="text_8">
      <!-- 0.2 -->
      <g transform="translate(112.096875 275.690115)scale(0.1 -0.1)">
       <use xlink:href="#DejaVuSans-48"/>
       <use x="63.623047" xlink:href="#DejaVuSans-46"/>
       <use x="95.410156" xlink:href="#DejaVuSans-50"/>
      </g>
     </g>
    </g>
    <g id="ytick_3">
     <g id="line2d_9">
      <g>
       <use style="stroke:#000000;stroke-width:0.8;" x="135" xlink:href="#mab2cec7543" y="236.742829"/>
      </g>
     </g>
     <g id="text_9">
      <!-- 0.4 -->
      <defs>
       <path d="M 37.796875 64.3125 
L 12.890625 25.390625 
L 37.796875 25.390625 
z
M 35.203125 72.90625 
L 47.609375 72.90625 
L 47.609375 25.390625 
L 58.015625 25.390625 
L 58.015625 17.1875 
L 47.609375 17.1875 
L 47.609375 0 
L 37.796875 0 
L 37.796875 17.1875 
L 4.890625 17.1875 
L 4.890625 26.703125 
z
" id="DejaVuSans-52"/>
      </defs>
      <g transform="translate(112.096875 240.542048)scale(0.1 -0.1)">
       <use xlink:href="#DejaVuSans-48"/>
       <use x="63.623047" xlink:href="#DejaVuSans-46"/>
       <use x="95.410156" xlink:href="#DejaVuSans-52"/>
      </g>
     </g>
    </g>
    <g id="ytick_4">
     <g id="line2d_10">
      <g>
       <use style="stroke:#000000;stroke-width:0.8;" x="135" xlink:href="#mab2cec7543" y="201.594763"/>
      </g>
     </g>
     <g id="text_10">
      <!-- 0.6 -->
      <defs>
       <path d="M 33.015625 40.375 
Q 26.375 40.375 22.484375 35.828125 
Q 18.609375 31.296875 18.609375 23.390625 
Q 18.609375 15.53125 22.484375 10.953125 
Q 26.375 6.390625 33.015625 6.390625 
Q 39.65625 6.390625 43.53125 10.953125 
Q 47.40625 15.53125 47.40625 23.390625 
Q 47.40625 31.296875 43.53125 35.828125 
Q 39.65625 40.375 33.015625 40.375 
z
M 52.59375 71.296875 
L 52.59375 62.3125 
Q 48.875 64.0625 45.09375 64.984375 
Q 41.3125 65.921875 37.59375 65.921875 
Q 27.828125 65.921875 22.671875 59.328125 
Q 17.53125 52.734375 16.796875 39.40625 
Q 19.671875 43.65625 24.015625 45.921875 
Q 28.375 48.1875 33.59375 48.1875 
Q 44.578125 48.1875 50.953125 41.515625 
Q 57.328125 34.859375 57.328125 23.390625 
Q 57.328125 12.15625 50.6875 5.359375 
Q 44.046875 -1.421875 33.015625 -1.421875 
Q 20.359375 -1.421875 13.671875 8.265625 
Q 6.984375 17.96875 6.984375 36.375 
Q 6.984375 53.65625 15.1875 63.9375 
Q 23.390625 74.21875 37.203125 74.21875 
Q 40.921875 74.21875 44.703125 73.484375 
Q 48.484375 72.75 52.59375 71.296875 
z
" id="DejaVuSans-54"/>
      </defs>
      <g transform="translate(112.096875 205.393981)scale(0.1 -0.1)">
       <use xlink:href="#DejaVuSans-48"/>
       <use x="63.623047" xlink:href="#DejaVuSans-46"/>
       <use x="95.410156" xlink:href="#DejaVuSans-54"/>
      </g>
     </g>
    </g>
    <g id="ytick_5">
     <g id="line2d_11">
      <g>
       <use style="stroke:#000000;stroke-width:0.8;" x="135" xlink:href="#mab2cec7543" y="166.446696"/>
      </g>
     </g>
     <g id="text_11">
      <!-- 0.8 -->
      <defs>
       <path d="M 31.78125 34.625 
Q 24.75 34.625 20.71875 30.859375 
Q 16.703125 27.09375 16.703125 20.515625 
Q 16.703125 13.921875 20.71875 10.15625 
Q 24.75 6.390625 31.78125 6.390625 
Q 38.8125 6.390625 42.859375 10.171875 
Q 46.921875 13.96875 46.921875 20.515625 
Q 46.921875 27.09375 42.890625 30.859375 
Q 38.875 34.625 31.78125 34.625 
z
M 21.921875 38.8125 
Q 15.578125 40.375 12.03125 44.71875 
Q 8.5 49.078125 8.5 55.328125 
Q 8.5 64.0625 14.71875 69.140625 
Q 20.953125 74.21875 31.78125 74.21875 
Q 42.671875 74.21875 48.875 69.140625 
Q 55.078125 64.0625 55.078125 55.328125 
Q 55.078125 49.078125 51.53125 44.71875 
Q 48 40.375 41.703125 38.8125 
Q 48.828125 37.15625 52.796875 32.3125 
Q 56.78125 27.484375 56.78125 20.515625 
Q 56.78125 9.90625 50.3125 4.234375 
Q 43.84375 -1.421875 31.78125 -1.421875 
Q 19.734375 -1.421875 13.25 4.234375 
Q 6.78125 9.90625 6.78125 20.515625 
Q 6.78125 27.484375 10.78125 32.3125 
Q 14.796875 37.15625 21.921875 38.8125 
z
M 18.3125 54.390625 
Q 18.3125 48.734375 21.84375 45.5625 
Q 25.390625 42.390625 31.78125 42.390625 
Q 38.140625 42.390625 41.71875 45.5625 
Q 45.3125 48.734375 45.3125 54.390625 
Q 45.3125 60.0625 41.71875 63.234375 
Q 38.140625 66.40625 31.78125 66.40625 
Q 25.390625 66.40625 21.84375 63.234375 
Q 18.3125 60.0625 18.3125 54.390625 
z
" id="DejaVuSans-56"/>
      </defs>
      <g transform="translate(112.096875 170.245915)scale(0.1 -0.1)">
       <use xlink:href="#DejaVuSans-48"/>
       <use x="63.623047" xlink:href="#DejaVuSans-46"/>
       <use x="95.410156" xlink:href="#DejaVuSans-56"/>
      </g>
     </g>
    </g>
    <g id="ytick_6">
     <g id="line2d_12">
      <g>
       <use style="stroke:#000000;stroke-width:0.8;" x="135" xlink:href="#mab2cec7543" y="131.298629"/>
      </g>
     </g>
     <g id="text_12">
      <!-- 1.0 -->
      <g transform="translate(112.096875 135.097848)scale(0.1 -0.1)">
       <use xlink:href="#DejaVuSans-49"/>
       <use x="63.623047" xlink:href="#DejaVuSans-46"/>
       <use x="95.410156" xlink:href="#DejaVuSans-48"/>
      </g>
     </g>
    </g>
    <g id="ytick_7">
     <g id="line2d_13">
      <g>
       <use style="stroke:#000000;stroke-width:0.8;" x="135" xlink:href="#mab2cec7543" y="96.150563"/>
      </g>
     </g>
     <g id="text_13">
      <!-- 1.2 -->
      <g transform="translate(112.096875 99.949781)scale(0.1 -0.1)">
       <use xlink:href="#DejaVuSans-49"/>
       <use x="63.623047" xlink:href="#DejaVuSans-46"/>
       <use x="95.410156" xlink:href="#DejaVuSans-50"/>
      </g>
     </g>
    </g>
    <g id="ytick_8">
     <g id="line2d_14">
      <g>
       <use style="stroke:#000000;stroke-width:0.8;" x="135" xlink:href="#mab2cec7543" y="61.002496"/>
      </g>
     </g>
     <g id="text_14">
      <!-- 1.4 -->
      <g transform="translate(112.096875 64.801715)scale(0.1 -0.1)">
       <use xlink:href="#DejaVuSans-49"/>
       <use x="63.623047" xlink:href="#DejaVuSans-46"/>
       <use x="95.410156" xlink:href="#DejaVuSans-52"/>
      </g>
     </g>
    </g>
   </g>
   <g id="line2d_15">
    <path clip-path="url(#pbb68b9ead8)" d="M 152.293388 55.554545 
L 153.682416 114.954778 
L 155.071443 233.755244 
L 156.46047 259.237592 
L 157.849497 275.757183 
L 159.238524 257.655929 
L 160.627552 263.806841 
L 162.016579 248.341691 
L 163.405606 264.334062 
L 164.794633 268.024609 
L 166.18366 279.799211 
L 167.572687 267.673128 
L 168.961715 258.35889 
L 170.350742 275.229962 
L 171.739769 259.237592 
L 173.128796 271.012194 
L 174.517823 263.6311 
L 175.906851 261.697957 
L 177.295878 273.296819 
L 178.684905 266.267205 
L 180.073932 284.19272 
L 181.462959 275.757183 
L 182.851986 291.222333 
L 184.241014 284.19272 
L 185.630041 290.519372 
L 187.019068 285.774383 
L 188.408095 288.761968 
L 189.797122 285.422902 
L 191.18615 280.150692 
L 192.575177 274.17552 
L 193.964204 286.125863 
L 195.353231 289.289189 
L 196.742258 287.883267 
L 198.131285 287.707526 
L 199.520313 285.774383 
L 200.90934 287.356046 
L 202.298367 281.205134 
L 203.687394 286.477344 
L 205.076421 287.883267 
L 206.465449 288.761968 
L 207.854476 278.217548 
L 209.243503 289.46493 
L 210.63253 282.611057 
L 212.021557 280.502173 
L 213.410584 289.289189 
L 214.799612 290.695112 
L 216.188639 277.163106 
L 217.577666 297.548985 
L 218.966693 284.895681 
L 220.35572 291.222333 
L 221.744748 287.356046 
L 223.133775 285.598642 
L 224.522802 271.715156 
L 225.911829 286.828825 
L 227.300856 284.016979 
L 228.689884 293.682698 
L 230.078911 286.477344 
L 231.467938 281.908095 
L 232.856965 293.682698 
L 234.245992 289.289189 
L 235.635019 289.46493 
L 237.024047 290.519372 
L 238.413074 288.937709 
L 239.802101 281.029394 
L 241.191128 285.247162 
L 242.580155 287.883267 
L 243.969183 288.937709 
L 245.35821 285.071421 
L 246.747237 287.004565 
L 248.136264 277.163106 
L 249.525291 297.373245 
L 250.914318 289.113449 
L 252.303346 296.143062 
L 253.692373 294.73714 
L 255.0814 290.695112 
L 256.470427 293.858438 
L 257.859454 293.858438 
L 259.248482 295.615841 
L 262.026536 291.925294 
L 263.415563 292.628256 
L 264.80459 287.004565 
L 266.193617 294.034178 
L 267.582645 294.385659 
L 268.971672 287.180305 
L 270.360699 289.992151 
L 271.749726 296.670283 
L 273.138753 293.506957 
L 274.527781 294.385659 
L 275.916808 290.870852 
L 277.305835 285.950123 
L 278.694862 282.786797 
L 280.083889 295.615841 
L 281.472916 295.264361 
L 282.861944 290.519372 
L 284.250971 293.506957 
L 285.639998 292.101035 
L 287.029025 291.925294 
L 288.418052 292.979736 
L 289.80708 290.343631 
L 291.196107 295.264361 
L 292.585134 294.91288 
L 293.974161 284.719941 
L 295.363188 285.422902 
L 296.752215 288.059007 
L 298.141243 294.561399 
L 299.53027 293.155477 
L 300.919297 284.36846 
L 302.308324 292.803996 
L 303.697351 291.046593 
L 305.086379 294.73714 
L 306.475406 291.222333 
L 307.864433 297.900466 
L 309.25346 291.046593 
L 310.642487 290.167891 
L 312.031514 293.682698 
L 313.420542 294.73714 
L 314.809569 296.318803 
L 316.198596 286.125863 
L 317.587623 295.264361 
L 318.97665 298.779167 
L 320.365678 293.331217 
L 321.754705 290.167891 
L 323.143732 288.410488 
L 324.532759 294.91288 
L 325.921786 289.992151 
L 327.310814 292.803996 
L 328.699841 295.08862 
L 330.088868 289.113449 
L 331.477895 287.004565 
L 332.866922 294.034178 
L 334.255949 288.761968 
L 335.644977 289.46493 
L 337.034004 288.410488 
L 338.423031 292.452515 
L 339.812058 287.180305 
L 341.201085 292.803996 
L 342.590113 297.197504 
L 343.97914 296.318803 
L 345.368167 296.143062 
L 346.757194 292.276775 
L 348.146221 290.167891 
L 349.535248 289.81641 
L 350.924276 287.356046 
L 352.313303 292.803996 
L 353.70233 288.410488 
L 355.091357 286.828825 
L 356.480384 290.695112 
L 357.869412 292.101035 
L 359.258439 294.034178 
L 360.647466 292.452515 
L 362.036493 291.398073 
L 363.42552 290.870852 
L 364.814547 294.034178 
L 366.203575 295.967322 
L 367.592602 290.343631 
L 368.981629 287.180305 
L 370.370656 293.682698 
L 371.759683 292.452515 
L 373.148711 293.155477 
L 374.537738 293.331217 
L 375.926765 294.209919 
L 377.315792 290.695112 
L 378.704819 284.5442 
L 380.093846 291.749554 
L 381.482874 293.155477 
L 382.871901 288.761968 
L 384.260928 294.209919 
L 385.649955 281.029394 
L 387.038982 295.791582 
L 388.42801 290.343631 
L 389.817037 296.318803 
L 391.206064 293.858438 
L 392.595091 292.979736 
L 393.984118 294.561399 
L 395.373145 292.979736 
L 396.762173 298.779167 
L 398.1512 290.343631 
L 399.540227 294.209919 
L 400.929254 296.143062 
L 403.707309 287.707526 
L 405.096336 295.264361 
L 406.485363 292.979736 
L 407.87439 286.653084 
L 409.263417 289.289189 
L 410.652444 295.08862 
L 412.041472 291.573814 
L 413.430499 285.950123 
L 414.819526 291.749554 
L 416.208553 292.628256 
L 417.59758 293.155477 
L 418.986608 293.506957 
L 420.375635 290.167891 
L 421.764662 294.034178 
L 423.153689 296.318803 
L 424.542716 294.91288 
L 425.931744 293.858438 
L 427.320771 290.695112 
L 428.709798 297.548985 
L 430.098825 291.398073 
L 431.487852 297.724725 
L 432.876879 293.155477 
L 434.265907 285.071421 
L 435.654934 295.440101 
L 437.043961 294.73714 
L 438.432988 293.858438 
L 439.822015 299.833609 
L 441.211043 295.967322 
L 442.60007 296.143062 
L 443.989097 293.858438 
L 445.378124 288.586228 
L 446.767151 300.536571 
L 448.156178 289.46493 
L 449.545206 297.724725 
L 450.934233 291.749554 
L 452.32326 292.101035 
L 453.712287 288.059007 
L 455.101314 289.992151 
L 456.490342 296.143062 
L 457.879369 294.561399 
L 459.268396 294.73714 
L 460.657423 302.118234 
L 462.04645 296.143062 
L 463.435477 297.724725 
L 464.824505 297.373245 
L 466.213532 296.670283 
L 467.602559 294.561399 
L 468.991586 293.155477 
L 470.380613 297.021764 
L 471.769641 298.076206 
L 473.158668 295.967322 
L 474.547695 298.427687 
L 475.936722 300.00935 
L 477.325749 298.954908 
L 478.714776 291.925294 
L 480.103804 301.766753 
L 481.492831 298.427687 
L 482.881858 294.73714 
L 484.270885 302.645455 
L 485.659912 299.833609 
L 487.04894 291.925294 
L 488.437967 299.306388 
L 489.826994 301.063792 
L 491.216021 295.967322 
L 492.605048 296.846024 
L 495.383103 297.548985 
L 496.77213 295.791582 
L 498.161157 296.846024 
L 498.161157 296.846024 
" style="fill:none;stroke:#ff0000;stroke-linecap:square;stroke-width:1.5;"/>
   </g>
   <g id="patch_3">
    <path d="M 135 315 
L 135 43.2 
" style="fill:none;stroke:#000000;stroke-linecap:square;stroke-linejoin:miter;stroke-width:0.8;"/>
   </g>
   <g id="patch_4">
    <path d="M 515.454545 315 
L 515.454545 43.2 
" style="fill:none;stroke:#000000;stroke-linecap:square;stroke-linejoin:miter;stroke-width:0.8;"/>
   </g>
   <g id="patch_5">
    <path d="M 135 315 
L 515.454545 315 
" style="fill:none;stroke:#000000;stroke-linecap:square;stroke-linejoin:miter;stroke-width:0.8;"/>
   </g>
   <g id="patch_6">
    <path d="M 135 43.2 
L 515.454545 43.2 
" style="fill:none;stroke:#000000;stroke-linecap:square;stroke-linejoin:miter;stroke-width:0.8;"/>
   </g>
   <g id="text_15">
    <!-- loss_rpn_cls -->
    <defs>
     <path d="M 9.421875 75.984375 
L 18.40625 75.984375 
L 18.40625 0 
L 9.421875 0 
z
" id="DejaVuSans-108"/>
     <path d="M 30.609375 48.390625 
Q 23.390625 48.390625 19.1875 42.75 
Q 14.984375 37.109375 14.984375 27.296875 
Q 14.984375 17.484375 19.15625 11.84375 
Q 23.34375 6.203125 30.609375 6.203125 
Q 37.796875 6.203125 41.984375 11.859375 
Q 46.1875 17.53125 46.1875 27.296875 
Q 46.1875 37.015625 41.984375 42.703125 
Q 37.796875 48.390625 30.609375 48.390625 
z
M 30.609375 56 
Q 42.328125 56 49.015625 48.375 
Q 55.71875 40.765625 55.71875 27.296875 
Q 55.71875 13.875 49.015625 6.21875 
Q 42.328125 -1.421875 30.609375 -1.421875 
Q 18.84375 -1.421875 12.171875 6.21875 
Q 5.515625 13.875 5.515625 27.296875 
Q 5.515625 40.765625 12.171875 48.375 
Q 18.84375 56 30.609375 56 
z
" id="DejaVuSans-111"/>
     <path d="M 44.28125 53.078125 
L 44.28125 44.578125 
Q 40.484375 46.53125 36.375 47.5 
Q 32.28125 48.484375 27.875 48.484375 
Q 21.1875 48.484375 17.84375 46.4375 
Q 14.5 44.390625 14.5 40.28125 
Q 14.5 37.15625 16.890625 35.375 
Q 19.28125 33.59375 26.515625 31.984375 
L 29.59375 31.296875 
Q 39.15625 29.25 43.1875 25.515625 
Q 47.21875 21.78125 47.21875 15.09375 
Q 47.21875 7.46875 41.1875 3.015625 
Q 35.15625 -1.421875 24.609375 -1.421875 
Q 20.21875 -1.421875 15.453125 -0.5625 
Q 10.6875 0.296875 5.421875 2 
L 5.421875 11.28125 
Q 10.40625 8.6875 15.234375 7.390625 
Q 20.0625 6.109375 24.8125 6.109375 
Q 31.15625 6.109375 34.5625 8.28125 
Q 37.984375 10.453125 37.984375 14.40625 
Q 37.984375 18.0625 35.515625 20.015625 
Q 33.0625 21.96875 24.703125 23.78125 
L 21.578125 24.515625 
Q 13.234375 26.265625 9.515625 29.90625 
Q 5.8125 33.546875 5.8125 39.890625 
Q 5.8125 47.609375 11.28125 51.796875 
Q 16.75 56 26.8125 56 
Q 31.78125 56 36.171875 55.265625 
Q 40.578125 54.546875 44.28125 53.078125 
z
" id="DejaVuSans-115"/>
     <path d="M 50.984375 -16.609375 
L 50.984375 -23.578125 
L -0.984375 -23.578125 
L -0.984375 -16.609375 
z
" id="DejaVuSans-95"/>
     <path d="M 41.109375 46.296875 
Q 39.59375 47.171875 37.8125 47.578125 
Q 36.03125 48 33.890625 48 
Q 26.265625 48 22.1875 43.046875 
Q 18.109375 38.09375 18.109375 28.8125 
L 18.109375 0 
L 9.078125 0 
L 9.078125 54.6875 
L 18.109375 54.6875 
L 18.109375 46.1875 
Q 20.953125 51.171875 25.484375 53.578125 
Q 30.03125 56 36.53125 56 
Q 37.453125 56 38.578125 55.875 
Q 39.703125 55.765625 41.0625 55.515625 
z
" id="DejaVuSans-114"/>
     <path d="M 18.109375 8.203125 
L 18.109375 -20.796875 
L 9.078125 -20.796875 
L 9.078125 54.6875 
L 18.109375 54.6875 
L 18.109375 46.390625 
Q 20.953125 51.265625 25.265625 53.625 
Q 29.59375 56 35.59375 56 
Q 45.5625 56 51.78125 48.09375 
Q 58.015625 40.1875 58.015625 27.296875 
Q 58.015625 14.40625 51.78125 6.484375 
Q 45.5625 -1.421875 35.59375 -1.421875 
Q 29.59375 -1.421875 25.265625 0.953125 
Q 20.953125 3.328125 18.109375 8.203125 
z
M 48.6875 27.296875 
Q 48.6875 37.203125 44.609375 42.84375 
Q 40.53125 48.484375 33.40625 48.484375 
Q 26.265625 48.484375 22.1875 42.84375 
Q 18.109375 37.203125 18.109375 27.296875 
Q 18.109375 17.390625 22.1875 11.75 
Q 26.265625 6.109375 33.40625 6.109375 
Q 40.53125 6.109375 44.609375 11.75 
Q 48.6875 17.390625 48.6875 27.296875 
z
" id="DejaVuSans-112"/>
     <path d="M 54.890625 33.015625 
L 54.890625 0 
L 45.90625 0 
L 45.90625 32.71875 
Q 45.90625 40.484375 42.875 44.328125 
Q 39.84375 48.1875 33.796875 48.1875 
Q 26.515625 48.1875 22.3125 43.546875 
Q 18.109375 38.921875 18.109375 30.90625 
L 18.109375 0 
L 9.078125 0 
L 9.078125 54.6875 
L 18.109375 54.6875 
L 18.109375 46.1875 
Q 21.34375 51.125 25.703125 53.5625 
Q 30.078125 56 35.796875 56 
Q 45.21875 56 50.046875 50.171875 
Q 54.890625 44.34375 54.890625 33.015625 
z
" id="DejaVuSans-110"/>
     <path d="M 48.78125 52.59375 
L 48.78125 44.1875 
Q 44.96875 46.296875 41.140625 47.34375 
Q 37.3125 48.390625 33.40625 48.390625 
Q 24.65625 48.390625 19.8125 42.84375 
Q 14.984375 37.3125 14.984375 27.296875 
Q 14.984375 17.28125 19.8125 11.734375 
Q 24.65625 6.203125 33.40625 6.203125 
Q 37.3125 6.203125 41.140625 7.25 
Q 44.96875 8.296875 48.78125 10.40625 
L 48.78125 2.09375 
Q 45.015625 0.34375 40.984375 -0.53125 
Q 36.96875 -1.421875 32.421875 -1.421875 
Q 20.0625 -1.421875 12.78125 6.34375 
Q 5.515625 14.109375 5.515625 27.296875 
Q 5.515625 40.671875 12.859375 48.328125 
Q 20.21875 56 33.015625 56 
Q 37.15625 56 41.109375 55.140625 
Q 45.0625 54.296875 48.78125 52.59375 
z
" id="DejaVuSans-99"/>
    </defs>
    <g transform="translate(289.46821 37.2)scale(0.12 -0.12)">
     <use xlink:href="#DejaVuSans-108"/>
     <use x="27.783203" xlink:href="#DejaVuSans-111"/>
     <use x="88.964844" xlink:href="#DejaVuSans-115"/>
     <use x="141.064453" xlink:href="#DejaVuSans-115"/>
     <use x="193.164062" xlink:href="#DejaVuSans-95"/>
     <use x="243.164062" xlink:href="#DejaVuSans-114"/>
     <use x="284.277344" xlink:href="#DejaVuSans-112"/>
     <use x="347.753906" xlink:href="#DejaVuSans-110"/>
     <use x="411.132812" xlink:href="#DejaVuSans-95"/>
     <use x="461.132812" xlink:href="#DejaVuSans-99"/>
     <use x="516.113281" xlink:href="#DejaVuSans-108"/>
     <use x="543.896484" xlink:href="#DejaVuSans-115"/>
    </g>
   </g>
  </g>
  <g id="axes_2">
   <g id="patch_7">
    <path d="M 591.545455 315 
L 972 315 
L 972 43.2 
L 591.545455 43.2 
z
" style="fill:#ffffff;"/>
   </g>
   <g id="matplotlib.axis_3">
    <g id="xtick_7">
     <g id="line2d_16">
      <g>
       <use style="stroke:#000000;stroke-width:0.8;" x="608.838843" xlink:href="#m4444201161" y="315"/>
      </g>
     </g>
     <g id="text_16">
      <!-- 0 -->
      <g transform="translate(605.657593 329.598437)scale(0.1 -0.1)">
       <use xlink:href="#DejaVuSans-48"/>
      </g>
     </g>
    </g>
    <g id="xtick_8">
     <g id="line2d_17">
      <g>
       <use style="stroke:#000000;stroke-width:0.8;" x="678.290202" xlink:href="#m4444201161" y="315"/>
      </g>
     </g>
     <g id="text_17">
      <!-- 50 -->
      <g transform="translate(671.927702 329.598437)scale(0.1 -0.1)">
       <use xlink:href="#DejaVuSans-53"/>
       <use x="63.623047" xlink:href="#DejaVuSans-48"/>
      </g>
     </g>
    </g>
    <g id="xtick_9">
     <g id="line2d_18">
      <g>
       <use style="stroke:#000000;stroke-width:0.8;" x="747.741561" xlink:href="#m4444201161" y="315"/>
      </g>
     </g>
     <g id="text_18">
      <!-- 100 -->
      <g transform="translate(738.197811 329.598437)scale(0.1 -0.1)">
       <use xlink:href="#DejaVuSans-49"/>
       <use x="63.623047" xlink:href="#DejaVuSans-48"/>
       <use x="127.246094" xlink:href="#DejaVuSans-48"/>
      </g>
     </g>
    </g>
    <g id="xtick_10">
     <g id="line2d_19">
      <g>
       <use style="stroke:#000000;stroke-width:0.8;" x="817.19292" xlink:href="#m4444201161" y="315"/>
      </g>
     </g>
     <g id="text_19">
      <!-- 150 -->
      <g transform="translate(807.64917 329.598437)scale(0.1 -0.1)">
       <use xlink:href="#DejaVuSans-49"/>
       <use x="63.623047" xlink:href="#DejaVuSans-53"/>
       <use x="127.246094" xlink:href="#DejaVuSans-48"/>
      </g>
     </g>
    </g>
    <g id="xtick_11">
     <g id="line2d_20">
      <g>
       <use style="stroke:#000000;stroke-width:0.8;" x="886.64428" xlink:href="#m4444201161" y="315"/>
      </g>
     </g>
     <g id="text_20">
      <!-- 200 -->
      <g transform="translate(877.10053 329.598437)scale(0.1 -0.1)">
       <use xlink:href="#DejaVuSans-50"/>
       <use x="63.623047" xlink:href="#DejaVuSans-48"/>
       <use x="127.246094" xlink:href="#DejaVuSans-48"/>
      </g>
     </g>
    </g>
    <g id="xtick_12">
     <g id="line2d_21">
      <g>
       <use style="stroke:#000000;stroke-width:0.8;" x="956.095639" xlink:href="#m4444201161" y="315"/>
      </g>
     </g>
     <g id="text_21">
      <!-- 250 -->
      <g transform="translate(946.551889 329.598437)scale(0.1 -0.1)">
       <use xlink:href="#DejaVuSans-50"/>
       <use x="63.623047" xlink:href="#DejaVuSans-53"/>
       <use x="127.246094" xlink:href="#DejaVuSans-48"/>
      </g>
     </g>
    </g>
   </g>
   <g id="matplotlib.axis_4">
    <g id="ytick_9">
     <g id="line2d_22">
      <g>
       <use style="stroke:#000000;stroke-width:0.8;" x="591.545455" xlink:href="#mab2cec7543" y="305.610545"/>
      </g>
     </g>
     <g id="text_22">
      <!-- 0.00 -->
      <g transform="translate(562.27983 309.409764)scale(0.1 -0.1)">
       <use xlink:href="#DejaVuSans-48"/>
       <use x="63.623047" xlink:href="#DejaVuSans-46"/>
       <use x="95.410156" xlink:href="#DejaVuSans-48"/>
       <use x="159.033203" xlink:href="#DejaVuSans-48"/>
      </g>
     </g>
    </g>
    <g id="ytick_10">
     <g id="line2d_23">
      <g>
       <use style="stroke:#000000;stroke-width:0.8;" x="591.545455" xlink:href="#mab2cec7543" y="256.192364"/>
      </g>
     </g>
     <g id="text_23">
      <!-- 0.05 -->
      <g transform="translate(562.27983 259.991582)scale(0.1 -0.1)">
       <use xlink:href="#DejaVuSans-48"/>
       <use x="63.623047" xlink:href="#DejaVuSans-46"/>
       <use x="95.410156" xlink:href="#DejaVuSans-48"/>
       <use x="159.033203" xlink:href="#DejaVuSans-53"/>
      </g>
     </g>
    </g>
    <g id="ytick_11">
     <g id="line2d_24">
      <g>
       <use style="stroke:#000000;stroke-width:0.8;" x="591.545455" xlink:href="#mab2cec7543" y="206.774182"/>
      </g>
     </g>
     <g id="text_24">
      <!-- 0.10 -->
      <g transform="translate(562.27983 210.573401)scale(0.1 -0.1)">
       <use xlink:href="#DejaVuSans-48"/>
       <use x="63.623047" xlink:href="#DejaVuSans-46"/>
       <use x="95.410156" xlink:href="#DejaVuSans-49"/>
       <use x="159.033203" xlink:href="#DejaVuSans-48"/>
      </g>
     </g>
    </g>
    <g id="ytick_12">
     <g id="line2d_25">
      <g>
       <use style="stroke:#000000;stroke-width:0.8;" x="591.545455" xlink:href="#mab2cec7543" y="157.356"/>
      </g>
     </g>
     <g id="text_25">
      <!-- 0.15 -->
      <g transform="translate(562.27983 161.155219)scale(0.1 -0.1)">
       <use xlink:href="#DejaVuSans-48"/>
       <use x="63.623047" xlink:href="#DejaVuSans-46"/>
       <use x="95.410156" xlink:href="#DejaVuSans-49"/>
       <use x="159.033203" xlink:href="#DejaVuSans-53"/>
      </g>
     </g>
    </g>
    <g id="ytick_13">
     <g id="line2d_26">
      <g>
       <use style="stroke:#000000;stroke-width:0.8;" x="591.545455" xlink:href="#mab2cec7543" y="107.937818"/>
      </g>
     </g>
     <g id="text_26">
      <!-- 0.20 -->
      <g transform="translate(562.27983 111.737037)scale(0.1 -0.1)">
       <use xlink:href="#DejaVuSans-48"/>
       <use x="63.623047" xlink:href="#DejaVuSans-46"/>
       <use x="95.410156" xlink:href="#DejaVuSans-50"/>
       <use x="159.033203" xlink:href="#DejaVuSans-48"/>
      </g>
     </g>
    </g>
    <g id="ytick_14">
     <g id="line2d_27">
      <g>
       <use style="stroke:#000000;stroke-width:0.8;" x="591.545455" xlink:href="#mab2cec7543" y="58.519636"/>
      </g>
     </g>
     <g id="text_27">
      <!-- 0.25 -->
      <g transform="translate(562.27983 62.318855)scale(0.1 -0.1)">
       <use xlink:href="#DejaVuSans-48"/>
       <use x="63.623047" xlink:href="#DejaVuSans-46"/>
       <use x="95.410156" xlink:href="#DejaVuSans-50"/>
       <use x="159.033203" xlink:href="#DejaVuSans-53"/>
      </g>
     </g>
    </g>
   </g>
   <g id="line2d_28">
    <path clip-path="url(#p45c13e5f5b)" d="M 608.838843 55.554545 
L 610.22787 148.460727 
L 611.616897 148.460727 
L 613.005925 158.344364 
L 614.394952 166.251273 
L 615.783979 161.309455 
L 617.173006 177.123273 
L 618.562033 174.158182 
L 619.95106 177.123273 
L 621.340088 182.065091 
L 622.729115 185.030182 
L 624.118142 190.960364 
L 625.507169 191.948727 
L 626.896196 198.867273 
L 629.674251 208.750909 
L 631.063278 215.669455 
L 632.452305 218.634545 
L 633.841332 222.588 
L 635.230359 221.599636 
L 636.619387 221.599636 
L 638.008414 226.541455 
L 639.397441 228.518182 
L 640.786468 237.413455 
L 642.175495 242.355273 
L 643.564523 239.390182 
L 644.95355 245.320364 
L 646.342577 235.436727 
L 647.731604 246.308727 
L 649.120631 243.343636 
L 651.898686 247.297091 
L 653.287713 242.355273 
L 654.67674 253.227273 
L 656.065767 262.122545 
L 657.454794 258.169091 
L 658.843822 249.273818 
L 660.232849 262.122545 
L 661.621876 259.157455 
L 663.010903 265.087636 
L 664.39993 267.064364 
L 665.788957 273.982909 
L 667.177985 265.087636 
L 668.567012 263.110909 
L 669.956039 272.994545 
L 671.345066 272.006182 
L 672.734093 272.006182 
L 674.123121 282.878182 
L 675.512148 269.041091 
L 676.901175 274.971273 
L 678.290202 269.041091 
L 679.679229 278.924727 
L 681.068256 271.017818 
L 682.457284 278.924727 
L 683.846311 275.959636 
L 685.235338 281.889818 
L 688.013392 279.913091 
L 690.791447 289.796727 
L 692.180474 279.913091 
L 693.569501 286.831636 
L 694.958528 286.831636 
L 696.347556 274.971273 
L 697.736583 281.889818 
L 699.12561 286.831636 
L 700.514637 281.889818 
L 701.903664 279.913091 
L 703.292691 291.773455 
L 704.681719 288.808364 
L 706.070746 290.785091 
L 707.459773 282.878182 
L 708.8488 293.750182 
L 710.237827 283.866545 
L 711.626855 296.715273 
L 713.015882 293.750182 
L 714.404909 284.854909 
L 715.793936 285.843273 
L 717.182963 288.808364 
L 718.57199 294.738545 
L 719.961018 281.889818 
L 721.350045 294.738545 
L 722.739072 295.726909 
L 724.128099 283.866545 
L 725.517126 295.726909 
L 726.906154 293.750182 
L 728.295181 294.738545 
L 729.684208 289.796727 
L 731.073235 297.703636 
L 732.462262 287.82 
L 733.851289 290.785091 
L 735.240317 289.796727 
L 738.018371 297.703636 
L 739.407398 288.808364 
L 740.796425 287.82 
L 742.185453 294.738545 
L 743.57448 286.831636 
L 744.963507 295.726909 
L 746.352534 292.761818 
L 747.741561 299.680364 
L 749.130588 288.808364 
L 751.908643 292.761818 
L 753.29767 289.796727 
L 754.686697 296.715273 
L 756.075724 297.703636 
L 757.464752 295.726909 
L 758.853779 292.761818 
L 763.02086 292.761818 
L 764.409887 295.726909 
L 765.798915 293.750182 
L 767.187942 295.726909 
L 768.576969 295.726909 
L 769.965996 294.738545 
L 771.355023 299.680364 
L 772.744051 294.738545 
L 774.133078 297.703636 
L 775.522105 294.738545 
L 776.911132 272.006182 
L 778.300159 286.831636 
L 779.689186 294.738545 
L 781.078214 294.738545 
L 782.467241 293.750182 
L 785.245295 297.703636 
L 786.634322 297.703636 
L 788.02335 293.750182 
L 789.412377 300.668727 
L 790.801404 291.773455 
L 792.190431 299.680364 
L 793.579458 295.726909 
L 796.357513 297.703636 
L 797.74654 299.680364 
L 799.135567 295.726909 
L 800.524594 298.692 
L 801.913621 296.715273 
L 803.302649 296.715273 
L 804.691676 294.738545 
L 806.080703 293.750182 
L 807.46973 293.750182 
L 808.858757 289.796727 
L 810.247785 296.715273 
L 811.636812 296.715273 
L 813.025839 298.692 
L 814.414866 299.680364 
L 815.803893 295.726909 
L 817.19292 295.726909 
L 818.581948 297.703636 
L 819.970975 293.750182 
L 821.360002 300.668727 
L 822.749029 297.703636 
L 824.138056 297.703636 
L 825.527084 296.715273 
L 826.916111 298.692 
L 828.305138 294.738545 
L 829.694165 291.773455 
L 831.083192 297.703636 
L 832.472219 296.715273 
L 833.861247 296.715273 
L 835.250274 299.680364 
L 836.639301 294.738545 
L 838.028328 298.692 
L 839.417355 295.726909 
L 840.806383 296.715273 
L 842.19541 294.738545 
L 843.584437 295.726909 
L 846.362491 301.657091 
L 847.751518 294.738545 
L 849.140546 291.773455 
L 850.529573 294.738545 
L 851.9186 296.715273 
L 853.307627 301.657091 
L 854.696654 298.692 
L 856.085682 298.692 
L 857.474709 290.785091 
L 858.863736 294.738545 
L 860.252763 295.726909 
L 861.64179 299.680364 
L 863.030817 299.680364 
L 864.419845 297.703636 
L 865.808872 293.750182 
L 867.197899 299.680364 
L 868.586926 297.703636 
L 869.975953 294.738545 
L 871.364981 297.703636 
L 872.754008 299.680364 
L 874.143035 298.692 
L 875.532062 298.692 
L 876.921089 296.715273 
L 879.699144 300.668727 
L 881.088171 298.692 
L 882.477198 298.692 
L 883.866225 299.680364 
L 885.255252 299.680364 
L 886.64428 296.715273 
L 888.033307 301.657091 
L 889.422334 296.715273 
L 890.811361 293.750182 
L 892.200388 300.668727 
L 893.589416 297.703636 
L 894.978443 300.668727 
L 896.36747 298.692 
L 897.756497 302.645455 
L 899.145524 298.692 
L 900.534551 296.715273 
L 901.923579 289.796727 
L 903.312606 300.668727 
L 904.701633 298.692 
L 906.09066 301.657091 
L 907.479687 297.703636 
L 908.868715 297.703636 
L 910.257742 292.761818 
L 911.646769 298.692 
L 913.035796 299.680364 
L 914.424823 297.703636 
L 915.81385 297.703636 
L 917.202878 301.657091 
L 921.369959 298.692 
L 922.758986 301.657091 
L 924.148014 301.657091 
L 925.537041 297.703636 
L 926.926068 291.773455 
L 928.315095 297.703636 
L 929.704122 299.680364 
L 931.093149 299.680364 
L 932.482177 301.657091 
L 933.871204 297.703636 
L 935.260231 295.726909 
L 936.649258 299.680364 
L 940.81634 299.680364 
L 943.594394 297.703636 
L 944.983421 301.657091 
L 946.372448 301.657091 
L 947.761476 296.715273 
L 949.150503 292.761818 
L 950.53953 300.668727 
L 951.928557 300.668727 
L 953.317584 296.715273 
L 954.706612 299.680364 
L 954.706612 299.680364 
" style="fill:none;stroke:#ff0000;stroke-linecap:square;stroke-width:1.5;"/>
   </g>
   <g id="patch_8">
    <path d="M 591.545455 315 
L 591.545455 43.2 
" style="fill:none;stroke:#000000;stroke-linecap:square;stroke-linejoin:miter;stroke-width:0.8;"/>
   </g>
   <g id="patch_9">
    <path d="M 972 315 
L 972 43.2 
" style="fill:none;stroke:#000000;stroke-linecap:square;stroke-linejoin:miter;stroke-width:0.8;"/>
   </g>
   <g id="patch_10">
    <path d="M 591.545455 315 
L 972 315 
" style="fill:none;stroke:#000000;stroke-linecap:square;stroke-linejoin:miter;stroke-width:0.8;"/>
   </g>
   <g id="patch_11">
    <path d="M 591.545455 43.2 
L 972 43.2 
" style="fill:none;stroke:#000000;stroke-linecap:square;stroke-linejoin:miter;stroke-width:0.8;"/>
   </g>
   <g id="text_28">
    <!-- loss_rpn_regr -->
    <defs>
     <path d="M 56.203125 29.59375 
L 56.203125 25.203125 
L 14.890625 25.203125 
Q 15.484375 15.921875 20.484375 11.0625 
Q 25.484375 6.203125 34.421875 6.203125 
Q 39.59375 6.203125 44.453125 7.46875 
Q 49.3125 8.734375 54.109375 11.28125 
L 54.109375 2.78125 
Q 49.265625 0.734375 44.1875 -0.34375 
Q 39.109375 -1.421875 33.890625 -1.421875 
Q 20.796875 -1.421875 13.15625 6.1875 
Q 5.515625 13.8125 5.515625 26.8125 
Q 5.515625 40.234375 12.765625 48.109375 
Q 20.015625 56 32.328125 56 
Q 43.359375 56 49.78125 48.890625 
Q 56.203125 41.796875 56.203125 29.59375 
z
M 47.21875 32.234375 
Q 47.125 39.59375 43.09375 43.984375 
Q 39.0625 48.390625 32.421875 48.390625 
Q 24.90625 48.390625 20.390625 44.140625 
Q 15.875 39.890625 15.1875 32.171875 
z
" id="DejaVuSans-101"/>
     <path d="M 45.40625 27.984375 
Q 45.40625 37.75 41.375 43.109375 
Q 37.359375 48.484375 30.078125 48.484375 
Q 22.859375 48.484375 18.828125 43.109375 
Q 14.796875 37.75 14.796875 27.984375 
Q 14.796875 18.265625 18.828125 12.890625 
Q 22.859375 7.515625 30.078125 7.515625 
Q 37.359375 7.515625 41.375 12.890625 
Q 45.40625 18.265625 45.40625 27.984375 
z
M 54.390625 6.78125 
Q 54.390625 -7.171875 48.1875 -13.984375 
Q 42 -20.796875 29.203125 -20.796875 
Q 24.46875 -20.796875 20.265625 -20.09375 
Q 16.0625 -19.390625 12.109375 -17.921875 
L 12.109375 -9.1875 
Q 16.0625 -11.328125 19.921875 -12.34375 
Q 23.78125 -13.375 27.78125 -13.375 
Q 36.625 -13.375 41.015625 -8.765625 
Q 45.40625 -4.15625 45.40625 5.171875 
L 45.40625 9.625 
Q 42.625 4.78125 38.28125 2.390625 
Q 33.9375 0 27.875 0 
Q 17.828125 0 11.671875 7.65625 
Q 5.515625 15.328125 5.515625 27.984375 
Q 5.515625 40.671875 11.671875 48.328125 
Q 17.828125 56 27.875 56 
Q 33.9375 56 38.28125 53.609375 
Q 42.625 51.21875 45.40625 46.390625 
L 45.40625 54.6875 
L 54.390625 54.6875 
z
" id="DejaVuSans-103"/>
    </defs>
    <g transform="translate(741.67304 37.2)scale(0.12 -0.12)">
     <use xlink:href="#DejaVuSans-108"/>
     <use x="27.783203" xlink:href="#DejaVuSans-111"/>
     <use x="88.964844" xlink:href="#DejaVuSans-115"/>
     <use x="141.064453" xlink:href="#DejaVuSans-115"/>
     <use x="193.164062" xlink:href="#DejaVuSans-95"/>
     <use x="243.164062" xlink:href="#DejaVuSans-114"/>
     <use x="284.277344" xlink:href="#DejaVuSans-112"/>
     <use x="347.753906" xlink:href="#DejaVuSans-110"/>
     <use x="411.132812" xlink:href="#DejaVuSans-95"/>
     <use x="461.132812" xlink:href="#DejaVuSans-114"/>
     <use x="502.214844" xlink:href="#DejaVuSans-101"/>
     <use x="563.738281" xlink:href="#DejaVuSans-103"/>
     <use x="627.214844" xlink:href="#DejaVuSans-114"/>
    </g>
   </g>
  </g>
 </g>
 <defs>
  <clipPath id="pbb68b9ead8">
   <rect height="271.8" width="380.454545" x="135" y="43.2"/>
  </clipPath>
  <clipPath id="p45c13e5f5b">
   <rect height="271.8" width="380.454545" x="591.545455" y="43.2"/>
  </clipPath>
 </defs>
</svg>
