<?xml version="1.0" encoding="utf-8" standalone="no"?>
<!DOCTYPE svg PUBLIC "-//W3C//DTD SVG 1.1//EN"
  "http://www.w3.org/Graphics/SVG/1.1/DTD/svg11.dtd">
<!-- Created with matplotlib (https://matplotlib.org/) -->
<svg height="360pt" version="1.1" viewBox="0 0 1080 360" width="1080pt" xmlns="http://www.w3.org/2000/svg" xmlns:xlink="http://www.w3.org/1999/xlink">
 <defs>
  <style type="text/css">
*{stroke-linecap:butt;stroke-linejoin:round;}
  </style>
 </defs>
 <g id="figure_1">
  <g id="patch_1">
   <path d="M 0 360 
L 1080 360 
L 1080 0 
L 0 0 
z
" style="fill:#ffffff;"/>
  </g>
  <g id="axes_1">
   <g id="patch_2">
    <path d="M 135 315 
L 515.454545 315 
L 515.454545 43.2 
L 135 43.2 
z
" style="fill:#ffffff;"/>
   </g>
   <g id="matplotlib.axis_1">
    <g id="xtick_1">
     <g id="line2d_1">
      <defs>
       <path d="M 0 0 
L 0 3.5 
" id="m2134bb0a7e" style="stroke:#000000;stroke-width:0.8;"/>
      </defs>
      <g>
       <use style="stroke:#000000;stroke-width:0.8;" x="152.293388" xlink:href="#m2134bb0a7e" y="315"/>
      </g>
     </g>
     <g id="text_1">
      <!-- 0 -->
      <defs>
       <path d="M 31.78125 66.40625 
Q 24.171875 66.40625 20.328125 58.90625 
Q 16.5 51.421875 16.5 36.375 
Q 16.5 21.390625 20.328125 13.890625 
Q 24.171875 6.390625 31.78125 6.390625 
Q 39.453125 6.390625 43.28125 13.890625 
Q 47.125 21.390625 47.125 36.375 
Q 47.125 51.421875 43.28125 58.90625 
Q 39.453125 66.40625 31.78125 66.40625 
z
M 31.78125 74.21875 
Q 44.046875 74.21875 50.515625 64.515625 
Q 56.984375 54.828125 56.984375 36.375 
Q 56.984375 17.96875 50.515625 8.265625 
Q 44.046875 -1.421875 31.78125 -1.421875 
Q 19.53125 -1.421875 13.0625 8.265625 
Q 6.59375 17.96875 6.59375 36.375 
Q 6.59375 54.828125 13.0625 64.515625 
Q 19.53125 74.21875 31.78125 74.21875 
z
" id="DejaVuSans-48"/>
      </defs>
      <g transform="translate(149.112138 329.598437)scale(0.1 -0.1)">
       <use xlink:href="#DejaVuSans-48"/>
      </g>
     </g>
    </g>
    <g id="xtick_2">
     <g id="line2d_2">
      <g>
       <use style="stroke:#000000;stroke-width:0.8;" x="221.744748" xlink:href="#m2134bb0a7e" y="315"/>
      </g>
     </g>
     <g id="text_2">
      <!-- 50 -->
      <defs>
       <path d="M 10.796875 72.90625 
L 49.515625 72.90625 
L 49.515625 64.59375 
L 19.828125 64.59375 
L 19.828125 46.734375 
Q 21.96875 47.46875 24.109375 47.828125 
Q 26.265625 48.1875 28.421875 48.1875 
Q 40.625 48.1875 47.75 41.5 
Q 54.890625 34.8125 54.890625 23.390625 
Q 54.890625 11.625 47.5625 5.09375 
Q 40.234375 -1.421875 26.90625 -1.421875 
Q 22.3125 -1.421875 17.546875 -0.640625 
Q 12.796875 0.140625 7.71875 1.703125 
L 7.71875 11.625 
Q 12.109375 9.234375 16.796875 8.0625 
Q 21.484375 6.890625 26.703125 6.890625 
Q 35.15625 6.890625 40.078125 11.328125 
Q 45.015625 15.765625 45.015625 23.390625 
Q 45.015625 31 40.078125 35.4375 
Q 35.15625 39.890625 26.703125 39.890625 
Q 22.75 39.890625 18.8125 39.015625 
Q 14.890625 38.140625 10.796875 36.28125 
z
" id="DejaVuSans-53"/>
      </defs>
      <g transform="translate(215.382248 329.598437)scale(0.1 -0.1)">
       <use xlink:href="#DejaVuSans-53"/>
       <use x="63.623047" xlink:href="#DejaVuSans-48"/>
      </g>
     </g>
    </g>
    <g id="xtick_3">
     <g id="line2d_3">
      <g>
       <use style="stroke:#000000;stroke-width:0.8;" x="291.196107" xlink:href="#m2134bb0a7e" y="315"/>
      </g>
     </g>
     <g id="text_3">
      <!-- 100 -->
      <defs>
       <path d="M 12.40625 8.296875 
L 28.515625 8.296875 
L 28.515625 63.921875 
L 10.984375 60.40625 
L 10.984375 69.390625 
L 28.421875 72.90625 
L 38.28125 72.90625 
L 38.28125 8.296875 
L 54.390625 8.296875 
L 54.390625 0 
L 12.40625 0 
z
" id="DejaVuSans-49"/>
      </defs>
      <g transform="translate(281.652357 329.598437)scale(0.1 -0.1)">
       <use xlink:href="#DejaVuSans-49"/>
       <use x="63.623047" xlink:href="#DejaVuSans-48"/>
       <use x="127.246094" xlink:href="#DejaVuSans-48"/>
      </g>
     </g>
    </g>
    <g id="xtick_4">
     <g id="line2d_4">
      <g>
       <use style="stroke:#000000;stroke-width:0.8;" x="360.647466" xlink:href="#m2134bb0a7e" y="315"/>
      </g>
     </g>
     <g id="text_4">
      <!-- 150 -->
      <g transform="translate(351.103716 329.598437)scale(0.1 -0.1)">
       <use xlink:href="#DejaVuSans-49"/>
       <use x="63.623047" xlink:href="#DejaVuSans-53"/>
       <use x="127.246094" xlink:href="#DejaVuSans-48"/>
      </g>
     </g>
    </g>
    <g id="xtick_5">
     <g id="line2d_5">
      <g>
       <use style="stroke:#000000;stroke-width:0.8;" x="430.098825" xlink:href="#m2134bb0a7e" y="315"/>
      </g>
     </g>
     <g id="text_5">
      <!-- 200 -->
      <defs>
       <path d="M 19.1875 8.296875 
L 53.609375 8.296875 
L 53.609375 0 
L 7.328125 0 
L 7.328125 8.296875 
Q 12.9375 14.109375 22.625 23.890625 
Q 32.328125 33.6875 34.8125 36.53125 
Q 39.546875 41.84375 41.421875 45.53125 
Q 43.3125 49.21875 43.3125 52.78125 
Q 43.3125 58.59375 39.234375 62.25 
Q 35.15625 65.921875 28.609375 65.921875 
Q 23.96875 65.921875 18.8125 64.3125 
Q 13.671875 62.703125 7.8125 59.421875 
L 7.8125 69.390625 
Q 13.765625 71.78125 18.9375 73 
Q 24.125 74.21875 28.421875 74.21875 
Q 39.75 74.21875 46.484375 68.546875 
Q 53.21875 62.890625 53.21875 53.421875 
Q 53.21875 48.921875 51.53125 44.890625 
Q 49.859375 40.875 45.40625 35.40625 
Q 44.1875 33.984375 37.640625 27.21875 
Q 31.109375 20.453125 19.1875 8.296875 
z
" id="DejaVuSans-50"/>
      </defs>
      <g transform="translate(420.555075 329.598437)scale(0.1 -0.1)">
       <use xlink:href="#DejaVuSans-50"/>
       <use x="63.623047" xlink:href="#DejaVuSans-48"/>
       <use x="127.246094" xlink:href="#DejaVuSans-48"/>
      </g>
     </g>
    </g>
    <g id="xtick_6">
     <g id="line2d_6">
      <g>
       <use style="stroke:#000000;stroke-width:0.8;" x="499.550184" xlink:href="#m2134bb0a7e" y="315"/>
      </g>
     </g>
     <g id="text_6">
      <!-- 250 -->
      <g transform="translate(490.006434 329.598437)scale(0.1 -0.1)">
       <use xlink:href="#DejaVuSans-50"/>
       <use x="63.623047" xlink:href="#DejaVuSans-53"/>
       <use x="127.246094" xlink:href="#DejaVuSans-48"/>
      </g>
     </g>
    </g>
   </g>
   <g id="matplotlib.axis_2">
    <g id="ytick_1">
     <g id="line2d_7">
      <defs>
       <path d="M 0 0 
L -3.5 0 
" id="mec87a82c63" style="stroke:#000000;stroke-width:0.8;"/>
      </defs>
      <g>
       <use style="stroke:#000000;stroke-width:0.8;" x="135" xlink:href="#mec87a82c63" y="266.786456"/>
      </g>
     </g>
     <g id="text_7">
      <!-- 0.3 -->
      <defs>
       <path d="M 10.6875 12.40625 
L 21 12.40625 
L 21 0 
L 10.6875 0 
z
" id="DejaVuSans-46"/>
       <path d="M 40.578125 39.3125 
Q 47.65625 37.796875 51.625 33 
Q 55.609375 28.21875 55.609375 21.1875 
Q 55.609375 10.40625 48.1875 4.484375 
Q 40.765625 -1.421875 27.09375 -1.421875 
Q 22.515625 -1.421875 17.65625 -0.515625 
Q 12.796875 0.390625 7.625 2.203125 
L 7.625 11.71875 
Q 11.71875 9.328125 16.59375 8.109375 
Q 21.484375 6.890625 26.8125 6.890625 
Q 36.078125 6.890625 40.9375 10.546875 
Q 45.796875 14.203125 45.796875 21.1875 
Q 45.796875 27.640625 41.28125 31.265625 
Q 36.765625 34.90625 28.71875 34.90625 
L 20.21875 34.90625 
L 20.21875 43.015625 
L 29.109375 43.015625 
Q 36.375 43.015625 40.234375 45.921875 
Q 44.09375 48.828125 44.09375 54.296875 
Q 44.09375 59.90625 40.109375 62.90625 
Q 36.140625 65.921875 28.71875 65.921875 
Q 24.65625 65.921875 20.015625 65.03125 
Q 15.375 64.15625 9.8125 62.3125 
L 9.8125 71.09375 
Q 15.4375 72.65625 20.34375 73.4375 
Q 25.25 74.21875 29.59375 74.21875 
Q 40.828125 74.21875 47.359375 69.109375 
Q 53.90625 64.015625 53.90625 55.328125 
Q 53.90625 49.265625 50.4375 45.09375 
Q 46.96875 40.921875 40.578125 39.3125 
z
" id="DejaVuSans-51"/>
      </defs>
      <g transform="translate(112.096875 270.585675)scale(0.1 -0.1)">
       <use xlink:href="#DejaVuSans-48"/>
       <use x="63.623047" xlink:href="#DejaVuSans-46"/>
       <use x="95.410156" xlink:href="#DejaVuSans-51"/>
      </g>
     </g>
    </g>
    <g id="ytick_2">
     <g id="line2d_8">
      <g>
       <use style="stroke:#000000;stroke-width:0.8;" x="135" xlink:href="#mec87a82c63" y="210.756772"/>
      </g>
     </g>
     <g id="text_8">
      <!-- 0.4 -->
      <defs>
       <path d="M 37.796875 64.3125 
L 12.890625 25.390625 
L 37.796875 25.390625 
z
M 35.203125 72.90625 
L 47.609375 72.90625 
L 47.609375 25.390625 
L 58.015625 25.390625 
L 58.015625 17.1875 
L 47.609375 17.1875 
L 47.609375 0 
L 37.796875 0 
L 37.796875 17.1875 
L 4.890625 17.1875 
L 4.890625 26.703125 
z
" id="DejaVuSans-52"/>
      </defs>
      <g transform="translate(112.096875 214.555991)scale(0.1 -0.1)">
       <use xlink:href="#DejaVuSans-48"/>
       <use x="63.623047" xlink:href="#DejaVuSans-46"/>
       <use x="95.410156" xlink:href="#DejaVuSans-52"/>
      </g>
     </g>
    </g>
    <g id="ytick_3">
     <g id="line2d_9">
      <g>
       <use style="stroke:#000000;stroke-width:0.8;" x="135" xlink:href="#mec87a82c63" y="154.727087"/>
      </g>
     </g>
     <g id="text_9">
      <!-- 0.5 -->
      <g transform="translate(112.096875 158.526306)scale(0.1 -0.1)">
       <use xlink:href="#DejaVuSans-48"/>
       <use x="63.623047" xlink:href="#DejaVuSans-46"/>
       <use x="95.410156" xlink:href="#DejaVuSans-53"/>
      </g>
     </g>
    </g>
    <g id="ytick_4">
     <g id="line2d_10">
      <g>
       <use style="stroke:#000000;stroke-width:0.8;" x="135" xlink:href="#mec87a82c63" y="98.697403"/>
      </g>
     </g>
     <g id="text_10">
      <!-- 0.6 -->
      <defs>
       <path d="M 33.015625 40.375 
Q 26.375 40.375 22.484375 35.828125 
Q 18.609375 31.296875 18.609375 23.390625 
Q 18.609375 15.53125 22.484375 10.953125 
Q 26.375 6.390625 33.015625 6.390625 
Q 39.65625 6.390625 43.53125 10.953125 
Q 47.40625 15.53125 47.40625 23.390625 
Q 47.40625 31.296875 43.53125 35.828125 
Q 39.65625 40.375 33.015625 40.375 
z
M 52.59375 71.296875 
L 52.59375 62.3125 
Q 48.875 64.0625 45.09375 64.984375 
Q 41.3125 65.921875 37.59375 65.921875 
Q 27.828125 65.921875 22.671875 59.328125 
Q 17.53125 52.734375 16.796875 39.40625 
Q 19.671875 43.65625 24.015625 45.921875 
Q 28.375 48.1875 33.59375 48.1875 
Q 44.578125 48.1875 50.953125 41.515625 
Q 57.328125 34.859375 57.328125 23.390625 
Q 57.328125 12.15625 50.6875 5.359375 
Q 44.046875 -1.421875 33.015625 -1.421875 
Q 20.359375 -1.421875 13.671875 8.265625 
Q 6.984375 17.96875 6.984375 36.375 
Q 6.984375 53.65625 15.1875 63.9375 
Q 23.390625 74.21875 37.203125 74.21875 
Q 40.921875 74.21875 44.703125 73.484375 
Q 48.484375 72.75 52.59375 71.296875 
z
" id="DejaVuSans-54"/>
      </defs>
      <g transform="translate(112.096875 102.496621)scale(0.1 -0.1)">
       <use xlink:href="#DejaVuSans-48"/>
       <use x="63.623047" xlink:href="#DejaVuSans-46"/>
       <use x="95.410156" xlink:href="#DejaVuSans-54"/>
      </g>
     </g>
    </g>
   </g>
   <g id="line2d_11">
    <path clip-path="url(#p445130645b)" d="M 152.293388 302.645455 
L 153.682416 254.459926 
L 155.071443 253.339332 
L 156.46047 253.339332 
L 159.238524 219.721521 
L 160.627552 224.203896 
L 162.016579 198.430241 
L 163.405606 202.912616 
L 164.794633 184.983117 
L 166.18366 169.294805 
L 167.572687 184.983117 
L 168.961715 177.699258 
L 170.350742 147.443228 
L 171.739769 148.563822 
L 173.128796 159.209462 
L 174.517823 163.691837 
L 175.906851 152.4859 
L 177.295878 172.656586 
L 178.684905 177.699258 
L 180.073932 193.38757 
L 181.462959 174.897774 
L 182.851986 160.330056 
L 184.241014 154.727087 
L 185.630041 159.769759 
L 187.019068 154.727087 
L 188.408095 110.463636 
L 189.797122 154.727087 
L 191.18615 129.513729 
L 192.575177 137.918182 
L 193.964204 123.910761 
L 195.353231 107.101855 
L 196.742258 115.506308 
L 198.131285 104.860668 
L 199.520313 67.320779 
L 200.90934 67.320779 
L 202.298367 116.626902 
L 203.687394 83.569388 
L 205.076421 91.97384 
L 206.465449 88.612059 
L 207.854476 80.207607 
L 209.243503 73.484045 
L 210.63253 103.740074 
L 212.021557 112.144527 
L 213.410584 107.662152 
L 214.799612 98.697403 
L 216.188639 86.931169 
L 217.577666 55.554545 
L 218.966693 107.101855 
L 220.35572 98.697403 
L 221.744748 113.825417 
L 223.133775 63.398701 
L 224.522802 71.242857 
L 225.911829 83.009091 
L 227.300856 89.732653 
L 228.689884 112.144527 
L 230.078911 104.300371 
L 231.467938 99.817996 
L 232.856965 72.363451 
L 234.245992 78.526716 
L 235.635019 100.93859 
L 237.024047 111.58423 
L 238.413074 105.981262 
L 239.802101 69.561967 
L 241.191128 95.895918 
L 242.580155 76.285529 
L 243.969183 96.456215 
L 245.35821 86.931169 
L 246.747237 108.222449 
L 248.136264 104.300371 
L 249.525291 105.981262 
L 250.914318 108.782746 
L 252.303346 94.775325 
L 253.692373 105.420965 
L 255.0814 78.526716 
L 256.470427 82.448794 
L 257.859454 85.810575 
L 259.248482 100.93859 
L 260.637509 97.576809 
L 262.026536 93.094434 
L 263.415563 112.704824 
L 264.80459 91.97384 
L 266.193617 79.64731 
L 267.582645 123.910761 
L 268.971672 108.222449 
L 270.360699 88.051763 
L 271.749726 91.413544 
L 273.138753 97.576809 
L 274.527781 101.498887 
L 275.916808 89.172356 
L 277.305835 88.051763 
L 278.694862 79.087013 
L 280.083889 67.881076 
L 281.472916 80.767904 
L 282.861944 92.534137 
L 284.250971 105.981262 
L 285.639998 107.662152 
L 287.029025 146.882931 
L 288.418052 122.22987 
L 289.80708 132.87551 
L 291.196107 124.471058 
L 292.585134 108.222449 
L 293.974161 136.237291 
L 295.363188 127.832839 
L 296.752215 139.038776 
L 298.141243 118.868089 
L 299.53027 90.29295 
L 300.919297 118.868089 
L 302.308324 92.534137 
L 303.697351 103.179777 
L 305.086379 112.144527 
L 306.475406 116.066605 
L 307.864433 110.463636 
L 309.25346 122.790167 
L 310.642487 128.953432 
L 312.031514 90.853247 
L 313.420542 109.90334 
L 314.809569 113.825417 
L 316.198596 126.151948 
L 317.587623 103.179777 
L 318.97665 100.93859 
L 320.365678 113.265121 
L 321.754705 75.164935 
L 323.143732 107.662152 
L 324.532759 128.393135 
L 325.921786 115.506308 
L 327.310814 108.222449 
L 328.699841 153.606494 
L 330.088868 152.4859 
L 331.477895 148.563822 
L 332.866922 132.315213 
L 334.255949 118.307792 
L 335.644977 131.19462 
L 337.034004 128.953432 
L 338.423031 139.038776 
L 339.812058 134.556401 
L 341.201085 106.541558 
L 342.590113 146.322635 
L 343.97914 155.847681 
L 345.368167 155.287384 
L 346.757194 132.315213 
L 348.146221 142.960853 
L 349.535248 146.322635 
L 350.924276 151.365306 
L 352.313303 162.571243 
L 353.70233 144.081447 
L 355.091357 155.287384 
L 356.480384 168.174212 
L 357.869412 168.734508 
L 359.258439 155.847681 
L 360.647466 152.4859 
L 362.036493 194.508163 
L 363.42552 181.061039 
L 366.203575 156.968275 
L 367.592602 169.855102 
L 368.981629 165.933024 
L 370.370656 137.357885 
L 371.759683 168.734508 
L 373.148711 167.613915 
L 374.537738 146.882931 
L 375.926765 148.563822 
L 378.704819 115.506308 
L 380.093846 121.109276 
L 381.482874 118.307792 
L 382.871901 131.19462 
L 384.260928 139.599072 
L 385.649955 151.365306 
L 387.038982 165.933024 
L 388.42801 144.081447 
L 389.817037 162.010946 
L 391.206064 165.372727 
L 392.595091 136.797588 
L 393.984118 144.641744 
L 395.373145 149.684416 
L 396.762173 139.599072 
L 398.1512 127.272542 
L 399.540227 128.953432 
L 400.929254 150.805009 
L 402.318281 153.046197 
L 403.707309 149.684416 
L 405.096336 153.606494 
L 407.87439 186.103711 
L 409.263417 138.478479 
L 410.652444 137.357885 
L 412.041472 148.003525 
L 413.430499 160.330056 
L 414.819526 153.606494 
L 416.208553 142.960853 
L 417.59758 139.599072 
L 418.986608 135.116698 
L 420.375635 164.252134 
L 421.764662 176.578664 
L 423.153689 145.202041 
L 424.542716 140.719666 
L 425.931744 149.684416 
L 427.320771 150.805009 
L 428.709798 142.400557 
L 430.098825 140.159369 
L 434.265907 172.656586 
L 435.654934 145.202041 
L 437.043961 160.890353 
L 438.432988 155.847681 
L 439.822015 151.365306 
L 441.211043 168.174212 
L 442.60007 158.649165 
L 443.989097 167.053618 
L 445.378124 165.933024 
L 446.767151 144.641744 
L 448.156178 183.862523 
L 449.545206 163.13154 
L 450.934233 156.968275 
L 452.32326 142.960853 
L 453.712287 141.84026 
L 455.101314 141.84026 
L 456.490342 133.435807 
L 457.879369 180.500742 
L 459.268396 166.493321 
L 460.657423 164.81243 
L 462.04645 174.337477 
L 463.435477 168.734508 
L 464.824505 173.77718 
L 466.213532 183.302226 
L 467.602559 186.664007 
L 468.991586 181.621336 
L 470.380613 192.827273 
L 471.769641 186.664007 
L 473.158668 150.244712 
L 474.547695 167.613915 
L 475.936722 140.159369 
L 477.325749 171.535993 
L 478.714776 168.174212 
L 480.103804 173.216883 
L 481.492831 156.968275 
L 482.881858 197.869944 
L 484.270885 182.181633 
L 485.659912 185.543414 
L 487.04894 187.224304 
L 488.437967 170.975696 
L 489.826994 172.096289 
L 491.216021 171.535993 
L 492.605048 179.940445 
L 493.994075 223.083302 
L 495.383103 187.224304 
L 496.77213 196.189054 
L 498.161157 188.905195 
L 498.161157 188.905195 
" style="fill:none;stroke:#ff0000;stroke-linecap:square;stroke-width:1.5;"/>
   </g>
   <g id="patch_3">
    <path d="M 135 315 
L 135 43.2 
" style="fill:none;stroke:#000000;stroke-linecap:square;stroke-linejoin:miter;stroke-width:0.8;"/>
   </g>
   <g id="patch_4">
    <path d="M 515.454545 315 
L 515.454545 43.2 
" style="fill:none;stroke:#000000;stroke-linecap:square;stroke-linejoin:miter;stroke-width:0.8;"/>
   </g>
   <g id="patch_5">
    <path d="M 135 315 
L 515.454545 315 
" style="fill:none;stroke:#000000;stroke-linecap:square;stroke-linejoin:miter;stroke-width:0.8;"/>
   </g>
   <g id="patch_6">
    <path d="M 135 43.2 
L 515.454545 43.2 
" style="fill:none;stroke:#000000;stroke-linecap:square;stroke-linejoin:miter;stroke-width:0.8;"/>
   </g>
   <g id="text_11">
    <!-- mean_overlapping_bboxes -->
    <defs>
     <path d="M 52 44.1875 
Q 55.375 50.25 60.0625 53.125 
Q 64.75 56 71.09375 56 
Q 79.640625 56 84.28125 50.015625 
Q 88.921875 44.046875 88.921875 33.015625 
L 88.921875 0 
L 79.890625 0 
L 79.890625 32.71875 
Q 79.890625 40.578125 77.09375 44.375 
Q 74.3125 48.1875 68.609375 48.1875 
Q 61.625 48.1875 57.5625 43.546875 
Q 53.515625 38.921875 53.515625 30.90625 
L 53.515625 0 
L 44.484375 0 
L 44.484375 32.71875 
Q 44.484375 40.625 41.703125 44.40625 
Q 38.921875 48.1875 33.109375 48.1875 
Q 26.21875 48.1875 22.15625 43.53125 
Q 18.109375 38.875 18.109375 30.90625 
L 18.109375 0 
L 9.078125 0 
L 9.078125 54.6875 
L 18.109375 54.6875 
L 18.109375 46.1875 
Q 21.1875 51.21875 25.484375 53.609375 
Q 29.78125 56 35.6875 56 
Q 41.65625 56 45.828125 52.96875 
Q 50 49.953125 52 44.1875 
z
" id="DejaVuSans-109"/>
     <path d="M 56.203125 29.59375 
L 56.203125 25.203125 
L 14.890625 25.203125 
Q 15.484375 15.921875 20.484375 11.0625 
Q 25.484375 6.203125 34.421875 6.203125 
Q 39.59375 6.203125 44.453125 7.46875 
Q 49.3125 8.734375 54.109375 11.28125 
L 54.109375 2.78125 
Q 49.265625 0.734375 44.1875 -0.34375 
Q 39.109375 -1.421875 33.890625 -1.421875 
Q 20.796875 -1.421875 13.15625 6.1875 
Q 5.515625 13.8125 5.515625 26.8125 
Q 5.515625 40.234375 12.765625 48.109375 
Q 20.015625 56 32.328125 56 
Q 43.359375 56 49.78125 48.890625 
Q 56.203125 41.796875 56.203125 29.59375 
z
M 47.21875 32.234375 
Q 47.125 39.59375 43.09375 43.984375 
Q 39.0625 48.390625 32.421875 48.390625 
Q 24.90625 48.390625 20.390625 44.140625 
Q 15.875 39.890625 15.1875 32.171875 
z
" id="DejaVuSans-101"/>
     <path d="M 34.28125 27.484375 
Q 23.390625 27.484375 19.1875 25 
Q 14.984375 22.515625 14.984375 16.5 
Q 14.984375 11.71875 18.140625 8.90625 
Q 21.296875 6.109375 26.703125 6.109375 
Q 34.1875 6.109375 38.703125 11.40625 
Q 43.21875 16.703125 43.21875 25.484375 
L 43.21875 27.484375 
z
M 52.203125 31.203125 
L 52.203125 0 
L 43.21875 0 
L 43.21875 8.296875 
Q 40.140625 3.328125 35.546875 0.953125 
Q 30.953125 -1.421875 24.3125 -1.421875 
Q 15.921875 -1.421875 10.953125 3.296875 
Q 6 8.015625 6 15.921875 
Q 6 25.140625 12.171875 29.828125 
Q 18.359375 34.515625 30.609375 34.515625 
L 43.21875 34.515625 
L 43.21875 35.40625 
Q 43.21875 41.609375 39.140625 45 
Q 35.0625 48.390625 27.6875 48.390625 
Q 23 48.390625 18.546875 47.265625 
Q 14.109375 46.140625 10.015625 43.890625 
L 10.015625 52.203125 
Q 14.9375 54.109375 19.578125 55.046875 
Q 24.21875 56 28.609375 56 
Q 40.484375 56 46.34375 49.84375 
Q 52.203125 43.703125 52.203125 31.203125 
z
" id="DejaVuSans-97"/>
     <path d="M 54.890625 33.015625 
L 54.890625 0 
L 45.90625 0 
L 45.90625 32.71875 
Q 45.90625 40.484375 42.875 44.328125 
Q 39.84375 48.1875 33.796875 48.1875 
Q 26.515625 48.1875 22.3125 43.546875 
Q 18.109375 38.921875 18.109375 30.90625 
L 18.109375 0 
L 9.078125 0 
L 9.078125 54.6875 
L 18.109375 54.6875 
L 18.109375 46.1875 
Q 21.34375 51.125 25.703125 53.5625 
Q 30.078125 56 35.796875 56 
Q 45.21875 56 50.046875 50.171875 
Q 54.890625 44.34375 54.890625 33.015625 
z
" id="DejaVuSans-110"/>
     <path d="M 50.984375 -16.609375 
L 50.984375 -23.578125 
L -0.984375 -23.578125 
L -0.984375 -16.609375 
z
" id="DejaVuSans-95"/>
     <path d="M 30.609375 48.390625 
Q 23.390625 48.390625 19.1875 42.75 
Q 14.984375 37.109375 14.984375 27.296875 
Q 14.984375 17.484375 19.15625 11.84375 
Q 23.34375 6.203125 30.609375 6.203125 
Q 37.796875 6.203125 41.984375 11.859375 
Q 46.1875 17.53125 46.1875 27.296875 
Q 46.1875 37.015625 41.984375 42.703125 
Q 37.796875 48.390625 30.609375 48.390625 
z
M 30.609375 56 
Q 42.328125 56 49.015625 48.375 
Q 55.71875 40.765625 55.71875 27.296875 
Q 55.71875 13.875 49.015625 6.21875 
Q 42.328125 -1.421875 30.609375 -1.421875 
Q 18.84375 -1.421875 12.171875 6.21875 
Q 5.515625 13.875 5.515625 27.296875 
Q 5.515625 40.765625 12.171875 48.375 
Q 18.84375 56 30.609375 56 
z
" id="DejaVuSans-111"/>
     <path d="M 2.984375 54.6875 
L 12.5 54.6875 
L 29.59375 8.796875 
L 46.6875 54.6875 
L 56.203125 54.6875 
L 35.6875 0 
L 23.484375 0 
z
" id="DejaVuSans-118"/>
     <path d="M 41.109375 46.296875 
Q 39.59375 47.171875 37.8125 47.578125 
Q 36.03125 48 33.890625 48 
Q 26.265625 48 22.1875 43.046875 
Q 18.109375 38.09375 18.109375 28.8125 
L 18.109375 0 
L 9.078125 0 
L 9.078125 54.6875 
L 18.109375 54.6875 
L 18.109375 46.1875 
Q 20.953125 51.171875 25.484375 53.578125 
Q 30.03125 56 36.53125 56 
Q 37.453125 56 38.578125 55.875 
Q 39.703125 55.765625 41.0625 55.515625 
z
" id="DejaVuSans-114"/>
     <path d="M 9.421875 75.984375 
L 18.40625 75.984375 
L 18.40625 0 
L 9.421875 0 
z
" id="DejaVuSans-108"/>
     <path d="M 18.109375 8.203125 
L 18.109375 -20.796875 
L 9.078125 -20.796875 
L 9.078125 54.6875 
L 18.109375 54.6875 
L 18.109375 46.390625 
Q 20.953125 51.265625 25.265625 53.625 
Q 29.59375 56 35.59375 56 
Q 45.5625 56 51.78125 48.09375 
Q 58.015625 40.1875 58.015625 27.296875 
Q 58.015625 14.40625 51.78125 6.484375 
Q 45.5625 -1.421875 35.59375 -1.421875 
Q 29.59375 -1.421875 25.265625 0.953125 
Q 20.953125 3.328125 18.109375 8.203125 
z
M 48.6875 27.296875 
Q 48.6875 37.203125 44.609375 42.84375 
Q 40.53125 48.484375 33.40625 48.484375 
Q 26.265625 48.484375 22.1875 42.84375 
Q 18.109375 37.203125 18.109375 27.296875 
Q 18.109375 17.390625 22.1875 11.75 
Q 26.265625 6.109375 33.40625 6.109375 
Q 40.53125 6.109375 44.609375 11.75 
Q 48.6875 17.390625 48.6875 27.296875 
z
" id="DejaVuSans-112"/>
     <path d="M 9.421875 54.6875 
L 18.40625 54.6875 
L 18.40625 0 
L 9.421875 0 
z
M 9.421875 75.984375 
L 18.40625 75.984375 
L 18.40625 64.59375 
L 9.421875 64.59375 
z
" id="DejaVuSans-105"/>
     <path d="M 45.40625 27.984375 
Q 45.40625 37.75 41.375 43.109375 
Q 37.359375 48.484375 30.078125 48.484375 
Q 22.859375 48.484375 18.828125 43.109375 
Q 14.796875 37.75 14.796875 27.984375 
Q 14.796875 18.265625 18.828125 12.890625 
Q 22.859375 7.515625 30.078125 7.515625 
Q 37.359375 7.515625 41.375 12.890625 
Q 45.40625 18.265625 45.40625 27.984375 
z
M 54.390625 6.78125 
Q 54.390625 -7.171875 48.1875 -13.984375 
Q 42 -20.796875 29.203125 -20.796875 
Q 24.46875 -20.796875 20.265625 -20.09375 
Q 16.0625 -19.390625 12.109375 -17.921875 
L 12.109375 -9.1875 
Q 16.0625 -11.328125 19.921875 -12.34375 
Q 23.78125 -13.375 27.78125 -13.375 
Q 36.625 -13.375 41.015625 -8.765625 
Q 45.40625 -4.15625 45.40625 5.171875 
L 45.40625 9.625 
Q 42.625 4.78125 38.28125 2.390625 
Q 33.9375 0 27.875 0 
Q 17.828125 0 11.671875 7.65625 
Q 5.515625 15.328125 5.515625 27.984375 
Q 5.515625 40.671875 11.671875 48.328125 
Q 17.828125 56 27.875 56 
Q 33.9375 56 38.28125 53.609375 
Q 42.625 51.21875 45.40625 46.390625 
L 45.40625 54.6875 
L 54.390625 54.6875 
z
" id="DejaVuSans-103"/>
     <path d="M 48.6875 27.296875 
Q 48.6875 37.203125 44.609375 42.84375 
Q 40.53125 48.484375 33.40625 48.484375 
Q 26.265625 48.484375 22.1875 42.84375 
Q 18.109375 37.203125 18.109375 27.296875 
Q 18.109375 17.390625 22.1875 11.75 
Q 26.265625 6.109375 33.40625 6.109375 
Q 40.53125 6.109375 44.609375 11.75 
Q 48.6875 17.390625 48.6875 27.296875 
z
M 18.109375 46.390625 
Q 20.953125 51.265625 25.265625 53.625 
Q 29.59375 56 35.59375 56 
Q 45.5625 56 51.78125 48.09375 
Q 58.015625 40.1875 58.015625 27.296875 
Q 58.015625 14.40625 51.78125 6.484375 
Q 45.5625 -1.421875 35.59375 -1.421875 
Q 29.59375 -1.421875 25.265625 0.953125 
Q 20.953125 3.328125 18.109375 8.203125 
L 18.109375 0 
L 9.078125 0 
L 9.078125 75.984375 
L 18.109375 75.984375 
z
" id="DejaVuSans-98"/>
     <path d="M 54.890625 54.6875 
L 35.109375 28.078125 
L 55.90625 0 
L 45.3125 0 
L 29.390625 21.484375 
L 13.484375 0 
L 2.875 0 
L 24.125 28.609375 
L 4.6875 54.6875 
L 15.28125 54.6875 
L 29.78125 35.203125 
L 44.28125 54.6875 
z
" id="DejaVuSans-120"/>
     <path d="M 44.28125 53.078125 
L 44.28125 44.578125 
Q 40.484375 46.53125 36.375 47.5 
Q 32.28125 48.484375 27.875 48.484375 
Q 21.1875 48.484375 17.84375 46.4375 
Q 14.5 44.390625 14.5 40.28125 
Q 14.5 37.15625 16.890625 35.375 
Q 19.28125 33.59375 26.515625 31.984375 
L 29.59375 31.296875 
Q 39.15625 29.25 43.1875 25.515625 
Q 47.21875 21.78125 47.21875 15.09375 
Q 47.21875 7.46875 41.1875 3.015625 
Q 35.15625 -1.421875 24.609375 -1.421875 
Q 20.21875 -1.421875 15.453125 -0.5625 
Q 10.6875 0.296875 5.421875 2 
L 5.421875 11.28125 
Q 10.40625 8.6875 15.234375 7.390625 
Q 20.0625 6.109375 24.8125 6.109375 
Q 31.15625 6.109375 34.5625 8.28125 
Q 37.984375 10.453125 37.984375 14.40625 
Q 37.984375 18.0625 35.515625 20.015625 
Q 33.0625 21.96875 24.703125 23.78125 
L 21.578125 24.515625 
Q 13.234375 26.265625 9.515625 29.90625 
Q 5.8125 33.546875 5.8125 39.890625 
Q 5.8125 47.609375 11.28125 51.796875 
Q 16.75 56 26.8125 56 
Q 31.78125 56 36.171875 55.265625 
Q 40.578125 54.546875 44.28125 53.078125 
z
" id="DejaVuSans-115"/>
    </defs>
    <g transform="translate(244.937898 37.2)scale(0.12 -0.12)">
     <use xlink:href="#DejaVuSans-109"/>
     <use x="97.412109" xlink:href="#DejaVuSans-101"/>
     <use x="158.935547" xlink:href="#DejaVuSans-97"/>
     <use x="220.214844" xlink:href="#DejaVuSans-110"/>
     <use x="283.59375" xlink:href="#DejaVuSans-95"/>
     <use x="333.59375" xlink:href="#DejaVuSans-111"/>
     <use x="394.775391" xlink:href="#DejaVuSans-118"/>
     <use x="453.955078" xlink:href="#DejaVuSans-101"/>
     <use x="515.478516" xlink:href="#DejaVuSans-114"/>
     <use x="556.591797" xlink:href="#DejaVuSans-108"/>
     <use x="584.375" xlink:href="#DejaVuSans-97"/>
     <use x="645.654297" xlink:href="#DejaVuSans-112"/>
     <use x="709.130859" xlink:href="#DejaVuSans-112"/>
     <use x="772.607422" xlink:href="#DejaVuSans-105"/>
     <use x="800.390625" xlink:href="#DejaVuSans-110"/>
     <use x="863.769531" xlink:href="#DejaVuSans-103"/>
     <use x="927.246094" xlink:href="#DejaVuSans-95"/>
     <use x="977.246094" xlink:href="#DejaVuSans-98"/>
     <use x="1040.722656" xlink:href="#DejaVuSans-98"/>
     <use x="1104.199219" xlink:href="#DejaVuSans-111"/>
     <use x="1165.333984" xlink:href="#DejaVuSans-120"/>
     <use x="1224.466797" xlink:href="#DejaVuSans-101"/>
     <use x="1285.990234" xlink:href="#DejaVuSans-115"/>
    </g>
   </g>
  </g>
  <g id="axes_2">
   <g id="patch_7">
    <path d="M 591.545455 315 
L 972 315 
L 972 43.2 
L 591.545455 43.2 
z
" style="fill:#ffffff;"/>
   </g>
   <g id="matplotlib.axis_3">
    <g id="xtick_7">
     <g id="line2d_12">
      <g>
       <use style="stroke:#000000;stroke-width:0.8;" x="608.838843" xlink:href="#m2134bb0a7e" y="315"/>
      </g>
     </g>
     <g id="text_12">
      <!-- 0 -->
      <g transform="translate(605.657593 329.598437)scale(0.1 -0.1)">
       <use xlink:href="#DejaVuSans-48"/>
      </g>
     </g>
    </g>
    <g id="xtick_8">
     <g id="line2d_13">
      <g>
       <use style="stroke:#000000;stroke-width:0.8;" x="678.290202" xlink:href="#m2134bb0a7e" y="315"/>
      </g>
     </g>
     <g id="text_13">
      <!-- 50 -->
      <g transform="translate(671.927702 329.598437)scale(0.1 -0.1)">
       <use xlink:href="#DejaVuSans-53"/>
       <use x="63.623047" xlink:href="#DejaVuSans-48"/>
      </g>
     </g>
    </g>
    <g id="xtick_9">
     <g id="line2d_14">
      <g>
       <use style="stroke:#000000;stroke-width:0.8;" x="747.741561" xlink:href="#m2134bb0a7e" y="315"/>
      </g>
     </g>
     <g id="text_14">
      <!-- 100 -->
      <g transform="translate(738.197811 329.598437)scale(0.1 -0.1)">
       <use xlink:href="#DejaVuSans-49"/>
       <use x="63.623047" xlink:href="#DejaVuSans-48"/>
       <use x="127.246094" xlink:href="#DejaVuSans-48"/>
      </g>
     </g>
    </g>
    <g id="xtick_10">
     <g id="line2d_15">
      <g>
       <use style="stroke:#000000;stroke-width:0.8;" x="817.19292" xlink:href="#m2134bb0a7e" y="315"/>
      </g>
     </g>
     <g id="text_15">
      <!-- 150 -->
      <g transform="translate(807.64917 329.598437)scale(0.1 -0.1)">
       <use xlink:href="#DejaVuSans-49"/>
       <use x="63.623047" xlink:href="#DejaVuSans-53"/>
       <use x="127.246094" xlink:href="#DejaVuSans-48"/>
      </g>
     </g>
    </g>
    <g id="xtick_11">
     <g id="line2d_16">
      <g>
       <use style="stroke:#000000;stroke-width:0.8;" x="886.64428" xlink:href="#m2134bb0a7e" y="315"/>
      </g>
     </g>
     <g id="text_16">
      <!-- 200 -->
      <g transform="translate(877.10053 329.598437)scale(0.1 -0.1)">
       <use xlink:href="#DejaVuSans-50"/>
       <use x="63.623047" xlink:href="#DejaVuSans-48"/>
       <use x="127.246094" xlink:href="#DejaVuSans-48"/>
      </g>
     </g>
    </g>
    <g id="xtick_12">
     <g id="line2d_17">
      <g>
       <use style="stroke:#000000;stroke-width:0.8;" x="956.095639" xlink:href="#m2134bb0a7e" y="315"/>
      </g>
     </g>
     <g id="text_17">
      <!-- 250 -->
      <g transform="translate(946.551889 329.598437)scale(0.1 -0.1)">
       <use xlink:href="#DejaVuSans-50"/>
       <use x="63.623047" xlink:href="#DejaVuSans-53"/>
       <use x="127.246094" xlink:href="#DejaVuSans-48"/>
      </g>
     </g>
    </g>
   </g>
   <g id="matplotlib.axis_4">
    <g id="ytick_5">
     <g id="line2d_18">
      <g>
       <use style="stroke:#000000;stroke-width:0.8;" x="591.545455" xlink:href="#mec87a82c63" y="285.559381"/>
      </g>
     </g>
     <g id="text_18">
      <!-- 0.825 -->
      <defs>
       <path d="M 31.78125 34.625 
Q 24.75 34.625 20.71875 30.859375 
Q 16.703125 27.09375 16.703125 20.515625 
Q 16.703125 13.921875 20.71875 10.15625 
Q 24.75 6.390625 31.78125 6.390625 
Q 38.8125 6.390625 42.859375 10.171875 
Q 46.921875 13.96875 46.921875 20.515625 
Q 46.921875 27.09375 42.890625 30.859375 
Q 38.875 34.625 31.78125 34.625 
z
M 21.921875 38.8125 
Q 15.578125 40.375 12.03125 44.71875 
Q 8.5 49.078125 8.5 55.328125 
Q 8.5 64.0625 14.71875 69.140625 
Q 20.953125 74.21875 31.78125 74.21875 
Q 42.671875 74.21875 48.875 69.140625 
Q 55.078125 64.0625 55.078125 55.328125 
Q 55.078125 49.078125 51.53125 44.71875 
Q 48 40.375 41.703125 38.8125 
Q 48.828125 37.15625 52.796875 32.3125 
Q 56.78125 27.484375 56.78125 20.515625 
Q 56.78125 9.90625 50.3125 4.234375 
Q 43.84375 -1.421875 31.78125 -1.421875 
Q 19.734375 -1.421875 13.25 4.234375 
Q 6.78125 9.90625 6.78125 20.515625 
Q 6.78125 27.484375 10.78125 32.3125 
Q 14.796875 37.15625 21.921875 38.8125 
z
M 18.3125 54.390625 
Q 18.3125 48.734375 21.84375 45.5625 
Q 25.390625 42.390625 31.78125 42.390625 
Q 38.140625 42.390625 41.71875 45.5625 
Q 45.3125 48.734375 45.3125 54.390625 
Q 45.3125 60.0625 41.71875 63.234375 
Q 38.140625 66.40625 31.78125 66.40625 
Q 25.390625 66.40625 21.84375 63.234375 
Q 18.3125 60.0625 18.3125 54.390625 
z
" id="DejaVuSans-56"/>
      </defs>
      <g transform="translate(555.91733 289.3586)scale(0.1 -0.1)">
       <use xlink:href="#DejaVuSans-48"/>
       <use x="63.623047" xlink:href="#DejaVuSans-46"/>
       <use x="95.410156" xlink:href="#DejaVuSans-56"/>
       <use x="159.033203" xlink:href="#DejaVuSans-50"/>
       <use x="222.65625" xlink:href="#DejaVuSans-53"/>
      </g>
     </g>
    </g>
    <g id="ytick_6">
     <g id="line2d_19">
      <g>
       <use style="stroke:#000000;stroke-width:0.8;" x="591.545455" xlink:href="#mec87a82c63" y="252.701547"/>
      </g>
     </g>
     <g id="text_19">
      <!-- 0.850 -->
      <g transform="translate(555.91733 256.500766)scale(0.1 -0.1)">
       <use xlink:href="#DejaVuSans-48"/>
       <use x="63.623047" xlink:href="#DejaVuSans-46"/>
       <use x="95.410156" xlink:href="#DejaVuSans-56"/>
       <use x="159.033203" xlink:href="#DejaVuSans-53"/>
       <use x="222.65625" xlink:href="#DejaVuSans-48"/>
      </g>
     </g>
    </g>
    <g id="ytick_7">
     <g id="line2d_20">
      <g>
       <use style="stroke:#000000;stroke-width:0.8;" x="591.545455" xlink:href="#mec87a82c63" y="219.843714"/>
      </g>
     </g>
     <g id="text_20">
      <!-- 0.875 -->
      <defs>
       <path d="M 8.203125 72.90625 
L 55.078125 72.90625 
L 55.078125 68.703125 
L 28.609375 0 
L 18.3125 0 
L 43.21875 64.59375 
L 8.203125 64.59375 
z
" id="DejaVuSans-55"/>
      </defs>
      <g transform="translate(555.91733 223.642932)scale(0.1 -0.1)">
       <use xlink:href="#DejaVuSans-48"/>
       <use x="63.623047" xlink:href="#DejaVuSans-46"/>
       <use x="95.410156" xlink:href="#DejaVuSans-56"/>
       <use x="159.033203" xlink:href="#DejaVuSans-55"/>
       <use x="222.65625" xlink:href="#DejaVuSans-53"/>
      </g>
     </g>
    </g>
    <g id="ytick_8">
     <g id="line2d_21">
      <g>
       <use style="stroke:#000000;stroke-width:0.8;" x="591.545455" xlink:href="#mec87a82c63" y="186.98588"/>
      </g>
     </g>
     <g id="text_21">
      <!-- 0.900 -->
      <defs>
       <path d="M 10.984375 1.515625 
L 10.984375 10.5 
Q 14.703125 8.734375 18.5 7.8125 
Q 22.3125 6.890625 25.984375 6.890625 
Q 35.75 6.890625 40.890625 13.453125 
Q 46.046875 20.015625 46.78125 33.40625 
Q 43.953125 29.203125 39.59375 26.953125 
Q 35.25 24.703125 29.984375 24.703125 
Q 19.046875 24.703125 12.671875 31.3125 
Q 6.296875 37.9375 6.296875 49.421875 
Q 6.296875 60.640625 12.9375 67.421875 
Q 19.578125 74.21875 30.609375 74.21875 
Q 43.265625 74.21875 49.921875 64.515625 
Q 56.59375 54.828125 56.59375 36.375 
Q 56.59375 19.140625 48.40625 8.859375 
Q 40.234375 -1.421875 26.421875 -1.421875 
Q 22.703125 -1.421875 18.890625 -0.6875 
Q 15.09375 0.046875 10.984375 1.515625 
z
M 30.609375 32.421875 
Q 37.25 32.421875 41.125 36.953125 
Q 45.015625 41.5 45.015625 49.421875 
Q 45.015625 57.28125 41.125 61.84375 
Q 37.25 66.40625 30.609375 66.40625 
Q 23.96875 66.40625 20.09375 61.84375 
Q 16.21875 57.28125 16.21875 49.421875 
Q 16.21875 41.5 20.09375 36.953125 
Q 23.96875 32.421875 30.609375 32.421875 
z
" id="DejaVuSans-57"/>
      </defs>
      <g transform="translate(555.91733 190.785099)scale(0.1 -0.1)">
       <use xlink:href="#DejaVuSans-48"/>
       <use x="63.623047" xlink:href="#DejaVuSans-46"/>
       <use x="95.410156" xlink:href="#DejaVuSans-57"/>
       <use x="159.033203" xlink:href="#DejaVuSans-48"/>
       <use x="222.65625" xlink:href="#DejaVuSans-48"/>
      </g>
     </g>
    </g>
    <g id="ytick_9">
     <g id="line2d_22">
      <g>
       <use style="stroke:#000000;stroke-width:0.8;" x="591.545455" xlink:href="#mec87a82c63" y="154.128046"/>
      </g>
     </g>
     <g id="text_22">
      <!-- 0.925 -->
      <g transform="translate(555.91733 157.927265)scale(0.1 -0.1)">
       <use xlink:href="#DejaVuSans-48"/>
       <use x="63.623047" xlink:href="#DejaVuSans-46"/>
       <use x="95.410156" xlink:href="#DejaVuSans-57"/>
       <use x="159.033203" xlink:href="#DejaVuSans-50"/>
       <use x="222.65625" xlink:href="#DejaVuSans-53"/>
      </g>
     </g>
    </g>
    <g id="ytick_10">
     <g id="line2d_23">
      <g>
       <use style="stroke:#000000;stroke-width:0.8;" x="591.545455" xlink:href="#mec87a82c63" y="121.270213"/>
      </g>
     </g>
     <g id="text_23">
      <!-- 0.950 -->
      <g transform="translate(555.91733 125.069432)scale(0.1 -0.1)">
       <use xlink:href="#DejaVuSans-48"/>
       <use x="63.623047" xlink:href="#DejaVuSans-46"/>
       <use x="95.410156" xlink:href="#DejaVuSans-57"/>
       <use x="159.033203" xlink:href="#DejaVuSans-53"/>
       <use x="222.65625" xlink:href="#DejaVuSans-48"/>
      </g>
     </g>
    </g>
    <g id="ytick_11">
     <g id="line2d_24">
      <g>
       <use style="stroke:#000000;stroke-width:0.8;" x="591.545455" xlink:href="#mec87a82c63" y="88.412379"/>
      </g>
     </g>
     <g id="text_24">
      <!-- 0.975 -->
      <g transform="translate(555.91733 92.211598)scale(0.1 -0.1)">
       <use xlink:href="#DejaVuSans-48"/>
       <use x="63.623047" xlink:href="#DejaVuSans-46"/>
       <use x="95.410156" xlink:href="#DejaVuSans-57"/>
       <use x="159.033203" xlink:href="#DejaVuSans-55"/>
       <use x="222.65625" xlink:href="#DejaVuSans-53"/>
      </g>
     </g>
    </g>
    <g id="ytick_12">
     <g id="line2d_25">
      <g>
       <use style="stroke:#000000;stroke-width:0.8;" x="591.545455" xlink:href="#mec87a82c63" y="55.554545"/>
      </g>
     </g>
     <g id="text_25">
      <!-- 1.000 -->
      <g transform="translate(555.91733 59.353764)scale(0.1 -0.1)">
       <use xlink:href="#DejaVuSans-49"/>
       <use x="63.623047" xlink:href="#DejaVuSans-46"/>
       <use x="95.410156" xlink:href="#DejaVuSans-48"/>
       <use x="159.033203" xlink:href="#DejaVuSans-48"/>
       <use x="222.65625" xlink:href="#DejaVuSans-48"/>
      </g>
     </g>
    </g>
   </g>
   <g id="line2d_26">
    <path clip-path="url(#p100e5fed71)" d="M 608.838843 231.672534 
L 610.22787 252.701547 
L 611.616897 236.929787 
L 613.005925 239.558414 
L 614.394952 244.815667 
L 615.783979 264.530368 
L 617.173006 271.101934 
L 619.95106 278.987814 
L 621.340088 289.502321 
L 622.729115 302.645455 
L 624.118142 276.359188 
L 625.507169 302.645455 
L 626.896196 281.616441 
L 628.285224 267.158994 
L 629.674251 255.330174 
L 631.063278 215.900774 
L 632.452305 215.900774 
L 633.841332 177.785687 
L 635.230359 164.642553 
L 636.619387 160.699613 
L 638.008414 150.185106 
L 639.397441 144.927853 
L 640.786468 134.413346 
L 642.175495 135.72766 
L 643.564523 131.78472 
L 644.95355 121.270213 
L 646.342577 137.041973 
L 647.731604 130.470406 
L 649.120631 113.384333 
L 650.509658 105.498453 
L 651.898686 118.641586 
L 653.287713 106.812766 
L 654.67674 105.498453 
L 656.065767 97.612573 
L 657.454794 104.184139 
L 658.843822 118.641586 
L 660.232849 96.298259 
L 661.621876 105.498453 
L 663.010903 100.241199 
L 665.788957 84.469439 
L 667.177985 102.869826 
L 668.567012 88.412379 
L 669.956039 84.469439 
L 671.345066 104.184139 
L 672.734093 100.241199 
L 674.123121 81.840812 
L 675.512148 92.355319 
L 676.901175 79.212186 
L 678.290202 98.926886 
L 679.679229 84.469439 
L 681.068256 87.098066 
L 682.457284 81.840812 
L 683.846311 97.612573 
L 685.235338 85.783752 
L 686.624365 87.098066 
L 688.013392 94.983946 
L 689.40242 72.640619 
L 690.791447 71.326306 
L 692.180474 76.583559 
L 694.958528 76.583559 
L 696.347556 84.469439 
L 697.736583 76.583559 
L 699.12561 76.583559 
L 700.514637 77.897872 
L 701.903664 73.954932 
L 703.292691 68.697679 
L 704.681719 73.954932 
L 706.070746 67.383366 
L 707.459773 83.155126 
L 708.8488 63.440426 
L 710.237827 83.155126 
L 711.626855 63.440426 
L 713.015882 63.440426 
L 714.404909 71.326306 
L 715.793936 80.526499 
L 717.182963 64.754739 
L 718.57199 70.011992 
L 719.961018 71.326306 
L 721.350045 66.069052 
L 722.739072 62.126112 
L 724.128099 76.583559 
L 725.517126 63.440426 
L 726.906154 73.954932 
L 728.295181 66.069052 
L 729.684208 68.697679 
L 731.073235 59.497485 
L 732.462262 72.640619 
L 733.851289 68.697679 
L 735.240317 66.069052 
L 736.629344 66.069052 
L 738.018371 60.811799 
L 739.407398 73.954932 
L 740.796425 71.326306 
L 742.185453 60.811799 
L 743.57448 75.269246 
L 744.963507 66.069052 
L 746.352534 68.697679 
L 747.741561 60.811799 
L 749.130588 73.954932 
L 750.519616 67.383366 
L 751.908643 66.069052 
L 753.29767 66.069052 
L 754.686697 63.440426 
L 756.075724 56.868859 
L 758.853779 64.754739 
L 760.242806 63.440426 
L 761.631833 63.440426 
L 763.02086 60.811799 
L 764.409887 63.440426 
L 765.798915 67.383366 
L 767.187942 64.754739 
L 768.576969 64.754739 
L 769.965996 63.440426 
L 771.355023 58.183172 
L 772.744051 60.811799 
L 774.133078 66.069052 
L 775.522105 60.811799 
L 776.911132 70.011992 
L 778.300159 66.069052 
L 779.689186 63.440426 
L 781.078214 63.440426 
L 782.467241 71.326306 
L 783.856268 63.440426 
L 785.245295 60.811799 
L 786.634322 60.811799 
L 788.02335 62.126112 
L 789.412377 58.183172 
L 790.801404 63.440426 
L 792.190431 58.183172 
L 793.579458 60.811799 
L 794.968486 64.754739 
L 796.357513 63.440426 
L 797.74654 58.183172 
L 800.524594 63.440426 
L 801.913621 60.811799 
L 803.302649 66.069052 
L 804.691676 60.811799 
L 806.080703 66.069052 
L 807.46973 60.811799 
L 808.858757 63.440426 
L 810.247785 72.640619 
L 811.636812 59.497485 
L 813.025839 60.811799 
L 814.414866 58.183172 
L 815.803893 64.754739 
L 817.19292 60.811799 
L 818.581948 60.811799 
L 819.970975 66.069052 
L 821.360002 58.183172 
L 822.749029 63.440426 
L 825.527084 58.183172 
L 829.694165 66.069052 
L 832.472219 60.811799 
L 833.861247 68.697679 
L 835.250274 68.697679 
L 836.639301 71.326306 
L 839.417355 66.069052 
L 840.806383 60.811799 
L 842.19541 68.697679 
L 843.584437 60.811799 
L 844.973464 62.126112 
L 846.362491 58.183172 
L 847.751518 63.440426 
L 849.140546 67.383366 
L 851.9186 67.383366 
L 853.307627 63.440426 
L 854.696654 63.440426 
L 856.085682 60.811799 
L 857.474709 63.440426 
L 858.863736 63.440426 
L 860.252763 64.754739 
L 861.64179 60.811799 
L 863.030817 58.183172 
L 864.419845 60.811799 
L 865.808872 71.326306 
L 867.197899 62.126112 
L 869.975953 64.754739 
L 871.364981 60.811799 
L 872.754008 60.811799 
L 874.143035 62.126112 
L 875.532062 60.811799 
L 876.921089 60.811799 
L 878.310116 58.183172 
L 879.699144 59.497485 
L 881.088171 62.126112 
L 882.477198 56.868859 
L 883.866225 58.183172 
L 885.255252 62.126112 
L 886.64428 60.811799 
L 888.033307 55.554545 
L 889.422334 63.440426 
L 890.811361 63.440426 
L 892.200388 60.811799 
L 893.589416 62.126112 
L 894.978443 59.497485 
L 896.36747 60.811799 
L 897.756497 55.554545 
L 899.145524 62.126112 
L 900.534551 59.497485 
L 901.923579 71.326306 
L 903.312606 58.183172 
L 904.701633 58.183172 
L 906.09066 60.811799 
L 907.479687 60.811799 
L 908.868715 59.497485 
L 910.257742 63.440426 
L 911.646769 56.868859 
L 913.035796 60.811799 
L 914.424823 60.811799 
L 915.81385 56.868859 
L 917.202878 55.554545 
L 918.591905 58.183172 
L 919.980932 56.868859 
L 921.369959 59.497485 
L 922.758986 58.183172 
L 924.148014 55.554545 
L 925.537041 56.868859 
L 926.926068 63.440426 
L 928.315095 59.497485 
L 929.704122 66.069052 
L 931.093149 59.497485 
L 932.482177 58.183172 
L 935.260231 63.440426 
L 936.649258 60.811799 
L 938.038285 62.126112 
L 939.427313 55.554545 
L 940.81634 58.183172 
L 942.205367 58.183172 
L 943.594394 59.497485 
L 944.983421 56.868859 
L 946.372448 56.868859 
L 947.761476 59.497485 
L 949.150503 60.811799 
L 950.53953 58.183172 
L 951.928557 58.183172 
L 953.317584 63.440426 
L 954.706612 60.811799 
L 954.706612 60.811799 
" style="fill:none;stroke:#ff0000;stroke-linecap:square;stroke-width:1.5;"/>
   </g>
   <g id="patch_8">
    <path d="M 591.545455 315 
L 591.545455 43.2 
" style="fill:none;stroke:#000000;stroke-linecap:square;stroke-linejoin:miter;stroke-width:0.8;"/>
   </g>
   <g id="patch_9">
    <path d="M 972 315 
L 972 43.2 
" style="fill:none;stroke:#000000;stroke-linecap:square;stroke-linejoin:miter;stroke-width:0.8;"/>
   </g>
   <g id="patch_10">
    <path d="M 591.545455 315 
L 972 315 
" style="fill:none;stroke:#000000;stroke-linecap:square;stroke-linejoin:miter;stroke-width:0.8;"/>
   </g>
   <g id="patch_11">
    <path d="M 591.545455 43.2 
L 972 43.2 
" style="fill:none;stroke:#000000;stroke-linecap:square;stroke-linejoin:miter;stroke-width:0.8;"/>
   </g>
   <g id="text_26">
    <!-- class_acc -->
    <defs>
     <path d="M 48.78125 52.59375 
L 48.78125 44.1875 
Q 44.96875 46.296875 41.140625 47.34375 
Q 37.3125 48.390625 33.40625 48.390625 
Q 24.65625 48.390625 19.8125 42.84375 
Q 14.984375 37.3125 14.984375 27.296875 
Q 14.984375 17.28125 19.8125 11.734375 
Q 24.65625 6.203125 33.40625 6.203125 
Q 37.3125 6.203125 41.140625 7.25 
Q 44.96875 8.296875 48.78125 10.40625 
L 48.78125 2.09375 
Q 45.015625 0.34375 40.984375 -0.53125 
Q 36.96875 -1.421875 32.421875 -1.421875 
Q 20.0625 -1.421875 12.78125 6.34375 
Q 5.515625 14.109375 5.515625 27.296875 
Q 5.515625 40.671875 12.859375 48.328125 
Q 20.21875 56 33.015625 56 
Q 37.15625 56 41.109375 55.140625 
Q 45.0625 54.296875 48.78125 52.59375 
z
" id="DejaVuSans-99"/>
    </defs>
    <g transform="translate(753.603665 37.2)scale(0.12 -0.12)">
     <use xlink:href="#DejaVuSans-99"/>
     <use x="54.980469" xlink:href="#DejaVuSans-108"/>
     <use x="82.763672" xlink:href="#DejaVuSans-97"/>
     <use x="144.042969" xlink:href="#DejaVuSans-115"/>
     <use x="196.142578" xlink:href="#DejaVuSans-115"/>
     <use x="248.242188" xlink:href="#DejaVuSans-95"/>
     <use x="298.242188" xlink:href="#DejaVuSans-97"/>
     <use x="359.521484" xlink:href="#DejaVuSans-99"/>
     <use x="414.501953" xlink:href="#DejaVuSans-99"/>
    </g>
   </g>
  </g>
 </g>
 <defs>
  <clipPath id="p445130645b">
   <rect height="271.8" width="380.454545" x="135" y="43.2"/>
  </clipPath>
  <clipPath id="p100e5fed71">
   <rect height="271.8" width="380.454545" x="591.545455" y="43.2"/>
  </clipPath>
 </defs>
</svg>
