<?xml version="1.0" encoding="utf-8" standalone="no"?>
<!DOCTYPE svg PUBLIC "-//W3C//DTD SVG 1.1//EN"
  "http://www.w3.org/Graphics/SVG/1.1/DTD/svg11.dtd">
<!-- Created with matplotlib (https://matplotlib.org/) -->
<svg height="360pt" version="1.1" viewBox="0 0 1080 360" width="1080pt" xmlns="http://www.w3.org/2000/svg" xmlns:xlink="http://www.w3.org/1999/xlink">
 <defs>
  <style type="text/css">
*{stroke-linecap:butt;stroke-linejoin:round;}
  </style>
 </defs>
 <g id="figure_1">
  <g id="patch_1">
   <path d="M 0 360 
L 1080 360 
L 1080 0 
L 0 0 
z
" style="fill:#ffffff;"/>
  </g>
  <g id="axes_1">
   <g id="patch_2">
    <path d="M 135 315 
L 515.454545 315 
L 515.454545 43.2 
L 135 43.2 
z
" style="fill:#ffffff;"/>
   </g>
   <g id="matplotlib.axis_1">
    <g id="xtick_1">
     <g id="line2d_1">
      <defs>
       <path d="M 0 0 
L 0 3.5 
" id="m812684a2a1" style="stroke:#000000;stroke-width:0.8;"/>
      </defs>
      <g>
       <use style="stroke:#000000;stroke-width:0.8;" x="152.293388" xlink:href="#m812684a2a1" y="315"/>
      </g>
     </g>
     <g id="text_1">
      <!-- 0 -->
      <defs>
       <path d="M 31.78125 66.40625 
Q 24.171875 66.40625 20.328125 58.90625 
Q 16.5 51.421875 16.5 36.375 
Q 16.5 21.390625 20.328125 13.890625 
Q 24.171875 6.390625 31.78125 6.390625 
Q 39.453125 6.390625 43.28125 13.890625 
Q 47.125 21.390625 47.125 36.375 
Q 47.125 51.421875 43.28125 58.90625 
Q 39.453125 66.40625 31.78125 66.40625 
z
M 31.78125 74.21875 
Q 44.046875 74.21875 50.515625 64.515625 
Q 56.984375 54.828125 56.984375 36.375 
Q 56.984375 17.96875 50.515625 8.265625 
Q 44.046875 -1.421875 31.78125 -1.421875 
Q 19.53125 -1.421875 13.0625 8.265625 
Q 6.59375 17.96875 6.59375 36.375 
Q 6.59375 54.828125 13.0625 64.515625 
Q 19.53125 74.21875 31.78125 74.21875 
z
" id="DejaVuSans-48"/>
      </defs>
      <g transform="translate(149.112138 329.598437)scale(0.1 -0.1)">
       <use xlink:href="#DejaVuSans-48"/>
      </g>
     </g>
    </g>
    <g id="xtick_2">
     <g id="line2d_2">
      <g>
       <use style="stroke:#000000;stroke-width:0.8;" x="221.744748" xlink:href="#m812684a2a1" y="315"/>
      </g>
     </g>
     <g id="text_2">
      <!-- 50 -->
      <defs>
       <path d="M 10.796875 72.90625 
L 49.515625 72.90625 
L 49.515625 64.59375 
L 19.828125 64.59375 
L 19.828125 46.734375 
Q 21.96875 47.46875 24.109375 47.828125 
Q 26.265625 48.1875 28.421875 48.1875 
Q 40.625 48.1875 47.75 41.5 
Q 54.890625 34.8125 54.890625 23.390625 
Q 54.890625 11.625 47.5625 5.09375 
Q 40.234375 -1.421875 26.90625 -1.421875 
Q 22.3125 -1.421875 17.546875 -0.640625 
Q 12.796875 0.140625 7.71875 1.703125 
L 7.71875 11.625 
Q 12.109375 9.234375 16.796875 8.0625 
Q 21.484375 6.890625 26.703125 6.890625 
Q 35.15625 6.890625 40.078125 11.328125 
Q 45.015625 15.765625 45.015625 23.390625 
Q 45.015625 31 40.078125 35.4375 
Q 35.15625 39.890625 26.703125 39.890625 
Q 22.75 39.890625 18.8125 39.015625 
Q 14.890625 38.140625 10.796875 36.28125 
z
" id="DejaVuSans-53"/>
      </defs>
      <g transform="translate(215.382248 329.598437)scale(0.1 -0.1)">
       <use xlink:href="#DejaVuSans-53"/>
       <use x="63.623047" xlink:href="#DejaVuSans-48"/>
      </g>
     </g>
    </g>
    <g id="xtick_3">
     <g id="line2d_3">
      <g>
       <use style="stroke:#000000;stroke-width:0.8;" x="291.196107" xlink:href="#m812684a2a1" y="315"/>
      </g>
     </g>
     <g id="text_3">
      <!-- 100 -->
      <defs>
       <path d="M 12.40625 8.296875 
L 28.515625 8.296875 
L 28.515625 63.921875 
L 10.984375 60.40625 
L 10.984375 69.390625 
L 28.421875 72.90625 
L 38.28125 72.90625 
L 38.28125 8.296875 
L 54.390625 8.296875 
L 54.390625 0 
L 12.40625 0 
z
" id="DejaVuSans-49"/>
      </defs>
      <g transform="translate(281.652357 329.598437)scale(0.1 -0.1)">
       <use xlink:href="#DejaVuSans-49"/>
       <use x="63.623047" xlink:href="#DejaVuSans-48"/>
       <use x="127.246094" xlink:href="#DejaVuSans-48"/>
      </g>
     </g>
    </g>
    <g id="xtick_4">
     <g id="line2d_4">
      <g>
       <use style="stroke:#000000;stroke-width:0.8;" x="360.647466" xlink:href="#m812684a2a1" y="315"/>
      </g>
     </g>
     <g id="text_4">
      <!-- 150 -->
      <g transform="translate(351.103716 329.598437)scale(0.1 -0.1)">
       <use xlink:href="#DejaVuSans-49"/>
       <use x="63.623047" xlink:href="#DejaVuSans-53"/>
       <use x="127.246094" xlink:href="#DejaVuSans-48"/>
      </g>
     </g>
    </g>
    <g id="xtick_5">
     <g id="line2d_5">
      <g>
       <use style="stroke:#000000;stroke-width:0.8;" x="430.098825" xlink:href="#m812684a2a1" y="315"/>
      </g>
     </g>
     <g id="text_5">
      <!-- 200 -->
      <defs>
       <path d="M 19.1875 8.296875 
L 53.609375 8.296875 
L 53.609375 0 
L 7.328125 0 
L 7.328125 8.296875 
Q 12.9375 14.109375 22.625 23.890625 
Q 32.328125 33.6875 34.8125 36.53125 
Q 39.546875 41.84375 41.421875 45.53125 
Q 43.3125 49.21875 43.3125 52.78125 
Q 43.3125 58.59375 39.234375 62.25 
Q 35.15625 65.921875 28.609375 65.921875 
Q 23.96875 65.921875 18.8125 64.3125 
Q 13.671875 62.703125 7.8125 59.421875 
L 7.8125 69.390625 
Q 13.765625 71.78125 18.9375 73 
Q 24.125 74.21875 28.421875 74.21875 
Q 39.75 74.21875 46.484375 68.546875 
Q 53.21875 62.890625 53.21875 53.421875 
Q 53.21875 48.921875 51.53125 44.890625 
Q 49.859375 40.875 45.40625 35.40625 
Q 44.1875 33.984375 37.640625 27.21875 
Q 31.109375 20.453125 19.1875 8.296875 
z
" id="DejaVuSans-50"/>
      </defs>
      <g transform="translate(420.555075 329.598437)scale(0.1 -0.1)">
       <use xlink:href="#DejaVuSans-50"/>
       <use x="63.623047" xlink:href="#DejaVuSans-48"/>
       <use x="127.246094" xlink:href="#DejaVuSans-48"/>
      </g>
     </g>
    </g>
    <g id="xtick_6">
     <g id="line2d_6">
      <g>
       <use style="stroke:#000000;stroke-width:0.8;" x="499.550184" xlink:href="#m812684a2a1" y="315"/>
      </g>
     </g>
     <g id="text_6">
      <!-- 250 -->
      <g transform="translate(490.006434 329.598437)scale(0.1 -0.1)">
       <use xlink:href="#DejaVuSans-50"/>
       <use x="63.623047" xlink:href="#DejaVuSans-53"/>
       <use x="127.246094" xlink:href="#DejaVuSans-48"/>
      </g>
     </g>
    </g>
   </g>
   <g id="matplotlib.axis_2">
    <g id="ytick_1">
     <g id="line2d_7">
      <defs>
       <path d="M 0 0 
L -3.5 0 
" id="m58eabe32cc" style="stroke:#000000;stroke-width:0.8;"/>
      </defs>
      <g>
       <use style="stroke:#000000;stroke-width:0.8;" x="135" xlink:href="#m58eabe32cc" y="307.644404"/>
      </g>
     </g>
     <g id="text_7">
      <!-- 0.10 -->
      <defs>
       <path d="M 10.6875 12.40625 
L 21 12.40625 
L 21 0 
L 10.6875 0 
z
" id="DejaVuSans-46"/>
      </defs>
      <g transform="translate(105.734375 311.443622)scale(0.1 -0.1)">
       <use xlink:href="#DejaVuSans-48"/>
       <use x="63.623047" xlink:href="#DejaVuSans-46"/>
       <use x="95.410156" xlink:href="#DejaVuSans-49"/>
       <use x="159.033203" xlink:href="#DejaVuSans-48"/>
      </g>
     </g>
    </g>
    <g id="ytick_2">
     <g id="line2d_8">
      <g>
       <use style="stroke:#000000;stroke-width:0.8;" x="135" xlink:href="#m58eabe32cc" y="271.937625"/>
      </g>
     </g>
     <g id="text_8">
      <!-- 0.15 -->
      <g transform="translate(105.734375 275.736844)scale(0.1 -0.1)">
       <use xlink:href="#DejaVuSans-48"/>
       <use x="63.623047" xlink:href="#DejaVuSans-46"/>
       <use x="95.410156" xlink:href="#DejaVuSans-49"/>
       <use x="159.033203" xlink:href="#DejaVuSans-53"/>
      </g>
     </g>
    </g>
    <g id="ytick_3">
     <g id="line2d_9">
      <g>
       <use style="stroke:#000000;stroke-width:0.8;" x="135" xlink:href="#m58eabe32cc" y="236.230846"/>
      </g>
     </g>
     <g id="text_9">
      <!-- 0.20 -->
      <g transform="translate(105.734375 240.030065)scale(0.1 -0.1)">
       <use xlink:href="#DejaVuSans-48"/>
       <use x="63.623047" xlink:href="#DejaVuSans-46"/>
       <use x="95.410156" xlink:href="#DejaVuSans-50"/>
       <use x="159.033203" xlink:href="#DejaVuSans-48"/>
      </g>
     </g>
    </g>
    <g id="ytick_4">
     <g id="line2d_10">
      <g>
       <use style="stroke:#000000;stroke-width:0.8;" x="135" xlink:href="#m58eabe32cc" y="200.524067"/>
      </g>
     </g>
     <g id="text_10">
      <!-- 0.25 -->
      <g transform="translate(105.734375 204.323286)scale(0.1 -0.1)">
       <use xlink:href="#DejaVuSans-48"/>
       <use x="63.623047" xlink:href="#DejaVuSans-46"/>
       <use x="95.410156" xlink:href="#DejaVuSans-50"/>
       <use x="159.033203" xlink:href="#DejaVuSans-53"/>
      </g>
     </g>
    </g>
    <g id="ytick_5">
     <g id="line2d_11">
      <g>
       <use style="stroke:#000000;stroke-width:0.8;" x="135" xlink:href="#m58eabe32cc" y="164.817288"/>
      </g>
     </g>
     <g id="text_11">
      <!-- 0.30 -->
      <defs>
       <path d="M 40.578125 39.3125 
Q 47.65625 37.796875 51.625 33 
Q 55.609375 28.21875 55.609375 21.1875 
Q 55.609375 10.40625 48.1875 4.484375 
Q 40.765625 -1.421875 27.09375 -1.421875 
Q 22.515625 -1.421875 17.65625 -0.515625 
Q 12.796875 0.390625 7.625 2.203125 
L 7.625 11.71875 
Q 11.71875 9.328125 16.59375 8.109375 
Q 21.484375 6.890625 26.8125 6.890625 
Q 36.078125 6.890625 40.9375 10.546875 
Q 45.796875 14.203125 45.796875 21.1875 
Q 45.796875 27.640625 41.28125 31.265625 
Q 36.765625 34.90625 28.71875 34.90625 
L 20.21875 34.90625 
L 20.21875 43.015625 
L 29.109375 43.015625 
Q 36.375 43.015625 40.234375 45.921875 
Q 44.09375 48.828125 44.09375 54.296875 
Q 44.09375 59.90625 40.109375 62.90625 
Q 36.140625 65.921875 28.71875 65.921875 
Q 24.65625 65.921875 20.015625 65.03125 
Q 15.375 64.15625 9.8125 62.3125 
L 9.8125 71.09375 
Q 15.4375 72.65625 20.34375 73.4375 
Q 25.25 74.21875 29.59375 74.21875 
Q 40.828125 74.21875 47.359375 69.109375 
Q 53.90625 64.015625 53.90625 55.328125 
Q 53.90625 49.265625 50.4375 45.09375 
Q 46.96875 40.921875 40.578125 39.3125 
z
" id="DejaVuSans-51"/>
      </defs>
      <g transform="translate(105.734375 168.616507)scale(0.1 -0.1)">
       <use xlink:href="#DejaVuSans-48"/>
       <use x="63.623047" xlink:href="#DejaVuSans-46"/>
       <use x="95.410156" xlink:href="#DejaVuSans-51"/>
       <use x="159.033203" xlink:href="#DejaVuSans-48"/>
      </g>
     </g>
    </g>
    <g id="ytick_6">
     <g id="line2d_12">
      <g>
       <use style="stroke:#000000;stroke-width:0.8;" x="135" xlink:href="#m58eabe32cc" y="129.11051"/>
      </g>
     </g>
     <g id="text_12">
      <!-- 0.35 -->
      <g transform="translate(105.734375 132.909728)scale(0.1 -0.1)">
       <use xlink:href="#DejaVuSans-48"/>
       <use x="63.623047" xlink:href="#DejaVuSans-46"/>
       <use x="95.410156" xlink:href="#DejaVuSans-51"/>
       <use x="159.033203" xlink:href="#DejaVuSans-53"/>
      </g>
     </g>
    </g>
    <g id="ytick_7">
     <g id="line2d_13">
      <g>
       <use style="stroke:#000000;stroke-width:0.8;" x="135" xlink:href="#m58eabe32cc" y="93.403731"/>
      </g>
     </g>
     <g id="text_13">
      <!-- 0.40 -->
      <defs>
       <path d="M 37.796875 64.3125 
L 12.890625 25.390625 
L 37.796875 25.390625 
z
M 35.203125 72.90625 
L 47.609375 72.90625 
L 47.609375 25.390625 
L 58.015625 25.390625 
L 58.015625 17.1875 
L 47.609375 17.1875 
L 47.609375 0 
L 37.796875 0 
L 37.796875 17.1875 
L 4.890625 17.1875 
L 4.890625 26.703125 
z
" id="DejaVuSans-52"/>
      </defs>
      <g transform="translate(105.734375 97.20295)scale(0.1 -0.1)">
       <use xlink:href="#DejaVuSans-48"/>
       <use x="63.623047" xlink:href="#DejaVuSans-46"/>
       <use x="95.410156" xlink:href="#DejaVuSans-52"/>
       <use x="159.033203" xlink:href="#DejaVuSans-48"/>
      </g>
     </g>
    </g>
    <g id="ytick_8">
     <g id="line2d_14">
      <g>
       <use style="stroke:#000000;stroke-width:0.8;" x="135" xlink:href="#m58eabe32cc" y="57.696952"/>
      </g>
     </g>
     <g id="text_14">
      <!-- 0.45 -->
      <g transform="translate(105.734375 61.496171)scale(0.1 -0.1)">
       <use xlink:href="#DejaVuSans-48"/>
       <use x="63.623047" xlink:href="#DejaVuSans-46"/>
       <use x="95.410156" xlink:href="#DejaVuSans-52"/>
       <use x="159.033203" xlink:href="#DejaVuSans-53"/>
      </g>
     </g>
    </g>
   </g>
   <g id="line2d_15">
    <path clip-path="url(#pd6100aa1c4)" d="M 152.293388 202.666474 
L 153.682416 217.663321 
L 155.071443 207.665423 
L 156.46047 229.08949 
L 157.849497 295.504099 
L 159.238524 302.645455 
L 160.627552 300.503048 
L 162.016579 292.647556 
L 163.405606 279.078981 
L 164.794633 299.074777 
L 166.18366 271.223489 
L 167.572687 274.794167 
L 168.961715 298.360641 
L 170.350742 296.93237 
L 171.739769 301.217183 
L 174.517823 274.080032 
L 175.906851 255.512507 
L 177.295878 243.372202 
L 178.684905 234.088439 
L 180.073932 228.375355 
L 181.462959 225.518812 
L 182.851986 221.233999 
L 184.241014 218.377457 
L 185.630041 221.233999 
L 187.019068 212.664372 
L 188.408095 211.950236 
L 189.797122 204.094745 
L 191.18615 191.95444 
L 192.575177 191.95444 
L 193.964204 176.957593 
L 195.353231 189.097898 
L 196.742258 174.815187 
L 198.131285 164.817288 
L 199.520313 161.960746 
L 200.90934 167.673831 
L 202.298367 166.959695 
L 203.687394 164.817288 
L 205.076421 146.963899 
L 206.465449 153.391119 
L 207.854476 131.252916 
L 209.243503 149.106306 
L 210.63253 127.682239 
L 212.021557 135.53773 
L 213.410584 134.823594 
L 214.799612 133.395323 
L 216.188639 124.825696 
L 217.577666 118.398476 
L 218.966693 114.113663 
L 220.35572 114.113663 
L 221.744748 112.685391 
L 223.133775 107.686442 
L 224.522802 113.399527 
L 225.911829 96.260273 
L 227.300856 103.401629 
L 228.689884 90.547189 
L 230.078911 113.399527 
L 231.467938 86.262375 
L 232.856965 79.121019 
L 234.245992 91.261324 
L 235.635019 89.118917 
L 237.024047 81.263426 
L 238.413074 101.973358 
L 239.802101 78.406884 
L 241.191128 71.265528 
L 242.580155 79.835155 
L 243.969183 90.547189 
L 245.35821 91.97546 
L 246.747237 91.97546 
L 248.136264 94.117867 
L 249.525291 80.549291 
L 250.914318 106.258171 
L 252.303346 85.54824 
L 253.692373 79.835155 
L 255.0814 82.691697 
L 256.470427 74.836206 
L 257.859454 91.261324 
L 259.248482 86.262375 
L 260.637509 55.554545 
L 262.026536 64.124172 
L 263.415563 76.978613 
L 264.80459 81.977562 
L 266.193617 101.259222 
L 267.582645 81.263426 
L 268.971672 83.405833 
L 270.360699 86.262375 
L 271.749726 91.261324 
L 273.138753 84.834104 
L 274.527781 89.118917 
L 275.916808 81.977562 
L 277.305835 100.545087 
L 278.694862 69.837257 
L 280.083889 96.260273 
L 281.472916 81.977562 
L 282.861944 76.264477 
L 284.250971 77.692748 
L 285.639998 71.265528 
L 287.029025 79.121019 
L 288.418052 75.550342 
L 289.80708 72.693799 
L 291.196107 93.403731 
L 292.585134 80.549291 
L 293.974161 69.837257 
L 295.363188 86.976511 
L 296.752215 72.693799 
L 298.141243 90.547189 
L 299.53027 71.979664 
L 300.919297 90.547189 
L 302.308324 91.97546 
L 303.697351 66.266579 
L 305.086379 89.118917 
L 306.475406 99.830951 
L 307.864433 90.547189 
L 309.25346 83.405833 
L 310.642487 85.54824 
L 312.031514 108.400578 
L 313.420542 84.834104 
L 314.809569 79.121019 
L 316.198596 107.686442 
L 317.587623 79.121019 
L 318.97665 96.260273 
L 320.365678 76.264477 
L 321.754705 86.976511 
L 323.143732 87.690646 
L 324.532759 77.692748 
L 325.921786 71.979664 
L 327.310814 69.837257 
L 328.699841 76.978613 
L 330.088868 59.839359 
L 331.477895 77.692748 
L 332.866922 72.693799 
L 334.255949 94.117867 
L 335.644977 69.837257 
L 337.034004 84.119968 
L 338.423031 62.695901 
L 339.812058 93.403731 
L 341.201085 84.119968 
L 342.590113 86.262375 
L 343.97914 80.549291 
L 345.368167 69.837257 
L 346.757194 77.692748 
L 348.146221 66.266579 
L 349.535248 89.118917 
L 350.924276 71.265528 
L 352.313303 87.690646 
L 353.70233 96.260273 
L 355.091357 82.691697 
L 356.480384 71.265528 
L 357.869412 81.263426 
L 359.258439 89.118917 
L 360.647466 74.836206 
L 362.036493 69.123121 
L 363.42552 73.407935 
L 364.814547 96.974409 
L 366.203575 69.837257 
L 367.592602 76.264477 
L 368.981629 96.260273 
L 370.370656 76.264477 
L 371.759683 91.261324 
L 373.148711 89.833053 
L 374.537738 101.973358 
L 375.926765 85.54824 
L 377.315792 76.264477 
L 378.704819 84.834104 
L 380.093846 79.121019 
L 381.482874 81.977562 
L 382.871901 86.976511 
L 384.260928 101.973358 
L 385.649955 74.12207 
L 387.038982 72.693799 
L 388.42801 64.838308 
L 389.817037 74.12207 
L 391.206064 77.692748 
L 392.595091 91.261324 
L 393.984118 69.123121 
L 395.373145 87.690646 
L 396.762173 84.834104 
L 398.1512 88.404782 
L 399.540227 83.405833 
L 400.929254 91.97546 
L 402.318281 99.116816 
L 403.707309 91.97546 
L 405.096336 101.259222 
L 406.485363 84.834104 
L 407.87439 93.403731 
L 409.263417 81.977562 
L 410.652444 82.691697 
L 412.041472 94.117867 
L 413.430499 79.121019 
L 414.819526 79.835155 
L 416.208553 89.118917 
L 417.59758 96.260273 
L 418.986608 81.263426 
L 420.375635 79.835155 
L 421.764662 106.972307 
L 423.153689 85.54824 
L 424.542716 99.116816 
L 425.931744 85.54824 
L 427.320771 97.688544 
L 428.709798 94.832002 
L 430.098825 92.689595 
L 431.487852 105.544036 
L 432.876879 92.689595 
L 434.265907 85.54824 
L 435.654934 79.835155 
L 437.043961 97.688544 
L 438.432988 76.264477 
L 439.822015 94.832002 
L 441.211043 93.403731 
L 442.60007 91.261324 
L 443.989097 100.545087 
L 445.378124 86.976511 
L 446.767151 90.547189 
L 448.156178 108.400578 
L 449.545206 86.262375 
L 450.934233 94.117867 
L 452.32326 92.689595 
L 453.712287 102.687493 
L 455.101314 84.119968 
L 457.879369 91.261324 
L 459.268396 96.260273 
L 460.657423 89.118917 
L 462.04645 108.400578 
L 463.435477 101.259222 
L 464.824505 95.546138 
L 466.213532 94.832002 
L 467.602559 101.259222 
L 468.991586 84.834104 
L 470.380613 85.54824 
L 471.769641 84.834104 
L 473.158668 89.118917 
L 474.547695 111.25712 
L 475.936722 93.403731 
L 477.325749 105.544036 
L 478.714776 110.542985 
L 480.103804 94.117867 
L 481.492831 104.8299 
L 482.881858 106.258171 
L 484.270885 114.113663 
L 485.659912 88.404782 
L 487.04894 94.117867 
L 488.437967 88.404782 
L 489.826994 106.972307 
L 491.216021 103.401629 
L 492.605048 114.113663 
L 493.994075 119.112612 
L 495.383103 101.973358 
L 496.77213 88.404782 
L 498.161157 101.973358 
L 498.161157 101.973358 
" style="fill:none;stroke:#ff0000;stroke-linecap:square;stroke-width:1.5;"/>
   </g>
   <g id="patch_3">
    <path d="M 135 315 
L 135 43.2 
" style="fill:none;stroke:#000000;stroke-linecap:square;stroke-linejoin:miter;stroke-width:0.8;"/>
   </g>
   <g id="patch_4">
    <path d="M 515.454545 315 
L 515.454545 43.2 
" style="fill:none;stroke:#000000;stroke-linecap:square;stroke-linejoin:miter;stroke-width:0.8;"/>
   </g>
   <g id="patch_5">
    <path d="M 135 315 
L 515.454545 315 
" style="fill:none;stroke:#000000;stroke-linecap:square;stroke-linejoin:miter;stroke-width:0.8;"/>
   </g>
   <g id="patch_6">
    <path d="M 135 43.2 
L 515.454545 43.2 
" style="fill:none;stroke:#000000;stroke-linecap:square;stroke-linejoin:miter;stroke-width:0.8;"/>
   </g>
   <g id="text_15">
    <!-- mean_overlapping_bboxes -->
    <defs>
     <path d="M 52 44.1875 
Q 55.375 50.25 60.0625 53.125 
Q 64.75 56 71.09375 56 
Q 79.640625 56 84.28125 50.015625 
Q 88.921875 44.046875 88.921875 33.015625 
L 88.921875 0 
L 79.890625 0 
L 79.890625 32.71875 
Q 79.890625 40.578125 77.09375 44.375 
Q 74.3125 48.1875 68.609375 48.1875 
Q 61.625 48.1875 57.5625 43.546875 
Q 53.515625 38.921875 53.515625 30.90625 
L 53.515625 0 
L 44.484375 0 
L 44.484375 32.71875 
Q 44.484375 40.625 41.703125 44.40625 
Q 38.921875 48.1875 33.109375 48.1875 
Q 26.21875 48.1875 22.15625 43.53125 
Q 18.109375 38.875 18.109375 30.90625 
L 18.109375 0 
L 9.078125 0 
L 9.078125 54.6875 
L 18.109375 54.6875 
L 18.109375 46.1875 
Q 21.1875 51.21875 25.484375 53.609375 
Q 29.78125 56 35.6875 56 
Q 41.65625 56 45.828125 52.96875 
Q 50 49.953125 52 44.1875 
z
" id="DejaVuSans-109"/>
     <path d="M 56.203125 29.59375 
L 56.203125 25.203125 
L 14.890625 25.203125 
Q 15.484375 15.921875 20.484375 11.0625 
Q 25.484375 6.203125 34.421875 6.203125 
Q 39.59375 6.203125 44.453125 7.46875 
Q 49.3125 8.734375 54.109375 11.28125 
L 54.109375 2.78125 
Q 49.265625 0.734375 44.1875 -0.34375 
Q 39.109375 -1.421875 33.890625 -1.421875 
Q 20.796875 -1.421875 13.15625 6.1875 
Q 5.515625 13.8125 5.515625 26.8125 
Q 5.515625 40.234375 12.765625 48.109375 
Q 20.015625 56 32.328125 56 
Q 43.359375 56 49.78125 48.890625 
Q 56.203125 41.796875 56.203125 29.59375 
z
M 47.21875 32.234375 
Q 47.125 39.59375 43.09375 43.984375 
Q 39.0625 48.390625 32.421875 48.390625 
Q 24.90625 48.390625 20.390625 44.140625 
Q 15.875 39.890625 15.1875 32.171875 
z
" id="DejaVuSans-101"/>
     <path d="M 34.28125 27.484375 
Q 23.390625 27.484375 19.1875 25 
Q 14.984375 22.515625 14.984375 16.5 
Q 14.984375 11.71875 18.140625 8.90625 
Q 21.296875 6.109375 26.703125 6.109375 
Q 34.1875 6.109375 38.703125 11.40625 
Q 43.21875 16.703125 43.21875 25.484375 
L 43.21875 27.484375 
z
M 52.203125 31.203125 
L 52.203125 0 
L 43.21875 0 
L 43.21875 8.296875 
Q 40.140625 3.328125 35.546875 0.953125 
Q 30.953125 -1.421875 24.3125 -1.421875 
Q 15.921875 -1.421875 10.953125 3.296875 
Q 6 8.015625 6 15.921875 
Q 6 25.140625 12.171875 29.828125 
Q 18.359375 34.515625 30.609375 34.515625 
L 43.21875 34.515625 
L 43.21875 35.40625 
Q 43.21875 41.609375 39.140625 45 
Q 35.0625 48.390625 27.6875 48.390625 
Q 23 48.390625 18.546875 47.265625 
Q 14.109375 46.140625 10.015625 43.890625 
L 10.015625 52.203125 
Q 14.9375 54.109375 19.578125 55.046875 
Q 24.21875 56 28.609375 56 
Q 40.484375 56 46.34375 49.84375 
Q 52.203125 43.703125 52.203125 31.203125 
z
" id="DejaVuSans-97"/>
     <path d="M 54.890625 33.015625 
L 54.890625 0 
L 45.90625 0 
L 45.90625 32.71875 
Q 45.90625 40.484375 42.875 44.328125 
Q 39.84375 48.1875 33.796875 48.1875 
Q 26.515625 48.1875 22.3125 43.546875 
Q 18.109375 38.921875 18.109375 30.90625 
L 18.109375 0 
L 9.078125 0 
L 9.078125 54.6875 
L 18.109375 54.6875 
L 18.109375 46.1875 
Q 21.34375 51.125 25.703125 53.5625 
Q 30.078125 56 35.796875 56 
Q 45.21875 56 50.046875 50.171875 
Q 54.890625 44.34375 54.890625 33.015625 
z
" id="DejaVuSans-110"/>
     <path d="M 50.984375 -16.609375 
L 50.984375 -23.578125 
L -0.984375 -23.578125 
L -0.984375 -16.609375 
z
" id="DejaVuSans-95"/>
     <path d="M 30.609375 48.390625 
Q 23.390625 48.390625 19.1875 42.75 
Q 14.984375 37.109375 14.984375 27.296875 
Q 14.984375 17.484375 19.15625 11.84375 
Q 23.34375 6.203125 30.609375 6.203125 
Q 37.796875 6.203125 41.984375 11.859375 
Q 46.1875 17.53125 46.1875 27.296875 
Q 46.1875 37.015625 41.984375 42.703125 
Q 37.796875 48.390625 30.609375 48.390625 
z
M 30.609375 56 
Q 42.328125 56 49.015625 48.375 
Q 55.71875 40.765625 55.71875 27.296875 
Q 55.71875 13.875 49.015625 6.21875 
Q 42.328125 -1.421875 30.609375 -1.421875 
Q 18.84375 -1.421875 12.171875 6.21875 
Q 5.515625 13.875 5.515625 27.296875 
Q 5.515625 40.765625 12.171875 48.375 
Q 18.84375 56 30.609375 56 
z
" id="DejaVuSans-111"/>
     <path d="M 2.984375 54.6875 
L 12.5 54.6875 
L 29.59375 8.796875 
L 46.6875 54.6875 
L 56.203125 54.6875 
L 35.6875 0 
L 23.484375 0 
z
" id="DejaVuSans-118"/>
     <path d="M 41.109375 46.296875 
Q 39.59375 47.171875 37.8125 47.578125 
Q 36.03125 48 33.890625 48 
Q 26.265625 48 22.1875 43.046875 
Q 18.109375 38.09375 18.109375 28.8125 
L 18.109375 0 
L 9.078125 0 
L 9.078125 54.6875 
L 18.109375 54.6875 
L 18.109375 46.1875 
Q 20.953125 51.171875 25.484375 53.578125 
Q 30.03125 56 36.53125 56 
Q 37.453125 56 38.578125 55.875 
Q 39.703125 55.765625 41.0625 55.515625 
z
" id="DejaVuSans-114"/>
     <path d="M 9.421875 75.984375 
L 18.40625 75.984375 
L 18.40625 0 
L 9.421875 0 
z
" id="DejaVuSans-108"/>
     <path d="M 18.109375 8.203125 
L 18.109375 -20.796875 
L 9.078125 -20.796875 
L 9.078125 54.6875 
L 18.109375 54.6875 
L 18.109375 46.390625 
Q 20.953125 51.265625 25.265625 53.625 
Q 29.59375 56 35.59375 56 
Q 45.5625 56 51.78125 48.09375 
Q 58.015625 40.1875 58.015625 27.296875 
Q 58.015625 14.40625 51.78125 6.484375 
Q 45.5625 -1.421875 35.59375 -1.421875 
Q 29.59375 -1.421875 25.265625 0.953125 
Q 20.953125 3.328125 18.109375 8.203125 
z
M 48.6875 27.296875 
Q 48.6875 37.203125 44.609375 42.84375 
Q 40.53125 48.484375 33.40625 48.484375 
Q 26.265625 48.484375 22.1875 42.84375 
Q 18.109375 37.203125 18.109375 27.296875 
Q 18.109375 17.390625 22.1875 11.75 
Q 26.265625 6.109375 33.40625 6.109375 
Q 40.53125 6.109375 44.609375 11.75 
Q 48.6875 17.390625 48.6875 27.296875 
z
" id="DejaVuSans-112"/>
     <path d="M 9.421875 54.6875 
L 18.40625 54.6875 
L 18.40625 0 
L 9.421875 0 
z
M 9.421875 75.984375 
L 18.40625 75.984375 
L 18.40625 64.59375 
L 9.421875 64.59375 
z
" id="DejaVuSans-105"/>
     <path d="M 45.40625 27.984375 
Q 45.40625 37.75 41.375 43.109375 
Q 37.359375 48.484375 30.078125 48.484375 
Q 22.859375 48.484375 18.828125 43.109375 
Q 14.796875 37.75 14.796875 27.984375 
Q 14.796875 18.265625 18.828125 12.890625 
Q 22.859375 7.515625 30.078125 7.515625 
Q 37.359375 7.515625 41.375 12.890625 
Q 45.40625 18.265625 45.40625 27.984375 
z
M 54.390625 6.78125 
Q 54.390625 -7.171875 48.1875 -13.984375 
Q 42 -20.796875 29.203125 -20.796875 
Q 24.46875 -20.796875 20.265625 -20.09375 
Q 16.0625 -19.390625 12.109375 -17.921875 
L 12.109375 -9.1875 
Q 16.0625 -11.328125 19.921875 -12.34375 
Q 23.78125 -13.375 27.78125 -13.375 
Q 36.625 -13.375 41.015625 -8.765625 
Q 45.40625 -4.15625 45.40625 5.171875 
L 45.40625 9.625 
Q 42.625 4.78125 38.28125 2.390625 
Q 33.9375 0 27.875 0 
Q 17.828125 0 11.671875 7.65625 
Q 5.515625 15.328125 5.515625 27.984375 
Q 5.515625 40.671875 11.671875 48.328125 
Q 17.828125 56 27.875 56 
Q 33.9375 56 38.28125 53.609375 
Q 42.625 51.21875 45.40625 46.390625 
L 45.40625 54.6875 
L 54.390625 54.6875 
z
" id="DejaVuSans-103"/>
     <path d="M 48.6875 27.296875 
Q 48.6875 37.203125 44.609375 42.84375 
Q 40.53125 48.484375 33.40625 48.484375 
Q 26.265625 48.484375 22.1875 42.84375 
Q 18.109375 37.203125 18.109375 27.296875 
Q 18.109375 17.390625 22.1875 11.75 
Q 26.265625 6.109375 33.40625 6.109375 
Q 40.53125 6.109375 44.609375 11.75 
Q 48.6875 17.390625 48.6875 27.296875 
z
M 18.109375 46.390625 
Q 20.953125 51.265625 25.265625 53.625 
Q 29.59375 56 35.59375 56 
Q 45.5625 56 51.78125 48.09375 
Q 58.015625 40.1875 58.015625 27.296875 
Q 58.015625 14.40625 51.78125 6.484375 
Q 45.5625 -1.421875 35.59375 -1.421875 
Q 29.59375 -1.421875 25.265625 0.953125 
Q 20.953125 3.328125 18.109375 8.203125 
L 18.109375 0 
L 9.078125 0 
L 9.078125 75.984375 
L 18.109375 75.984375 
z
" id="DejaVuSans-98"/>
     <path d="M 54.890625 54.6875 
L 35.109375 28.078125 
L 55.90625 0 
L 45.3125 0 
L 29.390625 21.484375 
L 13.484375 0 
L 2.875 0 
L 24.125 28.609375 
L 4.6875 54.6875 
L 15.28125 54.6875 
L 29.78125 35.203125 
L 44.28125 54.6875 
z
" id="DejaVuSans-120"/>
     <path d="M 44.28125 53.078125 
L 44.28125 44.578125 
Q 40.484375 46.53125 36.375 47.5 
Q 32.28125 48.484375 27.875 48.484375 
Q 21.1875 48.484375 17.84375 46.4375 
Q 14.5 44.390625 14.5 40.28125 
Q 14.5 37.15625 16.890625 35.375 
Q 19.28125 33.59375 26.515625 31.984375 
L 29.59375 31.296875 
Q 39.15625 29.25 43.1875 25.515625 
Q 47.21875 21.78125 47.21875 15.09375 
Q 47.21875 7.46875 41.1875 3.015625 
Q 35.15625 -1.421875 24.609375 -1.421875 
Q 20.21875 -1.421875 15.453125 -0.5625 
Q 10.6875 0.296875 5.421875 2 
L 5.421875 11.28125 
Q 10.40625 8.6875 15.234375 7.390625 
Q 20.0625 6.109375 24.8125 6.109375 
Q 31.15625 6.109375 34.5625 8.28125 
Q 37.984375 10.453125 37.984375 14.40625 
Q 37.984375 18.0625 35.515625 20.015625 
Q 33.0625 21.96875 24.703125 23.78125 
L 21.578125 24.515625 
Q 13.234375 26.265625 9.515625 29.90625 
Q 5.8125 33.546875 5.8125 39.890625 
Q 5.8125 47.609375 11.28125 51.796875 
Q 16.75 56 26.8125 56 
Q 31.78125 56 36.171875 55.265625 
Q 40.578125 54.546875 44.28125 53.078125 
z
" id="DejaVuSans-115"/>
    </defs>
    <g transform="translate(244.937898 37.2)scale(0.12 -0.12)">
     <use xlink:href="#DejaVuSans-109"/>
     <use x="97.412109" xlink:href="#DejaVuSans-101"/>
     <use x="158.935547" xlink:href="#DejaVuSans-97"/>
     <use x="220.214844" xlink:href="#DejaVuSans-110"/>
     <use x="283.59375" xlink:href="#DejaVuSans-95"/>
     <use x="333.59375" xlink:href="#DejaVuSans-111"/>
     <use x="394.775391" xlink:href="#DejaVuSans-118"/>
     <use x="453.955078" xlink:href="#DejaVuSans-101"/>
     <use x="515.478516" xlink:href="#DejaVuSans-114"/>
     <use x="556.591797" xlink:href="#DejaVuSans-108"/>
     <use x="584.375" xlink:href="#DejaVuSans-97"/>
     <use x="645.654297" xlink:href="#DejaVuSans-112"/>
     <use x="709.130859" xlink:href="#DejaVuSans-112"/>
     <use x="772.607422" xlink:href="#DejaVuSans-105"/>
     <use x="800.390625" xlink:href="#DejaVuSans-110"/>
     <use x="863.769531" xlink:href="#DejaVuSans-103"/>
     <use x="927.246094" xlink:href="#DejaVuSans-95"/>
     <use x="977.246094" xlink:href="#DejaVuSans-98"/>
     <use x="1040.722656" xlink:href="#DejaVuSans-98"/>
     <use x="1104.199219" xlink:href="#DejaVuSans-111"/>
     <use x="1165.333984" xlink:href="#DejaVuSans-120"/>
     <use x="1224.466797" xlink:href="#DejaVuSans-101"/>
     <use x="1285.990234" xlink:href="#DejaVuSans-115"/>
    </g>
   </g>
  </g>
  <g id="axes_2">
   <g id="patch_7">
    <path d="M 591.545455 315 
L 972 315 
L 972 43.2 
L 591.545455 43.2 
z
" style="fill:#ffffff;"/>
   </g>
   <g id="matplotlib.axis_3">
    <g id="xtick_7">
     <g id="line2d_16">
      <g>
       <use style="stroke:#000000;stroke-width:0.8;" x="608.838843" xlink:href="#m812684a2a1" y="315"/>
      </g>
     </g>
     <g id="text_16">
      <!-- 0 -->
      <g transform="translate(605.657593 329.598437)scale(0.1 -0.1)">
       <use xlink:href="#DejaVuSans-48"/>
      </g>
     </g>
    </g>
    <g id="xtick_8">
     <g id="line2d_17">
      <g>
       <use style="stroke:#000000;stroke-width:0.8;" x="678.290202" xlink:href="#m812684a2a1" y="315"/>
      </g>
     </g>
     <g id="text_17">
      <!-- 50 -->
      <g transform="translate(671.927702 329.598437)scale(0.1 -0.1)">
       <use xlink:href="#DejaVuSans-53"/>
       <use x="63.623047" xlink:href="#DejaVuSans-48"/>
      </g>
     </g>
    </g>
    <g id="xtick_9">
     <g id="line2d_18">
      <g>
       <use style="stroke:#000000;stroke-width:0.8;" x="747.741561" xlink:href="#m812684a2a1" y="315"/>
      </g>
     </g>
     <g id="text_18">
      <!-- 100 -->
      <g transform="translate(738.197811 329.598437)scale(0.1 -0.1)">
       <use xlink:href="#DejaVuSans-49"/>
       <use x="63.623047" xlink:href="#DejaVuSans-48"/>
       <use x="127.246094" xlink:href="#DejaVuSans-48"/>
      </g>
     </g>
    </g>
    <g id="xtick_10">
     <g id="line2d_19">
      <g>
       <use style="stroke:#000000;stroke-width:0.8;" x="817.19292" xlink:href="#m812684a2a1" y="315"/>
      </g>
     </g>
     <g id="text_19">
      <!-- 150 -->
      <g transform="translate(807.64917 329.598437)scale(0.1 -0.1)">
       <use xlink:href="#DejaVuSans-49"/>
       <use x="63.623047" xlink:href="#DejaVuSans-53"/>
       <use x="127.246094" xlink:href="#DejaVuSans-48"/>
      </g>
     </g>
    </g>
    <g id="xtick_11">
     <g id="line2d_20">
      <g>
       <use style="stroke:#000000;stroke-width:0.8;" x="886.64428" xlink:href="#m812684a2a1" y="315"/>
      </g>
     </g>
     <g id="text_20">
      <!-- 200 -->
      <g transform="translate(877.10053 329.598437)scale(0.1 -0.1)">
       <use xlink:href="#DejaVuSans-50"/>
       <use x="63.623047" xlink:href="#DejaVuSans-48"/>
       <use x="127.246094" xlink:href="#DejaVuSans-48"/>
      </g>
     </g>
    </g>
    <g id="xtick_12">
     <g id="line2d_21">
      <g>
       <use style="stroke:#000000;stroke-width:0.8;" x="956.095639" xlink:href="#m812684a2a1" y="315"/>
      </g>
     </g>
     <g id="text_21">
      <!-- 250 -->
      <g transform="translate(946.551889 329.598437)scale(0.1 -0.1)">
       <use xlink:href="#DejaVuSans-50"/>
       <use x="63.623047" xlink:href="#DejaVuSans-53"/>
       <use x="127.246094" xlink:href="#DejaVuSans-48"/>
      </g>
     </g>
    </g>
   </g>
   <g id="matplotlib.axis_4">
    <g id="ytick_9">
     <g id="line2d_22">
      <g>
       <use style="stroke:#000000;stroke-width:0.8;" x="591.545455" xlink:href="#m58eabe32cc" y="297.461729"/>
      </g>
     </g>
     <g id="text_22">
      <!-- 0.86 -->
      <defs>
       <path d="M 31.78125 34.625 
Q 24.75 34.625 20.71875 30.859375 
Q 16.703125 27.09375 16.703125 20.515625 
Q 16.703125 13.921875 20.71875 10.15625 
Q 24.75 6.390625 31.78125 6.390625 
Q 38.8125 6.390625 42.859375 10.171875 
Q 46.921875 13.96875 46.921875 20.515625 
Q 46.921875 27.09375 42.890625 30.859375 
Q 38.875 34.625 31.78125 34.625 
z
M 21.921875 38.8125 
Q 15.578125 40.375 12.03125 44.71875 
Q 8.5 49.078125 8.5 55.328125 
Q 8.5 64.0625 14.71875 69.140625 
Q 20.953125 74.21875 31.78125 74.21875 
Q 42.671875 74.21875 48.875 69.140625 
Q 55.078125 64.0625 55.078125 55.328125 
Q 55.078125 49.078125 51.53125 44.71875 
Q 48 40.375 41.703125 38.8125 
Q 48.828125 37.15625 52.796875 32.3125 
Q 56.78125 27.484375 56.78125 20.515625 
Q 56.78125 9.90625 50.3125 4.234375 
Q 43.84375 -1.421875 31.78125 -1.421875 
Q 19.734375 -1.421875 13.25 4.234375 
Q 6.78125 9.90625 6.78125 20.515625 
Q 6.78125 27.484375 10.78125 32.3125 
Q 14.796875 37.15625 21.921875 38.8125 
z
M 18.3125 54.390625 
Q 18.3125 48.734375 21.84375 45.5625 
Q 25.390625 42.390625 31.78125 42.390625 
Q 38.140625 42.390625 41.71875 45.5625 
Q 45.3125 48.734375 45.3125 54.390625 
Q 45.3125 60.0625 41.71875 63.234375 
Q 38.140625 66.40625 31.78125 66.40625 
Q 25.390625 66.40625 21.84375 63.234375 
Q 18.3125 60.0625 18.3125 54.390625 
z
" id="DejaVuSans-56"/>
       <path d="M 33.015625 40.375 
Q 26.375 40.375 22.484375 35.828125 
Q 18.609375 31.296875 18.609375 23.390625 
Q 18.609375 15.53125 22.484375 10.953125 
Q 26.375 6.390625 33.015625 6.390625 
Q 39.65625 6.390625 43.53125 10.953125 
Q 47.40625 15.53125 47.40625 23.390625 
Q 47.40625 31.296875 43.53125 35.828125 
Q 39.65625 40.375 33.015625 40.375 
z
M 52.59375 71.296875 
L 52.59375 62.3125 
Q 48.875 64.0625 45.09375 64.984375 
Q 41.3125 65.921875 37.59375 65.921875 
Q 27.828125 65.921875 22.671875 59.328125 
Q 17.53125 52.734375 16.796875 39.40625 
Q 19.671875 43.65625 24.015625 45.921875 
Q 28.375 48.1875 33.59375 48.1875 
Q 44.578125 48.1875 50.953125 41.515625 
Q 57.328125 34.859375 57.328125 23.390625 
Q 57.328125 12.15625 50.6875 5.359375 
Q 44.046875 -1.421875 33.015625 -1.421875 
Q 20.359375 -1.421875 13.671875 8.265625 
Q 6.984375 17.96875 6.984375 36.375 
Q 6.984375 53.65625 15.1875 63.9375 
Q 23.390625 74.21875 37.203125 74.21875 
Q 40.921875 74.21875 44.703125 73.484375 
Q 48.484375 72.75 52.59375 71.296875 
z
" id="DejaVuSans-54"/>
      </defs>
      <g transform="translate(562.27983 301.260948)scale(0.1 -0.1)">
       <use xlink:href="#DejaVuSans-48"/>
       <use x="63.623047" xlink:href="#DejaVuSans-46"/>
       <use x="95.410156" xlink:href="#DejaVuSans-56"/>
       <use x="159.033203" xlink:href="#DejaVuSans-54"/>
      </g>
     </g>
    </g>
    <g id="ytick_10">
     <g id="line2d_23">
      <g>
       <use style="stroke:#000000;stroke-width:0.8;" x="591.545455" xlink:href="#m58eabe32cc" y="262.90356"/>
      </g>
     </g>
     <g id="text_23">
      <!-- 0.88 -->
      <g transform="translate(562.27983 266.702779)scale(0.1 -0.1)">
       <use xlink:href="#DejaVuSans-48"/>
       <use x="63.623047" xlink:href="#DejaVuSans-46"/>
       <use x="95.410156" xlink:href="#DejaVuSans-56"/>
       <use x="159.033203" xlink:href="#DejaVuSans-56"/>
      </g>
     </g>
    </g>
    <g id="ytick_11">
     <g id="line2d_24">
      <g>
       <use style="stroke:#000000;stroke-width:0.8;" x="591.545455" xlink:href="#m58eabe32cc" y="228.345391"/>
      </g>
     </g>
     <g id="text_24">
      <!-- 0.90 -->
      <defs>
       <path d="M 10.984375 1.515625 
L 10.984375 10.5 
Q 14.703125 8.734375 18.5 7.8125 
Q 22.3125 6.890625 25.984375 6.890625 
Q 35.75 6.890625 40.890625 13.453125 
Q 46.046875 20.015625 46.78125 33.40625 
Q 43.953125 29.203125 39.59375 26.953125 
Q 35.25 24.703125 29.984375 24.703125 
Q 19.046875 24.703125 12.671875 31.3125 
Q 6.296875 37.9375 6.296875 49.421875 
Q 6.296875 60.640625 12.9375 67.421875 
Q 19.578125 74.21875 30.609375 74.21875 
Q 43.265625 74.21875 49.921875 64.515625 
Q 56.59375 54.828125 56.59375 36.375 
Q 56.59375 19.140625 48.40625 8.859375 
Q 40.234375 -1.421875 26.421875 -1.421875 
Q 22.703125 -1.421875 18.890625 -0.6875 
Q 15.09375 0.046875 10.984375 1.515625 
z
M 30.609375 32.421875 
Q 37.25 32.421875 41.125 36.953125 
Q 45.015625 41.5 45.015625 49.421875 
Q 45.015625 57.28125 41.125 61.84375 
Q 37.25 66.40625 30.609375 66.40625 
Q 23.96875 66.40625 20.09375 61.84375 
Q 16.21875 57.28125 16.21875 49.421875 
Q 16.21875 41.5 20.09375 36.953125 
Q 23.96875 32.421875 30.609375 32.421875 
z
" id="DejaVuSans-57"/>
      </defs>
      <g transform="translate(562.27983 232.14461)scale(0.1 -0.1)">
       <use xlink:href="#DejaVuSans-48"/>
       <use x="63.623047" xlink:href="#DejaVuSans-46"/>
       <use x="95.410156" xlink:href="#DejaVuSans-57"/>
       <use x="159.033203" xlink:href="#DejaVuSans-48"/>
      </g>
     </g>
    </g>
    <g id="ytick_12">
     <g id="line2d_25">
      <g>
       <use style="stroke:#000000;stroke-width:0.8;" x="591.545455" xlink:href="#m58eabe32cc" y="193.787222"/>
      </g>
     </g>
     <g id="text_25">
      <!-- 0.92 -->
      <g transform="translate(562.27983 197.586441)scale(0.1 -0.1)">
       <use xlink:href="#DejaVuSans-48"/>
       <use x="63.623047" xlink:href="#DejaVuSans-46"/>
       <use x="95.410156" xlink:href="#DejaVuSans-57"/>
       <use x="159.033203" xlink:href="#DejaVuSans-50"/>
      </g>
     </g>
    </g>
    <g id="ytick_13">
     <g id="line2d_26">
      <g>
       <use style="stroke:#000000;stroke-width:0.8;" x="591.545455" xlink:href="#m58eabe32cc" y="159.229053"/>
      </g>
     </g>
     <g id="text_26">
      <!-- 0.94 -->
      <g transform="translate(562.27983 163.028272)scale(0.1 -0.1)">
       <use xlink:href="#DejaVuSans-48"/>
       <use x="63.623047" xlink:href="#DejaVuSans-46"/>
       <use x="95.410156" xlink:href="#DejaVuSans-57"/>
       <use x="159.033203" xlink:href="#DejaVuSans-52"/>
      </g>
     </g>
    </g>
    <g id="ytick_14">
     <g id="line2d_27">
      <g>
       <use style="stroke:#000000;stroke-width:0.8;" x="591.545455" xlink:href="#m58eabe32cc" y="124.670884"/>
      </g>
     </g>
     <g id="text_27">
      <!-- 0.96 -->
      <g transform="translate(562.27983 128.470102)scale(0.1 -0.1)">
       <use xlink:href="#DejaVuSans-48"/>
       <use x="63.623047" xlink:href="#DejaVuSans-46"/>
       <use x="95.410156" xlink:href="#DejaVuSans-57"/>
       <use x="159.033203" xlink:href="#DejaVuSans-54"/>
      </g>
     </g>
    </g>
    <g id="ytick_15">
     <g id="line2d_28">
      <g>
       <use style="stroke:#000000;stroke-width:0.8;" x="591.545455" xlink:href="#m58eabe32cc" y="90.112715"/>
      </g>
     </g>
     <g id="text_28">
      <!-- 0.98 -->
      <g transform="translate(562.27983 93.911933)scale(0.1 -0.1)">
       <use xlink:href="#DejaVuSans-48"/>
       <use x="63.623047" xlink:href="#DejaVuSans-46"/>
       <use x="95.410156" xlink:href="#DejaVuSans-57"/>
       <use x="159.033203" xlink:href="#DejaVuSans-56"/>
      </g>
     </g>
    </g>
    <g id="ytick_16">
     <g id="line2d_29">
      <g>
       <use style="stroke:#000000;stroke-width:0.8;" x="591.545455" xlink:href="#m58eabe32cc" y="55.554545"/>
      </g>
     </g>
     <g id="text_29">
      <!-- 1.00 -->
      <g transform="translate(562.27983 59.353764)scale(0.1 -0.1)">
       <use xlink:href="#DejaVuSans-49"/>
       <use x="63.623047" xlink:href="#DejaVuSans-46"/>
       <use x="95.410156" xlink:href="#DejaVuSans-48"/>
       <use x="159.033203" xlink:href="#DejaVuSans-48"/>
      </g>
     </g>
    </g>
   </g>
   <g id="line2d_30">
    <path clip-path="url(#pedc258a2cf)" d="M 608.838843 285.36637 
L 610.22787 276.726828 
L 611.616897 302.645455 
L 613.005925 283.638462 
L 614.394952 200.698856 
L 615.783979 195.51513 
L 617.173006 197.243039 
L 618.562033 207.61049 
L 619.95106 224.889574 
L 621.340088 204.154673 
L 622.729115 243.896567 
L 624.118142 224.889574 
L 625.507169 202.426764 
L 626.896196 200.698856 
L 628.285224 190.331405 
L 629.674251 200.698856 
L 631.063278 169.596503 
L 632.452305 152.317419 
L 633.841332 154.045327 
L 635.230359 129.854609 
L 636.619387 117.75925 
L 638.008414 121.215067 
L 639.397441 110.847616 
L 640.786468 110.847616 
L 642.175495 97.024348 
L 643.564523 109.119708 
L 644.95355 93.568531 
L 646.342577 88.384806 
L 647.731604 97.024348 
L 649.120631 102.208074 
L 650.509658 95.29644 
L 651.898686 100.480165 
L 653.287713 90.112715 
L 654.67674 83.201081 
L 656.065767 91.840623 
L 657.454794 93.568531 
L 658.843822 91.840623 
L 660.232849 98.752257 
L 661.621876 90.112715 
L 663.010903 76.289447 
L 664.39993 100.480165 
L 665.788957 86.656898 
L 667.177985 84.928989 
L 668.567012 79.745264 
L 669.956039 83.201081 
L 671.345066 69.377813 
L 674.123121 90.112715 
L 675.512148 79.745264 
L 676.901175 90.112715 
L 678.290202 65.921996 
L 679.679229 79.745264 
L 681.068256 79.745264 
L 683.846311 76.289447 
L 685.235338 72.83363 
L 686.624365 71.105722 
L 688.013392 74.561538 
L 689.40242 79.745264 
L 690.791447 79.745264 
L 692.180474 84.928989 
L 693.569501 71.105722 
L 694.958528 74.561538 
L 696.347556 72.83363 
L 697.736583 65.921996 
L 699.12561 67.649905 
L 700.514637 79.745264 
L 701.903664 65.921996 
L 703.292691 69.377813 
L 704.681719 62.466179 
L 706.070746 72.83363 
L 707.459773 65.921996 
L 708.8488 69.377813 
L 710.237827 67.649905 
L 711.626855 59.010362 
L 713.015882 72.83363 
L 714.404909 69.377813 
L 715.793936 72.83363 
L 717.182963 65.921996 
L 718.57199 65.921996 
L 719.961018 62.466179 
L 721.350045 72.83363 
L 722.739072 62.466179 
L 724.128099 65.921996 
L 725.517126 65.921996 
L 726.906154 59.010362 
L 728.295181 65.921996 
L 729.684208 59.010362 
L 731.073235 65.921996 
L 732.462262 62.466179 
L 733.851289 69.377813 
L 735.240317 62.466179 
L 736.629344 59.010362 
L 738.018371 64.194088 
L 739.407398 64.194088 
L 740.796425 59.010362 
L 742.185453 69.377813 
L 743.57448 69.377813 
L 744.963507 55.554545 
L 746.352534 59.010362 
L 747.741561 65.921996 
L 749.130588 64.194088 
L 750.519616 60.738271 
L 751.908643 64.194088 
L 753.29767 60.738271 
L 754.686697 59.010362 
L 756.075724 59.010362 
L 758.853779 62.466179 
L 760.242806 62.466179 
L 761.631833 55.554545 
L 763.02086 62.466179 
L 765.798915 62.466179 
L 767.187942 60.738271 
L 768.576969 62.466179 
L 769.965996 59.010362 
L 771.355023 57.282454 
L 772.744051 65.921996 
L 774.133078 57.282454 
L 775.522105 55.554545 
L 776.911132 62.466179 
L 778.300159 59.010362 
L 779.689186 59.010362 
L 781.078214 55.554545 
L 782.467241 57.282454 
L 783.856268 62.466179 
L 785.245295 59.010362 
L 786.634322 59.010362 
L 788.02335 64.194088 
L 789.412377 59.010362 
L 792.190431 55.554545 
L 794.968486 62.466179 
L 796.357513 60.738271 
L 797.74654 57.282454 
L 799.135567 65.921996 
L 800.524594 60.738271 
L 801.913621 60.738271 
L 803.302649 57.282454 
L 804.691676 57.282454 
L 806.080703 60.738271 
L 807.46973 55.554545 
L 808.858757 59.010362 
L 810.247785 59.010362 
L 813.025839 55.554545 
L 814.414866 55.554545 
L 815.803893 59.010362 
L 821.360002 59.010362 
L 824.138056 55.554545 
L 825.527084 55.554545 
L 826.916111 65.921996 
L 828.305138 59.010362 
L 831.083192 59.010362 
L 832.472219 57.282454 
L 835.250274 57.282454 
L 836.639301 55.554545 
L 838.028328 57.282454 
L 839.417355 65.921996 
L 840.806383 59.010362 
L 842.19541 57.282454 
L 843.584437 60.738271 
L 844.973464 59.010362 
L 846.362491 59.010362 
L 847.751518 55.554545 
L 850.529573 59.010362 
L 851.9186 59.010362 
L 854.696654 55.554545 
L 856.085682 57.282454 
L 857.474709 55.554545 
L 861.64179 55.554545 
L 863.030817 59.010362 
L 864.419845 55.554545 
L 865.808872 55.554545 
L 867.197899 59.010362 
L 868.586926 57.282454 
L 869.975953 59.010362 
L 871.364981 55.554545 
L 872.754008 55.554545 
L 874.143035 57.282454 
L 875.532062 55.554545 
L 879.699144 55.554545 
L 881.088171 59.010362 
L 882.477198 55.554545 
L 883.866225 55.554545 
L 886.64428 62.466179 
L 888.033307 55.554545 
L 889.422334 55.554545 
L 892.200388 59.010362 
L 893.589416 55.554545 
L 894.978443 59.010362 
L 896.36747 55.554545 
L 899.145524 59.010362 
L 900.534551 57.282454 
L 901.923579 57.282454 
L 903.312606 55.554545 
L 904.701633 59.010362 
L 906.09066 55.554545 
L 907.479687 59.010362 
L 908.868715 59.010362 
L 910.257742 55.554545 
L 911.646769 55.554545 
L 913.035796 59.010362 
L 914.424823 65.921996 
L 915.81385 59.010362 
L 917.202878 55.554545 
L 919.980932 62.466179 
L 921.369959 59.010362 
L 922.758986 59.010362 
L 924.148014 55.554545 
L 925.537041 55.554545 
L 926.926068 59.010362 
L 928.315095 55.554545 
L 929.704122 60.738271 
L 931.093149 55.554545 
L 933.871204 55.554545 
L 935.260231 59.010362 
L 936.649258 59.010362 
L 938.038285 55.554545 
L 939.427313 59.010362 
L 942.205367 55.554545 
L 944.983421 59.010362 
L 946.372448 59.010362 
L 949.150503 55.554545 
L 950.53953 59.010362 
L 951.928557 55.554545 
L 953.317584 55.554545 
L 954.706612 59.010362 
L 954.706612 59.010362 
" style="fill:none;stroke:#ff0000;stroke-linecap:square;stroke-width:1.5;"/>
   </g>
   <g id="patch_8">
    <path d="M 591.545455 315 
L 591.545455 43.2 
" style="fill:none;stroke:#000000;stroke-linecap:square;stroke-linejoin:miter;stroke-width:0.8;"/>
   </g>
   <g id="patch_9">
    <path d="M 972 315 
L 972 43.2 
" style="fill:none;stroke:#000000;stroke-linecap:square;stroke-linejoin:miter;stroke-width:0.8;"/>
   </g>
   <g id="patch_10">
    <path d="M 591.545455 315 
L 972 315 
" style="fill:none;stroke:#000000;stroke-linecap:square;stroke-linejoin:miter;stroke-width:0.8;"/>
   </g>
   <g id="patch_11">
    <path d="M 591.545455 43.2 
L 972 43.2 
" style="fill:none;stroke:#000000;stroke-linecap:square;stroke-linejoin:miter;stroke-width:0.8;"/>
   </g>
   <g id="text_30">
    <!-- class_acc -->
    <defs>
     <path d="M 48.78125 52.59375 
L 48.78125 44.1875 
Q 44.96875 46.296875 41.140625 47.34375 
Q 37.3125 48.390625 33.40625 48.390625 
Q 24.65625 48.390625 19.8125 42.84375 
Q 14.984375 37.3125 14.984375 27.296875 
Q 14.984375 17.28125 19.8125 11.734375 
Q 24.65625 6.203125 33.40625 6.203125 
Q 37.3125 6.203125 41.140625 7.25 
Q 44.96875 8.296875 48.78125 10.40625 
L 48.78125 2.09375 
Q 45.015625 0.34375 40.984375 -0.53125 
Q 36.96875 -1.421875 32.421875 -1.421875 
Q 20.0625 -1.421875 12.78125 6.34375 
Q 5.515625 14.109375 5.515625 27.296875 
Q 5.515625 40.671875 12.859375 48.328125 
Q 20.21875 56 33.015625 56 
Q 37.15625 56 41.109375 55.140625 
Q 45.0625 54.296875 48.78125 52.59375 
z
" id="DejaVuSans-99"/>
    </defs>
    <g transform="translate(753.603665 37.2)scale(0.12 -0.12)">
     <use xlink:href="#DejaVuSans-99"/>
     <use x="54.980469" xlink:href="#DejaVuSans-108"/>
     <use x="82.763672" xlink:href="#DejaVuSans-97"/>
     <use x="144.042969" xlink:href="#DejaVuSans-115"/>
     <use x="196.142578" xlink:href="#DejaVuSans-115"/>
     <use x="248.242188" xlink:href="#DejaVuSans-95"/>
     <use x="298.242188" xlink:href="#DejaVuSans-97"/>
     <use x="359.521484" xlink:href="#DejaVuSans-99"/>
     <use x="414.501953" xlink:href="#DejaVuSans-99"/>
    </g>
   </g>
  </g>
 </g>
 <defs>
  <clipPath id="pd6100aa1c4">
   <rect height="271.8" width="380.454545" x="135" y="43.2"/>
  </clipPath>
  <clipPath id="pedc258a2cf">
   <rect height="271.8" width="380.454545" x="591.545455" y="43.2"/>
  </clipPath>
 </defs>
</svg>
