<?xml version="1.0" encoding="utf-8" standalone="no"?>
<!DOCTYPE svg PUBLIC "-//W3C//DTD SVG 1.1//EN"
  "http://www.w3.org/Graphics/SVG/1.1/DTD/svg11.dtd">
<!-- Created with matplotlib (https://matplotlib.org/) -->
<svg height="288pt" version="1.1" viewBox="0 0 432 288" width="432pt" xmlns="http://www.w3.org/2000/svg" xmlns:xlink="http://www.w3.org/1999/xlink">
 <defs>
  <style type="text/css">
*{stroke-linecap:butt;stroke-linejoin:round;}
  </style>
 </defs>
 <g id="figure_1">
  <g id="patch_1">
   <path d="M 0 288 
L 432 288 
L 432 0 
L 0 0 
z
" style="fill:#ffffff;"/>
  </g>
  <g id="axes_1">
   <g id="patch_2">
    <path d="M 54 252 
L 388.8 252 
L 388.8 34.56 
L 54 34.56 
z
" style="fill:#ffffff;"/>
   </g>
   <g id="matplotlib.axis_1">
    <g id="xtick_1">
     <g id="line2d_1">
      <defs>
       <path d="M 0 0 
L 0 3.5 
" id="m6872561d80" style="stroke:#000000;stroke-width:0.8;"/>
      </defs>
      <g>
       <use style="stroke:#000000;stroke-width:0.8;" x="69.218182" xlink:href="#m6872561d80" y="252"/>
      </g>
     </g>
     <g id="text_1">
      <!-- 0 -->
      <defs>
       <path d="M 31.78125 66.40625 
Q 24.171875 66.40625 20.328125 58.90625 
Q 16.5 51.421875 16.5 36.375 
Q 16.5 21.390625 20.328125 13.890625 
Q 24.171875 6.390625 31.78125 6.390625 
Q 39.453125 6.390625 43.28125 13.890625 
Q 47.125 21.390625 47.125 36.375 
Q 47.125 51.421875 43.28125 58.90625 
Q 39.453125 66.40625 31.78125 66.40625 
z
M 31.78125 74.21875 
Q 44.046875 74.21875 50.515625 64.515625 
Q 56.984375 54.828125 56.984375 36.375 
Q 56.984375 17.96875 50.515625 8.265625 
Q 44.046875 -1.421875 31.78125 -1.421875 
Q 19.53125 -1.421875 13.0625 8.265625 
Q 6.59375 17.96875 6.59375 36.375 
Q 6.59375 54.828125 13.0625 64.515625 
Q 19.53125 74.21875 31.78125 74.21875 
z
" id="DejaVuSans-48"/>
      </defs>
      <g transform="translate(66.036932 266.598437)scale(0.1 -0.1)">
       <use xlink:href="#DejaVuSans-48"/>
      </g>
     </g>
    </g>
    <g id="xtick_2">
     <g id="line2d_2">
      <g>
       <use style="stroke:#000000;stroke-width:0.8;" x="130.335378" xlink:href="#m6872561d80" y="252"/>
      </g>
     </g>
     <g id="text_2">
      <!-- 50 -->
      <defs>
       <path d="M 10.796875 72.90625 
L 49.515625 72.90625 
L 49.515625 64.59375 
L 19.828125 64.59375 
L 19.828125 46.734375 
Q 21.96875 47.46875 24.109375 47.828125 
Q 26.265625 48.1875 28.421875 48.1875 
Q 40.625 48.1875 47.75 41.5 
Q 54.890625 34.8125 54.890625 23.390625 
Q 54.890625 11.625 47.5625 5.09375 
Q 40.234375 -1.421875 26.90625 -1.421875 
Q 22.3125 -1.421875 17.546875 -0.640625 
Q 12.796875 0.140625 7.71875 1.703125 
L 7.71875 11.625 
Q 12.109375 9.234375 16.796875 8.0625 
Q 21.484375 6.890625 26.703125 6.890625 
Q 35.15625 6.890625 40.078125 11.328125 
Q 45.015625 15.765625 45.015625 23.390625 
Q 45.015625 31 40.078125 35.4375 
Q 35.15625 39.890625 26.703125 39.890625 
Q 22.75 39.890625 18.8125 39.015625 
Q 14.890625 38.140625 10.796875 36.28125 
z
" id="DejaVuSans-53"/>
      </defs>
      <g transform="translate(123.972878 266.598437)scale(0.1 -0.1)">
       <use xlink:href="#DejaVuSans-53"/>
       <use x="63.623047" xlink:href="#DejaVuSans-48"/>
      </g>
     </g>
    </g>
    <g id="xtick_3">
     <g id="line2d_3">
      <g>
       <use style="stroke:#000000;stroke-width:0.8;" x="191.452574" xlink:href="#m6872561d80" y="252"/>
      </g>
     </g>
     <g id="text_3">
      <!-- 100 -->
      <defs>
       <path d="M 12.40625 8.296875 
L 28.515625 8.296875 
L 28.515625 63.921875 
L 10.984375 60.40625 
L 10.984375 69.390625 
L 28.421875 72.90625 
L 38.28125 72.90625 
L 38.28125 8.296875 
L 54.390625 8.296875 
L 54.390625 0 
L 12.40625 0 
z
" id="DejaVuSans-49"/>
      </defs>
      <g transform="translate(181.908824 266.598437)scale(0.1 -0.1)">
       <use xlink:href="#DejaVuSans-49"/>
       <use x="63.623047" xlink:href="#DejaVuSans-48"/>
       <use x="127.246094" xlink:href="#DejaVuSans-48"/>
      </g>
     </g>
    </g>
    <g id="xtick_4">
     <g id="line2d_4">
      <g>
       <use style="stroke:#000000;stroke-width:0.8;" x="252.56977" xlink:href="#m6872561d80" y="252"/>
      </g>
     </g>
     <g id="text_4">
      <!-- 150 -->
      <g transform="translate(243.02602 266.598437)scale(0.1 -0.1)">
       <use xlink:href="#DejaVuSans-49"/>
       <use x="63.623047" xlink:href="#DejaVuSans-53"/>
       <use x="127.246094" xlink:href="#DejaVuSans-48"/>
      </g>
     </g>
    </g>
    <g id="xtick_5">
     <g id="line2d_5">
      <g>
       <use style="stroke:#000000;stroke-width:0.8;" x="313.686966" xlink:href="#m6872561d80" y="252"/>
      </g>
     </g>
     <g id="text_5">
      <!-- 200 -->
      <defs>
       <path d="M 19.1875 8.296875 
L 53.609375 8.296875 
L 53.609375 0 
L 7.328125 0 
L 7.328125 8.296875 
Q 12.9375 14.109375 22.625 23.890625 
Q 32.328125 33.6875 34.8125 36.53125 
Q 39.546875 41.84375 41.421875 45.53125 
Q 43.3125 49.21875 43.3125 52.78125 
Q 43.3125 58.59375 39.234375 62.25 
Q 35.15625 65.921875 28.609375 65.921875 
Q 23.96875 65.921875 18.8125 64.3125 
Q 13.671875 62.703125 7.8125 59.421875 
L 7.8125 69.390625 
Q 13.765625 71.78125 18.9375 73 
Q 24.125 74.21875 28.421875 74.21875 
Q 39.75 74.21875 46.484375 68.546875 
Q 53.21875 62.890625 53.21875 53.421875 
Q 53.21875 48.921875 51.53125 44.890625 
Q 49.859375 40.875 45.40625 35.40625 
Q 44.1875 33.984375 37.640625 27.21875 
Q 31.109375 20.453125 19.1875 8.296875 
z
" id="DejaVuSans-50"/>
      </defs>
      <g transform="translate(304.143216 266.598437)scale(0.1 -0.1)">
       <use xlink:href="#DejaVuSans-50"/>
       <use x="63.623047" xlink:href="#DejaVuSans-48"/>
       <use x="127.246094" xlink:href="#DejaVuSans-48"/>
      </g>
     </g>
    </g>
    <g id="xtick_6">
     <g id="line2d_6">
      <g>
       <use style="stroke:#000000;stroke-width:0.8;" x="374.804162" xlink:href="#m6872561d80" y="252"/>
      </g>
     </g>
     <g id="text_6">
      <!-- 250 -->
      <g transform="translate(365.260412 266.598437)scale(0.1 -0.1)">
       <use xlink:href="#DejaVuSans-50"/>
       <use x="63.623047" xlink:href="#DejaVuSans-53"/>
       <use x="127.246094" xlink:href="#DejaVuSans-48"/>
      </g>
     </g>
    </g>
   </g>
   <g id="matplotlib.axis_2">
    <g id="ytick_1">
     <g id="line2d_7">
      <defs>
       <path d="M 0 0 
L -3.5 0 
" id="m9b9cb03b14" style="stroke:#000000;stroke-width:0.8;"/>
      </defs>
      <g>
       <use style="stroke:#000000;stroke-width:0.8;" x="54" xlink:href="#m9b9cb03b14" y="245.715447"/>
      </g>
     </g>
     <g id="text_7">
      <!-- 0.0 -->
      <defs>
       <path d="M 10.6875 12.40625 
L 21 12.40625 
L 21 0 
L 10.6875 0 
z
" id="DejaVuSans-46"/>
      </defs>
      <g transform="translate(31.096875 249.514666)scale(0.1 -0.1)">
       <use xlink:href="#DejaVuSans-48"/>
       <use x="63.623047" xlink:href="#DejaVuSans-46"/>
       <use x="95.410156" xlink:href="#DejaVuSans-48"/>
      </g>
     </g>
    </g>
    <g id="ytick_2">
     <g id="line2d_8">
      <g>
       <use style="stroke:#000000;stroke-width:0.8;" x="54" xlink:href="#m9b9cb03b14" y="199.573354"/>
      </g>
     </g>
     <g id="text_8">
      <!-- 0.5 -->
      <g transform="translate(31.096875 203.372572)scale(0.1 -0.1)">
       <use xlink:href="#DejaVuSans-48"/>
       <use x="63.623047" xlink:href="#DejaVuSans-46"/>
       <use x="95.410156" xlink:href="#DejaVuSans-53"/>
      </g>
     </g>
    </g>
    <g id="ytick_3">
     <g id="line2d_9">
      <g>
       <use style="stroke:#000000;stroke-width:0.8;" x="54" xlink:href="#m9b9cb03b14" y="153.431261"/>
      </g>
     </g>
     <g id="text_9">
      <!-- 1.0 -->
      <g transform="translate(31.096875 157.230479)scale(0.1 -0.1)">
       <use xlink:href="#DejaVuSans-49"/>
       <use x="63.623047" xlink:href="#DejaVuSans-46"/>
       <use x="95.410156" xlink:href="#DejaVuSans-48"/>
      </g>
     </g>
    </g>
    <g id="ytick_4">
     <g id="line2d_10">
      <g>
       <use style="stroke:#000000;stroke-width:0.8;" x="54" xlink:href="#m9b9cb03b14" y="107.289167"/>
      </g>
     </g>
     <g id="text_10">
      <!-- 1.5 -->
      <g transform="translate(31.096875 111.088386)scale(0.1 -0.1)">
       <use xlink:href="#DejaVuSans-49"/>
       <use x="63.623047" xlink:href="#DejaVuSans-46"/>
       <use x="95.410156" xlink:href="#DejaVuSans-53"/>
      </g>
     </g>
    </g>
    <g id="ytick_5">
     <g id="line2d_11">
      <g>
       <use style="stroke:#000000;stroke-width:0.8;" x="54" xlink:href="#m9b9cb03b14" y="61.147074"/>
      </g>
     </g>
     <g id="text_11">
      <!-- 2.0 -->
      <g transform="translate(31.096875 64.946293)scale(0.1 -0.1)">
       <use xlink:href="#DejaVuSans-50"/>
       <use x="63.623047" xlink:href="#DejaVuSans-46"/>
       <use x="95.410156" xlink:href="#DejaVuSans-48"/>
      </g>
     </g>
    </g>
   </g>
   <g id="line2d_12">
    <path clip-path="url(#p75c45badd4)" d="M 69.218182 44.443636 
L 70.440526 88.924614 
L 71.66287 153.431261 
L 72.885214 168.473583 
L 74.107558 179.270833 
L 75.329901 165.797341 
L 76.552245 170.319267 
L 77.774589 160.813995 
L 78.996933 170.411551 
L 80.219277 172.903224 
L 81.441621 178.440275 
L 82.663965 174.472055 
L 83.886309 167.550741 
L 85.108653 180.193675 
L 86.330997 175.118044 
L 87.553341 183.423621 
L 88.775685 185.546157 
L 89.998028 184.7156 
L 91.220372 194.497723 
L 92.442716 193.75945 
L 93.66506 203.357005 
L 94.887404 201.511322 
L 96.109748 210.832024 
L 97.332092 207.87893 
L 98.554436 212.124003 
L 99.77678 210.001467 
L 100.999124 214.061971 
L 102.221468 208.801772 
L 103.443812 207.602078 
L 104.666156 206.033247 
L 105.888499 214.431108 
L 107.110843 213.969687 
L 108.333187 214.615676 
L 109.555531 217.476486 
L 110.777875 218.491612 
L 112.000219 216.184507 
L 113.222563 210.73974 
L 114.444907 218.860749 
L 115.667251 217.384202 
L 116.889595 220.706432 
L 118.111939 216.184507 
L 119.334283 224.120947 
L 120.556627 215.261665 
L 121.77897 217.753338 
L 123.001314 224.674652 
L 124.223658 222.090695 
L 125.446002 215.723086 
L 126.668346 231.134545 
L 127.89069 220.614148 
L 129.113034 225.50521 
L 130.335378 220.337296 
L 131.557722 223.105821 
L 132.780066 214.154255 
L 134.00241 225.874347 
L 135.224754 220.060443 
L 136.447097 227.904599 
L 137.669441 224.490084 
L 138.891785 220.614148 
L 140.114129 230.949977 
L 142.558817 225.228358 
L 143.781161 228.550588 
L 145.003505 227.812315 
L 146.225849 220.060443 
L 147.448193 224.490084 
L 148.670537 227.535462 
L 149.892881 227.904599 
L 151.115225 225.50521 
L 152.337568 229.288862 
L 153.559912 222.459832 
L 154.782256 234.364492 
L 156.0046 227.25861 
L 157.226944 234.918197 
L 158.449288 229.104293 
L 159.671632 233.44165 
L 160.893976 234.272208 
L 162.11632 232.518808 
L 163.338664 231.134545 
L 164.561008 233.533934 
L 165.783352 232.795661 
L 167.005696 231.22683 
L 168.228039 231.22683 
L 169.450383 235.656471 
L 170.672727 230.58084 
L 171.895071 231.042261 
L 173.117415 229.750283 
L 174.339759 236.117892 
L 175.562103 232.241956 
L 176.784447 236.117892 
L 178.006791 229.565714 
L 179.229135 227.627746 
L 180.451479 227.627746 
L 181.673823 233.995355 
L 182.896166 236.763881 
L 184.11851 230.303988 
L 185.340854 231.688251 
L 186.563198 234.641345 
L 187.785542 230.119419 
L 189.007886 233.718503 
L 190.23023 230.949977 
L 191.452574 235.841039 
L 192.674918 231.780535 
L 193.897262 228.36602 
L 195.119606 229.565714 
L 196.34195 231.22683 
L 197.564294 234.825913 
L 198.786637 235.933323 
L 200.008981 229.657998 
L 201.231325 233.718503 
L 202.453669 232.426524 
L 203.676013 235.564186 
L 204.898357 233.718503 
L 206.120701 237.225302 
L 207.343045 230.857693 
L 208.565389 233.257082 
L 209.787733 233.626218 
L 211.010077 234.54906 
L 212.232421 238.055859 
L 213.454765 231.411398 
L 214.677108 235.748755 
L 215.899452 238.978701 
L 217.121796 230.58084 
L 218.34414 231.319114 
L 219.566484 232.611092 
L 220.788828 235.656471 
L 222.011172 231.042261 
L 223.233516 234.364492 
L 224.45586 236.763881 
L 225.678204 233.257082 
L 226.900548 231.411398 
L 228.122892 236.579312 
L 229.345235 231.595966 
L 230.567579 234.179924 
L 231.789923 232.241956 
L 233.012267 234.825913 
L 234.234611 232.241956 
L 235.456955 236.487028 
L 236.679299 237.686723 
L 237.901643 236.948449 
L 239.123987 236.856165 
L 240.346331 233.164798 
L 241.568675 233.810787 
L 242.791019 232.795661 
L 244.013363 232.057387 
L 245.235706 233.257082 
L 246.45805 230.303988 
L 248.902738 234.918197 
L 250.125082 235.841039 
L 251.347426 234.641345 
L 252.56977 234.733629 
L 253.792114 234.456776 
L 255.014458 232.33424 
L 256.236802 237.40987 
L 257.459146 236.025607 
L 258.68149 234.272208 
L 259.903834 233.164798 
L 261.126177 236.487028 
L 262.348521 234.364492 
L 263.570865 233.995355 
L 264.793209 234.179924 
L 266.015553 235.19505 
L 267.237897 232.149672 
L 268.460241 228.36602 
L 270.904929 234.179924 
L 272.127273 231.688251 
L 273.349617 236.30246 
L 274.571961 227.166325 
L 275.794304 236.671597 
L 277.016648 234.179924 
L 278.238992 238.424996 
L 279.461336 235.287334 
L 280.68368 233.533934 
L 281.906024 234.087639 
L 283.128368 232.611092 
L 284.350712 238.51728 
L 285.573056 233.44165 
L 286.7954 235.841039 
L 288.017744 236.671597 
L 290.462432 231.22683 
L 291.684775 236.579312 
L 292.907119 236.671597 
L 294.129463 232.980229 
L 295.351807 230.119419 
L 296.574151 236.025607 
L 297.796495 234.641345 
L 299.018839 230.58084 
L 300.241183 234.918197 
L 301.463527 235.010481 
L 302.685871 234.54906 
L 303.908215 236.025607 
L 305.130559 233.257082 
L 306.352903 237.040733 
L 307.575246 237.225302 
L 310.019934 236.948449 
L 311.242278 235.471902 
L 312.464622 237.963575 
L 313.686966 234.918197 
L 314.90931 239.809259 
L 316.131654 234.179924 
L 317.353998 230.303988 
L 318.576342 236.948449 
L 319.798686 235.841039 
L 321.02103 236.671597 
L 322.243373 238.609565 
L 323.465717 239.070985 
L 324.688061 237.225302 
L 325.910405 235.010481 
L 327.132749 227.996883 
L 328.355093 239.809259 
L 329.577437 233.903071 
L 330.799781 237.686723 
L 332.022125 234.918197 
L 333.244469 235.471902 
L 334.466813 231.319114 
L 335.689157 234.641345 
L 336.911501 236.579312 
L 338.133844 236.487028 
L 339.356188 237.40987 
L 340.578532 242.116364 
L 341.800876 238.609565 
L 343.02322 239.070985 
L 344.245564 238.332712 
L 345.467908 239.255554 
L 346.690252 238.148144 
L 347.912596 236.763881 
L 349.13494 236.30246 
L 350.357284 238.701849 
L 351.579628 236.30246 
L 352.801972 238.978701 
L 354.024315 240.086112 
L 355.246659 239.347838 
L 356.469003 234.364492 
L 357.691347 240.916669 
L 358.913691 238.51728 
L 360.136035 237.963575 
L 361.358379 241.008953 
L 362.580723 239.993827 
L 363.803067 234.364492 
L 365.025411 239.809259 
L 366.247755 241.562659 
L 367.470099 237.040733 
L 368.692442 236.856165 
L 369.914786 239.255554 
L 371.13713 238.055859 
L 372.359474 237.225302 
L 373.581818 237.779007 
L 373.581818 237.779007 
" style="fill:none;stroke:#ff0000;stroke-linecap:square;stroke-width:1.5;"/>
   </g>
   <g id="patch_3">
    <path d="M 54 252 
L 54 34.56 
" style="fill:none;stroke:#000000;stroke-linecap:square;stroke-linejoin:miter;stroke-width:0.8;"/>
   </g>
   <g id="patch_4">
    <path d="M 388.8 252 
L 388.8 34.56 
" style="fill:none;stroke:#000000;stroke-linecap:square;stroke-linejoin:miter;stroke-width:0.8;"/>
   </g>
   <g id="patch_5">
    <path d="M 54 252 
L 388.8 252 
" style="fill:none;stroke:#000000;stroke-linecap:square;stroke-linejoin:miter;stroke-width:0.8;"/>
   </g>
   <g id="patch_6">
    <path d="M 54 34.56 
L 388.8 34.56 
" style="fill:none;stroke:#000000;stroke-linecap:square;stroke-linejoin:miter;stroke-width:0.8;"/>
   </g>
   <g id="text_12">
    <!-- total_loss -->
    <defs>
     <path d="M 18.3125 70.21875 
L 18.3125 54.6875 
L 36.8125 54.6875 
L 36.8125 47.703125 
L 18.3125 47.703125 
L 18.3125 18.015625 
Q 18.3125 11.328125 20.140625 9.421875 
Q 21.96875 7.515625 27.59375 7.515625 
L 36.8125 7.515625 
L 36.8125 0 
L 27.59375 0 
Q 17.1875 0 13.234375 3.875 
Q 9.28125 7.765625 9.28125 18.015625 
L 9.28125 47.703125 
L 2.6875 47.703125 
L 2.6875 54.6875 
L 9.28125 54.6875 
L 9.28125 70.21875 
z
" id="DejaVuSans-116"/>
     <path d="M 30.609375 48.390625 
Q 23.390625 48.390625 19.1875 42.75 
Q 14.984375 37.109375 14.984375 27.296875 
Q 14.984375 17.484375 19.15625 11.84375 
Q 23.34375 6.203125 30.609375 6.203125 
Q 37.796875 6.203125 41.984375 11.859375 
Q 46.1875 17.53125 46.1875 27.296875 
Q 46.1875 37.015625 41.984375 42.703125 
Q 37.796875 48.390625 30.609375 48.390625 
z
M 30.609375 56 
Q 42.328125 56 49.015625 48.375 
Q 55.71875 40.765625 55.71875 27.296875 
Q 55.71875 13.875 49.015625 6.21875 
Q 42.328125 -1.421875 30.609375 -1.421875 
Q 18.84375 -1.421875 12.171875 6.21875 
Q 5.515625 13.875 5.515625 27.296875 
Q 5.515625 40.765625 12.171875 48.375 
Q 18.84375 56 30.609375 56 
z
" id="DejaVuSans-111"/>
     <path d="M 34.28125 27.484375 
Q 23.390625 27.484375 19.1875 25 
Q 14.984375 22.515625 14.984375 16.5 
Q 14.984375 11.71875 18.140625 8.90625 
Q 21.296875 6.109375 26.703125 6.109375 
Q 34.1875 6.109375 38.703125 11.40625 
Q 43.21875 16.703125 43.21875 25.484375 
L 43.21875 27.484375 
z
M 52.203125 31.203125 
L 52.203125 0 
L 43.21875 0 
L 43.21875 8.296875 
Q 40.140625 3.328125 35.546875 0.953125 
Q 30.953125 -1.421875 24.3125 -1.421875 
Q 15.921875 -1.421875 10.953125 3.296875 
Q 6 8.015625 6 15.921875 
Q 6 25.140625 12.171875 29.828125 
Q 18.359375 34.515625 30.609375 34.515625 
L 43.21875 34.515625 
L 43.21875 35.40625 
Q 43.21875 41.609375 39.140625 45 
Q 35.0625 48.390625 27.6875 48.390625 
Q 23 48.390625 18.546875 47.265625 
Q 14.109375 46.140625 10.015625 43.890625 
L 10.015625 52.203125 
Q 14.9375 54.109375 19.578125 55.046875 
Q 24.21875 56 28.609375 56 
Q 40.484375 56 46.34375 49.84375 
Q 52.203125 43.703125 52.203125 31.203125 
z
" id="DejaVuSans-97"/>
     <path d="M 9.421875 75.984375 
L 18.40625 75.984375 
L 18.40625 0 
L 9.421875 0 
z
" id="DejaVuSans-108"/>
     <path d="M 50.984375 -16.609375 
L 50.984375 -23.578125 
L -0.984375 -23.578125 
L -0.984375 -16.609375 
z
" id="DejaVuSans-95"/>
     <path d="M 44.28125 53.078125 
L 44.28125 44.578125 
Q 40.484375 46.53125 36.375 47.5 
Q 32.28125 48.484375 27.875 48.484375 
Q 21.1875 48.484375 17.84375 46.4375 
Q 14.5 44.390625 14.5 40.28125 
Q 14.5 37.15625 16.890625 35.375 
Q 19.28125 33.59375 26.515625 31.984375 
L 29.59375 31.296875 
Q 39.15625 29.25 43.1875 25.515625 
Q 47.21875 21.78125 47.21875 15.09375 
Q 47.21875 7.46875 41.1875 3.015625 
Q 35.15625 -1.421875 24.609375 -1.421875 
Q 20.21875 -1.421875 15.453125 -0.5625 
Q 10.6875 0.296875 5.421875 2 
L 5.421875 11.28125 
Q 10.40625 8.6875 15.234375 7.390625 
Q 20.0625 6.109375 24.8125 6.109375 
Q 31.15625 6.109375 34.5625 8.28125 
Q 37.984375 10.453125 37.984375 14.40625 
Q 37.984375 18.0625 35.515625 20.015625 
Q 33.0625 21.96875 24.703125 23.78125 
L 21.578125 24.515625 
Q 13.234375 26.265625 9.515625 29.90625 
Q 5.8125 33.546875 5.8125 39.890625 
Q 5.8125 47.609375 11.28125 51.796875 
Q 16.75 56 26.8125 56 
Q 31.78125 56 36.171875 55.265625 
Q 40.578125 54.546875 44.28125 53.078125 
z
" id="DejaVuSans-115"/>
    </defs>
    <g transform="translate(193.09125 28.56)scale(0.12 -0.12)">
     <use xlink:href="#DejaVuSans-116"/>
     <use x="39.208984" xlink:href="#DejaVuSans-111"/>
     <use x="100.390625" xlink:href="#DejaVuSans-116"/>
     <use x="139.599609" xlink:href="#DejaVuSans-97"/>
     <use x="200.878906" xlink:href="#DejaVuSans-108"/>
     <use x="228.662109" xlink:href="#DejaVuSans-95"/>
     <use x="278.662109" xlink:href="#DejaVuSans-108"/>
     <use x="306.445312" xlink:href="#DejaVuSans-111"/>
     <use x="367.626953" xlink:href="#DejaVuSans-115"/>
     <use x="419.726562" xlink:href="#DejaVuSans-115"/>
    </g>
   </g>
  </g>
 </g>
 <defs>
  <clipPath id="p75c45badd4">
   <rect height="217.44" width="334.8" x="54" y="34.56"/>
  </clipPath>
 </defs>
</svg>
